<svg preserveAspectRatio="none" viewBox="0 0 2049 421" fill="none" xmlns="http://www.w3.org/2000/svg">
<path d="M0 54.6333L31.1903 61.5867C62.153 68.54 124.534 82.4467 186.687 80.46C248.84 78.4733 311.22 60.5933 372.918 54.6333C434.843 48.6733 496.313 54.6333 558.239 59.6C619.936 64.5667 682.317 68.54 744.47 73.5067C806.623 78.4733 869.004 84.4333 931.157 94.3667C993.31 104.3 1055.69 118.207 1117.84 117.213C1180 116.22 1242.38 100.327 1304.53 94.3667C1366.68 88.4067 1429.06 92.38 1490.76 86.42C1552.69 80.46 1614.16 64.5667 1676.08 55.6267C1737.78 46.6867 1800.16 44.7 1862.31 52.6467C1924.47 60.5933 1986.85 78.4733 2017.81 87.4133L2049 96.3533V0H2017.81C1986.85 0 1924.47 0 1862.31 0C1800.16 0 1737.78 0 1676.08 0C1614.16 0 1552.69 0 1490.76 0C1429.06 0 1366.68 0 1304.53 0C1242.38 0 1180 0 1117.84 0C1055.69 0 993.31 0 931.157 0C869.004 0 806.623 0 744.47 0C682.317 0 619.936 0 558.239 0C496.313 0 434.843 0 372.918 0C311.22 0 248.84 0 186.687 0C124.534 0 62.153 0 31.1903 0H0V54.6333Z" fill="#4B03BA"/>
<path d="M0 144.033L31.1903 156.947C62.153 169.86 124.534 195.687 186.687 201.647C248.84 207.607 311.22 193.7 372.918 183.767C434.843 173.833 496.313 167.873 558.239 166.88C619.936 165.887 682.317 169.86 744.47 171.847C806.623 173.833 869.004 173.833 931.157 186.747C993.31 199.66 1055.69 225.487 1117.84 219.527C1180 213.567 1242.38 175.82 1304.53 157.94C1366.68 140.06 1429.06 142.047 1490.76 140.06C1552.69 138.073 1614.16 132.113 1676.08 143.04C1737.78 153.967 1800.16 181.78 1862.31 185.753C1924.47 189.727 1986.85 169.86 2017.81 159.927L2049 149.993V94.3666L2017.81 85.4266C1986.85 76.4866 1924.47 58.6066 1862.31 50.6599C1800.16 42.7133 1737.78 44.6999 1676.08 53.6399C1614.16 62.5799 1552.69 78.4733 1490.76 84.4333C1429.06 90.3933 1366.68 86.4199 1304.53 92.3799C1242.38 98.3399 1180 114.233 1117.84 115.227C1055.69 116.22 993.31 102.313 931.157 92.3799C869.004 82.4466 806.623 76.4866 744.47 71.5199C682.317 66.5533 619.936 62.5799 558.239 57.6133C496.313 52.6466 434.843 46.6866 372.918 52.6466C311.22 58.6066 248.84 76.4866 186.687 78.4733C124.534 80.4599 62.153 66.5533 31.1903 59.5999L0 52.6466V144.033Z" fill="#5802DC"/>
<path d="M0 328.794L31.1903 333.76C62.153 338.727 124.534 348.66 186.687 346.674C248.84 344.687 311.22 330.78 372.918 335.747C434.843 340.714 496.313 364.554 558.239 368.527C619.936 372.5 682.317 356.607 744.47 353.627C806.623 350.647 869.004 360.58 931.157 376.474C993.31 392.367 1055.69 414.22 1117.84 419.187C1180 424.154 1242.38 412.234 1304.53 393.36C1366.68 374.487 1429.06 348.66 1490.76 341.707C1552.69 334.754 1614.16 346.674 1676.08 361.574C1737.78 376.474 1800.16 394.354 1862.31 397.334C1924.47 400.314 1986.85 388.394 2017.81 382.434L2049 376.474V148.007L2017.81 157.94C1986.85 167.874 1924.47 187.74 1862.31 183.767C1800.16 179.794 1737.78 151.98 1676.08 141.054C1614.16 130.127 1552.69 136.087 1490.76 138.074C1429.06 140.06 1366.68 138.074 1304.53 155.954C1242.38 173.834 1180 211.58 1117.84 217.54C1055.69 223.5 993.31 197.674 931.157 184.76C869.004 171.847 806.623 171.847 744.47 169.86C682.317 167.874 619.936 163.9 558.239 164.894C496.313 165.887 434.843 171.847 372.918 181.78C311.22 191.714 248.84 205.62 186.687 199.66C124.534 193.7 62.153 167.874 31.1903 154.96L0 142.047V328.794Z" fill="#6600FF"/>
</svg>
