<svg width="55" height="68" viewBox="0 0 55 68" fill="none" xmlns="http://www.w3.org/2000/svg">
<g clip-path="url(#clip0)">
<path d="M47.3518 31.3542C47.3518 34.4921 47.7212 37.6401 47.3518 40.763L47.4866 39.7637C47.3792 40.7057 47.1544 41.6306 46.8176 42.5168L47.197 41.6174C47.0031 42.0324 46.783 42.4346 46.538 42.8216C46.1986 43.3813 47.1521 42.1171 46.7128 42.6018C46.563 42.7717 46.4182 42.9416 46.2535 43.1014C46.1686 43.1864 45.8741 43.5462 45.7543 43.5511C45.904 43.5511 46.593 42.9515 45.9689 43.3663C45.5905 43.6181 45.1894 43.8339 44.7708 44.0109L45.6694 43.6361C45.0814 43.877 44.4661 44.0448 43.8372 44.1358L44.8357 44.0008C41.0266 44.4605 37.0976 44.3556 33.2686 44.3456C29.3097 44.3456 25.3458 44.2507 21.3819 44.1957C19.8144 44.1707 18.2418 44.1458 16.6742 44.1707C14.7172 44.2057 12.8401 45.8746 12.93 47.9183C12.9454 48.9074 13.3449 49.8516 14.0437 50.5511C14.7426 51.2505 15.686 51.6503 16.6742 51.6658C22.2656 51.5758 27.8619 51.8307 33.4533 51.8407C36.5635 51.8407 39.6787 51.8407 42.7839 51.6508C43.4378 51.6158 44.0968 51.5808 44.7458 51.5059C46.0896 51.3739 47.4022 51.0193 48.6298 50.4566C50.5267 49.5603 52.1148 48.1203 53.1928 46.3193C54.5556 44.1058 54.9051 41.3826 55 38.8243C55.0948 36.266 54.8702 33.8276 54.8652 31.3292C54.8652 29.3705 53.1478 27.4918 51.121 27.5817C50.1335 27.5997 49.1916 28.0003 48.4932 28.6992C47.7949 29.3981 47.3947 30.3409 47.3767 31.3292L47.3518 31.3542Z" fill="#511E78"/>
<path d="M0.159691 31.3543C0.159691 33.5428 -0.0150428 35.7264 -6.59969e-05 37.9099C0.0149109 40.0935 0.149702 42.4719 0.998391 44.5106C1.84728 46.714 3.3644 48.5959 5.33669 49.892C7.12393 51.0512 9.13082 51.441 11.2176 51.5859C17.4879 52.0356 23.8131 51.8507 30.0934 51.7458C32.8392 51.7008 35.5849 51.6209 38.3407 51.6658C40.2976 51.7008 42.1747 49.922 42.0849 47.9183C42.0657 46.9304 41.6651 45.9883 40.967 45.2896C40.269 44.591 39.3277 44.19 38.3407 44.1708C31.002 44.0509 23.6684 44.4556 16.3247 44.3057C14.2829 44.2657 12.2111 44.2457 10.1792 44.0009L11.1777 44.1358C10.5488 44.0448 9.93351 43.877 9.34549 43.6361L10.2441 44.0109C9.8255 43.8339 9.42437 43.6181 9.04595 43.3663C8.74641 43.1665 8.54672 42.8367 9.26062 43.5512C9.10086 43.3963 8.91615 43.2614 8.76139 43.1015C8.60663 42.9416 8.45187 42.7717 8.3021 42.6018C7.88775 42.1421 8.80134 43.3763 8.47684 42.8217C8.23 42.4358 8.00983 42.0334 7.81785 41.6175L8.19727 42.5169C7.86043 41.6307 7.6357 40.7058 7.52831 39.7637L7.66309 40.763C7.2737 37.6401 7.63314 34.4922 7.66309 31.3543C7.66309 29.3956 5.93576 27.5168 3.91888 27.6067C2.93146 27.6247 1.98949 28.0253 1.29116 28.7242C0.592833 29.4232 0.192601 30.366 0.174667 31.3543H0.159691Z" fill="#511E78"/>
<path d="M41.8853 44.3656C26.0198 35.7513 13.2096 44.3656 13.2096 44.3656H41.8853Z" fill="#511E78"/>
<path d="M17.8924 33.7327H37.8615L49.8131 10.1932C49.8131 10.1932 52.5838 0.819447 40.6323 0.244827C28.6807 -0.329792 14.0583 0.244827 14.0583 0.244827C14.0583 0.244827 6.3153 0.529637 5.07222 5.41141C3.82914 10.2932 5.27191 10.6829 17.8924 33.7327Z" fill="#511E78"/>
<path d="M3.74426 67.995H10.0545C10.0545 67.995 26.2095 46.0096 45.6146 67.995H51.2658C51.2658 67.995 29.5544 36.0412 3.74426 67.995Z" fill="#511E78"/>
</g>
<defs>
<clipPath id="clip0">
<rect width="55" height="68" fill="white"/>
</clipPath>
</defs>
</svg>
