<svg id="Capa_1" data-name="Capa 1" xmlns="http://www.w3.org/2000/svg" viewBox="0 0 756 723"><defs><style>.cls-1{fill:#fdd277;}.cls-1,.cls-2,.cls-3{fill-opacity:0.76;}.cls-2{fill:#fbe9c2;}.cls-3{fill:#fff8ea;}</style></defs><path class="cls-1" d="M1458.19,1080.43c0,199.65-169.24,361.5-378,361.5s-378-161.85-378-361.5,169.24-361.5,378-361.5S1458.19,880.78,1458.19,1080.43Z" transform="translate(-702.19 -718.93)"/><path class="cls-2" d="M1391.19,1045.93c0,159.06-134.76,288-301,288s-301-128.94-301-288,134.76-288,301-288S1391.19,886.87,1391.19,1045.93Z" transform="translate(-702.19 -718.93)"/><path class="cls-3" d="M1308.19,989.93c0,110.46-89.54,200-200,200s-200-89.54-200-200,89.54-200,200-200S1308.19,879.47,1308.19,989.93Z" transform="translate(-702.19 -718.93)"/></svg>