<svg xmlns="http://www.w3.org/2000/svg" viewBox="0 0 453.8 577.18"><defs><style>.cls-1{fill:#fed278;}.cls-1,.cls-2,.cls-3{fill-opacity:0.76;}.cls-2{fill:#fce9c2;}.cls-3{fill:#fff9eb;}.cls-4{fill:#eaccd9;}.cls-5{fill:#e9b198;}.cls-6{fill:#ee9398;}.cls-7{fill:#766aab;}.cls-8{fill:#d5d9ea;}.cls-9{fill:#955b53;}.cls-10{fill:#d4bbd9;}.cls-11{fill:#84b889;}.cls-12{fill:#7f65a9;}.cls-13{fill:#314395;}.cls-14{fill:#949acd;}.cls-15{fill:#0090bc;}.cls-16{fill:#62c5e5;}.cls-17{fill:#675e6b;}.cls-18{fill:#918c93;}.cls-19{fill:#fcfbfd;}.cls-20{fill:#060707;}.cls-21,.cls-22,.cls-23{fill:#b3dde3;}.cls-21,.cls-33,.cls-37{opacity:0.75;}.cls-21,.cls-22,.cls-23,.cls-24,.cls-25,.cls-26,.cls-27,.cls-28,.cls-29,.cls-30,.cls-31,.cls-33,.cls-35,.cls-37,.cls-38{isolation:isolate;}.cls-22,.cls-24,.cls-28{opacity:0.4;}.cls-23,.cls-25{opacity:0.55;}.cls-24,.cls-25{fill:#c55768;}.cls-26{fill:#323d8b;}.cls-26,.cls-27,.cls-29{opacity:0.6;}.cls-27{fill:#529dd6;}.cls-28,.cls-29,.cls-38{fill:#fff;}.cls-30{fill:#edb1c4;}.cls-30,.cls-31,.cls-35{opacity:0.5;}.cls-31{fill:#c07359;}.cls-32{fill:#e9ebf5;}.cls-33{fill:#d3ecfa;}.cls-34{fill:#6abfa6;}.cls-35,.cls-36{fill:#6e59a2;}.cls-37{fill:#cd776e;}.cls-38{opacity:0.65;}.cls-39{fill:none;stroke:#6e6c68;stroke-miterlimit:10;stroke-width:0.75px;}</style></defs><g id="Capa_1" data-name="Capa 1"><path class="cls-1" d="M495.67,415.74c0,119.84-101.58,217-226.89,217s-226.9-97.15-226.9-217,101.58-217,226.9-217S495.67,295.9,495.67,415.74Z" transform="translate(-41.88 -145.45)"/><path class="cls-2" d="M455.46,395c0,95.48-80.9,172.87-180.68,172.87S94.1,490.51,94.1,395,175,222.16,274.78,222.16,455.46,299.55,455.46,395Z" transform="translate(-41.88 -145.45)"/><path class="cls-3" d="M405.64,361.41a120.06,120.06,0,1,1-120.06-120A120.06,120.06,0,0,1,405.64,361.41Z" transform="translate(-41.88 -145.45)"/><path class="cls-4" d="M297.92,156.75l-3.24,2.77L293,162l-1.17,2.82-.65,2.85v3.6l0,3-2.57,1-2.65,1.87L283.84,180l-.94,2.69-.5,4.12.22,3.49.28,1.47-.88,1.49-.51,1.1-.72,1.78-.33,2.12-.11,2.78.18,1.57.39.81-.24.94-.33,1.93-.17,1.41v2.18l.4,2.59.86,2.53,2,3,2.16,2,2.26,1.64,1.83.41.5,1.11,1.63,1.36,2.51,2,1.69.67,3.31.45,3-.27,1.74-.71,1.48-1.7.42-2-.33-2.55,2.83,3.46,2.27,1.78,2.6,1.39,3.39,1.16,4.35.75h4.55l4.73-1.09,2.23-1.28,2.08-2.25.54-1.4,3.3,1.73,3.78,1.73,3,.81,2.88.14,2-.76,2.29-2,1.66-3.61,3.22,1.22,3.43,1.45h3.94l5.16-.79,4.84-2.4,3.86-3.39,2.36-3-1.14,2.52.59,2,1,3.58.82,2.86,1,3.44,1.05,3.59.65,2.13,2.13,1.55,1.91,1.31,2.26-1.5,1-2.27-.9-5.64-1.27-8-.24-2.62,2.41.09,2.59.34,2.88.73,2.63,1.14,3.3,2.43,1.52,1.86.72-1.45v-5.91l-1.53-2.82,1.53-2.19,1.47-4.3,2.29-1.42,1.59-2.66.86-3.15-.38-2.8-1.23-2.1L411,189l-1.65-4.74.76-3.09.48-5.91-.85-4.17-1.84-3.35-2.59-2.44-4-2.05-4.48-1L393.6,162l-1.91-2.84-1.78-1.78-3.13-2-2.48-.93-4.44-.68h-3.23l-1.92.4-4.21-1.41h-9.61l-1.39-1.41-4.42-3.41-5.21-2.1h-3.7L342,147.28l-3,1.88-2.72,2.57-3.25-2-3.18-2-3.76-1.05-3.5.24L319.45,148l-3.29,2.11-3.25,2.32-.81,1.76h-2.27l-3.82,0-2.63.43-3.32,1Z" transform="translate(-41.88 -145.45)"/><path class="cls-5" d="M288.7,221.81l-3.24-.2-2.62.84-1,3.89,1,2.73,1.58,3.56a2.48,2.48,0,0,0,.79,1.54,19.89,19.89,0,0,1,2.08,2.84l1.37,2,2.41,2.13,2.29,1.76,2.14.46,1.14,2.74a15,15,0,0,0,1.68,3.53c.8.92,5,8.21,5,8.21l3.31,4.11,6.3,5.76,5.37,3.41,5.48,2.74,6.68,1.74,13.39,1.71v3c0,.4.52,7.6.52,7.6l.2,4.56.29,9.58h2.74v-9.24l3.51-.57,22.29-2-.53-4.85-.91-5.77-.78-3.93-.8-2.49-.71-.76,4.92-2,4.31-2.35,5.13-3.55,3.09-2.73,4.65-6.21,2.23-5,3.75-5.54,3.45-2.84,3.72-3.87,1.7-3.59.64-3.34v-3.9l-2-4-1.53-1.86-3.3-2.43-4-1.51-4.11-.66-2.4-.09.35,3.39.74,4.46.91,5.12.26,2.74-.86,2.74-1.66,1.11-2.52-.92L385,234.08l-.66-2.14-1-3.58-1.37-4-.47-2.31-.72-2.52-.89-3.07-2.37,1.61-2.1,1.58L373.3,221l-1.67,1-4.11,1.45H360.8l-2.57-1.14-2.74-1-1.3-.49-1.37,2.67-1.76,2-2.81,1.66-2.86-.13-3-.8-2.45-1.14-4.63-2.33-2.6,3.66-3.39,1.78-3.6.65h-4.62l-4.35-.76L313.35,227l-4.88-3.17-2.83-3.46-.09,4.52-3.23,2.39-3,.29-5-1.12-2.5-2-1.63-1.37-.51-1.11" transform="translate(-41.88 -145.45)"/><path class="cls-6" d="M400.53,314.7c.25-.09.25.11,3.36.93,1.87.5,3.08.73,3.85.91a37.84,37.84,0,0,1,7.08,2.47,43.34,43.34,0,0,1,13,8.22,39.82,39.82,0,0,1,7.75,9.94,36.07,36.07,0,0,1,4.11,12.32s.07.48.74,7.63v-.47c1,1.78,1.65,3.32,2.14,4.51a31.09,31.09,0,0,1,1.19,3.22,24.54,24.54,0,0,1,.77,3.6c.29,1.85.18,2.12,0,2.31s-.55.37-3.34.88c-1.15.21-1.5.29-1.78,0a2.35,2.35,0,0,1-.43-1,2.38,2.38,0,0,1,.06-1.06c0-.21.08-.24.06-.28-.23-.74-6.64,1-13.28,2.28-7.87,1.56-12,2.65-13.7,4.38-.77.73.79,1.85.27,2.74-.14.23-.61.84-4.55.81a12.9,12.9,0,0,1-4.37-.37,6.82,6.82,0,0,1-4-4.78,7.11,7.11,0,0,1,1-5.24,2.74,2.74,0,0,1,.36-.48c-.74,2-5.55-13.59-3.88-31.64.42-4.6.36-10.18.73-13.69C398.38,317.44,399.45,315.18,400.53,314.7Z" transform="translate(-41.88 -145.45)"/><path class="cls-6" d="M396.42,305.94l-.89-3.35-2-5.59-2.21-4.2-2.74-3.63-39.82,3.46-1.06.17v9.28l1.37,3.23,1.67,1.21.33.23a2.29,2.29,0,0,1,.61.63,2.35,2.35,0,0,1,.31.81,2.12,2.12,0,0,1,0,.87,2.17,2.17,0,0,1-.37.8l-2.52,11.62-2.74,27.46-.59,14.36-.41,26.78V391h5l4.52,1.68,3.38,1.93,4.62.4h3.85l1-1.5.75-2.09,2.4-2.67,2.45-2.11h2.21l2.74-.16H381l3.36,1,3.87,1.62,3.48,2.31,1.53,1.54,3.45.2,14.8-1.05-4.38-3.33-6.74-5.39-5-4.22-4-7.86-4-9.65L384.63,353l-1.91-11.33L382,328.57l1.15-7.39,3-6.46,2-2.43,4.64-3.56,3.58-1.5Z" transform="translate(-41.88 -145.45)"/><path class="cls-6" d="M360.62,425.71l2.26-1.58,3.42-2.87,1.37-1.08,3.69-.19,3.87-.48,1.11.67,2.87,1H382l2.83-1,2.22-1.5,1.13-1.65h7.54l6.53-.58s3.19-.32,3.7-.39l5.48-.78,4.89-1,.84,3.25,1.13,4.86,1.15,5.93.58,3.81-.26,4.38-.84,1.22-22.11-1.48-9.34-1-8.22-1.37-7.25-1.8-6.53-2.61-3.07-1.71Z" transform="translate(-41.88 -145.45)"/><path class="cls-6" d="M316.79,422.38l-.61,3.36-1.54,3.82-3.46,2.58-6.13,3.75-3.1,1.29-1.9-3.67L298.28,426l-.34-8.49.44-5.48.71-5.39,1.13-5.93.69-2.82,4.11-.16,6.14.55,7,.64,4.19.38,2.1.19.37-4.54.15-1.85L303.16,391v-2.25l.78-6.31,1.93-7.05,2-5,2.11-4.11,3.43-5.35-1.21-37,1.64-3.6L316.7,317l6.72-5.34,3.78-2.3-1.89-1.37s-.43-5.48,0-5.89a37.48,37.48,0,0,0,1.86-5.47l1-1.78,2.33-1.67,3.24-.65h10.77l.29,9.59-2.41-.59-.18,7.33-2.1,2.74-3,4.73-4.55,8-2.45,5.6-1.49,37.55-1.88,11.6-.12,2.45h-1.37l-1.37,1.75-.8,2,.62,3.35,1.19,2.67,2.44,3.59,1.6,1.85,1.58,1.83.2.86-.46,1.22-23.1,4.11-1.56.75-.73,1.56.36,2.27.92,1.37,2.38,1.37,3.25-.07,19.88-3.8h1l1,.68v.77l-1.67,1-21.22,4.53-2.56.77-1.62,1.37a21.23,21.23,0,0,1-.5,2.62c-.15.32.19,1.09.19,1.09l.86.9,1.37,1.64Z" transform="translate(-41.88 -145.45)"/><path class="cls-6" d="M303.88,324.78l-7,3.79L291,333.46l-2.65,3.75L287,341.7v3.41l-2.2,3.82L281.43,356l-2.95,7.26-.49,1.51-1,4.36v3l1.37,1.69,22.83,9.46,2.74-.91,1.93-7.05-3.58-1.5-1.15-1.9-.57-3.16s.06-4.11.09-5.48.6-5,.48-7.11.19-7.79.3-9.27.41-5.22.41-5.22.59-5.67.77-7,1.18-7.15,1.18-7.15Z" transform="translate(-41.88 -145.45)"/><path class="cls-7" d="M314.64,429.57l-1.88,1.4-1.58,1.17.17,2.32,6.83,94.84,3,17.38L323,553.8l15.39,70.28-.73,1.93-.52,2.28.22,2.87,1,2.05,2.12,1.62,2.91.45,6.09-.34,24-4.41,4.19-1.2,1.65-4.49-.88-4.62-1.41-2.09-1.41-1.38-.4-8.64-.4-3.12-.54-3.69-2.32-12.45-6.14-27L357.45,529l-.41-80.3,4.34-.2,2.51-.37.95-.22-.46.79,7.2,46.94,2.15,18.62,1.21,15.06.63,14.66.9,10.09,2.83,20.7,10.49,54.11-1,1.63-.67,2-.19,1.52.62,3.29,1.75,2.76,2,1.33,8.15,1.82h7.47l10.57-1.12,8.65-2.22,4-3.15.95-2.71-.95-2.71-1.27-3.41-1.72-2.26-1.05-1-.21-7.09-.9-8.79-2.33-17.58-7.67-48-.43-2.52,0-3.54-.82-99.54-31.5-2.82L374,432.88l-8.6-3.32-3.67-2.5-1.06-1.35-4.23,2.3-3.81,1.18-5.12.91-3.08-.56-2.82-.34L334.21,431l-6.16,1.31-2.63.55-6.95.63h-2.22l-1.61-1.37" transform="translate(-41.88 -145.45)"/><path class="cls-5" d="M342.35,391l-5.25-4.36-4.68-3.28-4.15-1.66h-2l-1.5.82-1.44,2.88.53,2.8,1.28,3.22,2.44,3.59,1.59,1.84,1.59,1.85-.26,2.07-1,.19-3.19.58-19.73,3.79-1.44,1.91.36,2.26.92,1.37,2.38,1.37,1.74.47,4.73-1.06,16.66-3.27,2,.67v.78l-1.05.66-3.62,1-20.79,4.66-1.61,1.42-.39,2.25.08,1.46,1.48,1.63.79.93,3.67-.53,25.88-5,1,.58L339,420l-1.73,1-21,6.31-1.1,1.44-.7,2.45,1.71,2.35,10.28-.86,11.63-2.6,3.4-.85,1.19-.05.7.17,2.39.17,1.62.61,3.77-.67,4.78-1.3,5.34-2.93,6.36-5,3.7-.2,3.48-.66,2.08-1.08,2.37-1.95,2.61-4.2v-2.63l-1.13-.52-3.4-.86-2.15-2-1.69-1.56-3-3.78-2.41-4.86-.42-.94h-9.1l-3.79-2.33-4-1.26-5.51-.42Z" transform="translate(-41.88 -145.45)"/><path class="cls-5" d="M393.94,393.13l1.37,2.3.21,2.42v6.39L394,406.43,392.58,408l-1.43,1.49v1.24s-.46,2.32-.59,2.73-1.1,2.4-1.1,2.4l-1.22,1.2,14.07-.58,10-1.37s8.75-2.11,9.19-2.25,7.09-3,7.09-3l5.7-4.1,3.84-4,3-4.64V393l-1.91-24-6.12.88-8.22,1.87-11,3.36-1.66.56.28,2.73.93,3.37,1.28,3.48,3.09,6.5Z" transform="translate(-41.88 -145.45)"/><path class="cls-5" d="M236.88,394.1l-1.79-1h-2.33l-2.87,1-1.65,2.19.26,3.26,1.37,2,2.74,1.63,3.12.61,2.45.65,2.15.13h1.89l1.37,1.45,5.25,3.21s6.1,3,6.63,3.19,4.11,1.37,4.11,1.37l5.64.57,3.15.26h3.51l2.62,1,6.15.93h4.11l4.53-.74,3.43-1.23,3.7-2.35,1.49-1.37,1.15-4.11,1.14-5.93.68-2.82L274.5,395l-15.07-2-7,.9-2.74-.9-2.09.72L245.87,395H245l-1.53-.92L240.39,393Z" transform="translate(-41.88 -145.45)"/><path class="cls-5" d="M281.42,375.13l-1.55,13.59,23.3,2.25.85-8.56-.45.63-2.34.29Z" transform="translate(-41.88 -145.45)"/><path class="cls-7" d="M316.79,422.38l-.61,3.36.16,1.53,21.8-6.79,1.16-1.6-1.68-.66Z" transform="translate(-41.88 -145.45)"/><path class="cls-7" d="M316.18,425.74l-.95,2.71,1.11-1.18" transform="translate(-41.88 -145.45)"/><path class="cls-8" d="M347.64,302.08l-5.11-.6-.18,7.33-6.15,9.45L330.28,330l.18,4.9-.29,6.83-1.9,30.11-1.15,6" transform="translate(-41.88 -145.45)"/><path class="cls-8" d="M328.5,371.14l-.75,5.11-.73,4L326.2,382h2.3l2.25.85,3.24,1.65,3.5,1.87,2,2.38,1.71.76,1.22,1.22,3,.52,1-41.15,1.24-16L349.14,321l1.72-7.52,2-5.41-2.16-1.51-2.2-2.44-.87-2-5,.53-.18,7.33" transform="translate(-41.88 -145.45)"/><path class="cls-8" d="M325.17,307l.22,1.76,1.88.55-3.77,2.3-4.27,3.14-4.87,4.42-1.92,3.31-.09,2.79v8.35L314,359.85l-1.67,2.83-2.26,3.52-3.6,7.67-.55,1.49-3.56-1.49-1.74-5.07,1-22.93,3.44-22.72,2.31-4.51,3.48-3.94,4.62-3.42,6-3Z" transform="translate(-41.88 -145.45)"/><path class="cls-6" d="M352.87,306.9h1.95l-.92,7.82-3-1.28,2-5.41" transform="translate(-41.88 -145.45)"/><path class="cls-8" d="M396.45,307.23l-.06-1.29-1.93-7.08-2-4.1h27.19l1.62.31,2.64,2,2,3.34,1,3,.64,3.17.41,3.43.14,2v2.76l.12,1.61,2.43.3,3.89,1.14,4.93,2.65,2.63,2.15,2.82,3.14,2,3,2.84,6.42,1.93,8.77.45,4.27.82,12.26.27,8.15-.58,24.51-.82,11.11-2.77,5.1L444.79,414l-5.24,3.32-4.09,1.35-17.2,1.54-1.95-5.9,8.54-2.61,6.26-3.33,4.89-4.46,3.55-4.27,1.43-4.21.18-3.36-1.61-20.8h3l1.73-.45.32-2.76-.57-2.87-1.38-4-2.13-3.06-.42-5.11-1-7.24-2.28-6.21-2.09-4.28-4.55-6.11-4.37-3.41-8.08-5.41L413,318.26l-5.23-1.7L402,315.1l-1.36-.37-.88.46-1.48,2.55-1.17,12.75v14.25l.73,13.4,1.56,8.12,1.24,2.47-1,2v4.11l1.2,2.27,1.88,1.19,2.38.86,2.39.39,4.72-.39h.57L417.45,391l-.85.76-5.18.32L402.28,385l-7-5.85L391,370.64l-2.81-7.24-2.48-5.93-1.95-9-1.75-10.06V327.82l.78-5.81,3.41-7.29,3.07-3.63,5.41-3.49Z" transform="translate(-41.88 -145.45)"/><path d="M378.27,386.48H381l5.46,1.86,5.25,3.05,3.57,4,.22,2.42-1.56,3.74-1.75,1.86-4,.79-4-.8L379,401.19l-3.74-3.26-2-3.86,0-3.15,1.93-3Z" transform="translate(-41.88 -145.45)"/><path class="cls-9" d="M375.52,386.64l-3.52.9-1.14,1.18-2.4,2.64-.75,3.59,2.05,4.54,3.84,5,3.82,3.52,3.41.88,1.12.52v2.62l-1.85,3.26s-1.46,1.51-2.3,2.19a24.1,24.1,0,0,1-2.91,1.78l1.49.85,2.88,1H382l2.82-.95,3.35-3.15,2.09-1.67.6-3.59.2-2.3L392.5,408l2.3-2.84.44-2.28.21-3.34v-1.67l-1.56,3.73-1.76,1.87-4,.79-4-.81-4.43-1.48-3-2.36L375.27,398l-2-3.87V391l2.18-4.29Z" transform="translate(-41.88 -145.45)"/><path class="cls-10" d="M327.93,667.34h14.69l3,.86,4.05.85,2.89,1.85,2.5,2,1.65,1.08,1.55.48h1l.52-2.7-.17-1.52-1.52-1.18-4.46-2.32-4-1.33-5.81-.95-4.32-.35h-5.25l-3.54.94-2.12.85Z" transform="translate(-41.88 -145.45)"/><path class="cls-10" d="M325.25,669.93l4.25-.48,4.45-.4,5.28.44,4.22.88,4.28,1.37,3.25,1.68,1.6,1.37V677l-1.6,1.15-1.29.69s0,.1-.79-.69a38.62,38.62,0,0,0-5-2.92l-2.74-.81-5.05-.9-4.11-.11-5.14.53-1.61.13-1.8.35-.2-1.56.2-2.13Z" transform="translate(-41.88 -145.45)"/><path class="cls-10" d="M323.25,676.25l-3.94,2.59-3.4,2.93-2.45,2.85-1.56,2.61-1,4v5.69L309.83,710l7.88,2L333,714.52h7.23c.7,0,8.4-.55,8.4-.55L356,712.6l3.35-1,6.26-.7,8.22-1.24s2.25-.43,3.26-.67,3.81-1.09,3.81-1.09l2.15-1.1,1-1.37-.43-3,.33-2.74-.33-2.74-2.1,1.23-6.58,2.25-5.14,1.37-9.08,1.37-2.44.38.15-3.36v-9.58L357,684.47l-1.91-2.65-1.46-1.2-2-1.09-2-.63-2.74.72-3.5,1-3.89.7-4.37.47-3-.47-2.88-.73-3.54-1.78-1.58-1.14Z" transform="translate(-41.88 -145.45)"/><path class="cls-10" d="M396.76,675.36l2-1.56,9.74-.27,11.82.44,4.37.56,5.84.63,3,.34-.22,2.67-1.24,1.89-1,1.26-1.75-1.81-2.66-.66-4.41-.09-24.56-.59-.89-1.92Z" transform="translate(-41.88 -145.45)"/><path class="cls-10" d="M397.71,678.17l-1.59,1.34-.58,1.81,1.18,1.44,2.07,1.09,1.67-.92,4.32-.41,6.12,0,9.44.24,4.56-.25,2.25,1,.89,2-.86,1.17,3.38-3.46.53-1.82-1.75-1.81-2.66-.66Z" transform="translate(-41.88 -145.45)"/><path class="cls-10" d="M395.76,686l-4,.64-1.42,1.58-1.73,3.08-.71,3.38,0,23,1.37,2.09,2.56.89,44.16,1.6,2.52-1.87,1.41-2.59.53-6-1-16.41-1.58-4.13-3.71-3-3.56-1.37-3.25.33-1.19,1.83-2.27.88-8.35.7-9.15-.52-3-.88-2.92-1.37-1.67-1Z" transform="translate(-41.88 -145.45)"/><path class="cls-11" d="M399,667.34l-.55-3.24.55-5.35,1.45-2.74,2.93-.8a35.34,35.34,0,0,1,3.15-1.83c.68-.23,6.61-1.47,6.61-1.47h4.23l5,1.69,4.35,2.49,1.78,1.37,2.08,3.93v3l-.07,2.89-.08,1.06-12.51.21-7.34.44-4.11-.65Z" transform="translate(-41.88 -145.45)"/><path class="cls-11" d="M398.79,686l.84,1.41,4.59,2.15,6.34,1h6.94l4.07-.16,4.55-1.24,1.19-1.83-.16-1.83v-2l-2.25-1-4.56.25-8.55-.21-8.75,0-2.58.46-1.67.92Z" transform="translate(-41.88 -145.45)"/><path class="cls-11" d="M323.46,674.45l.72,2.57,2.74,2.62,5.35,1.68a54.36,54.36,0,0,1,5.71-.15,51.88,51.88,0,0,0,6.7-.55l5.07-1.75,2.89-1,5.7-1.63,2.85-2.28.39-2.22-1.86-1.53.18,2.67-.52,1.56h-1l-2.44-1-2.19-1.68-3.09-1.53L347,668.46l-3.49-1.12-5.48.22-4.9.11-3.44-.33h-1.75l-1.06,1.93,1.06.36,5.09-.5h1.81c.53,0,3.1.1,3.1.1l4.57.9,3.18,1.1,4,1.37L351.8,674l.78,2.95-1.6,1.15-3.79-1.15-3.31-1.76-2.74-.81-3.95-.71-3.2-.3-6.05.42Z" transform="translate(-41.88 -145.45)"/><path class="cls-11" d="M341.12,659.73l2.9.47,5.06.74,6.37.79,4.39.49,3.84,0,1.9-.88.68-2.54-.42-4.27-1.26-5.14-1.45-1.43-3.81-1.59-6.74-.66h-4.11l-1.53,0-3.06,1.45-1.26,1.24-.85,1.43-.64,3.62Z" transform="translate(-41.88 -145.45)"/><path class="cls-12" d="M337.17,658.75,335,660.2l-1.37,2-.85,2.27,3.62-.23,4.72-.18,5.81.35,4.28,1.37,2.48.82,3.43,1.7,2.54,1.81,2.12.45,4.47.71,4.39.34,5.07-.19,3.69-.78,3.92-2.34,1.65-2.52.65-3.65-.1-3.49-1.37-2.36-1.37-2.74-1.09,2.93-1.06,1.76-3.53,1.58-3.63,1.21-4,1.11h-9.59s-5.48-1-6.15-.7S344,660.1,344,660.1l-4.82-.81Z" transform="translate(-41.88 -145.45)"/><path class="cls-12" d="M384.05,671.75,382,672.89l-2.56.09-2,.55-2.48,1.68-1.41,2.22-.75,3.89.26,2.52.64,1.59,2.08,1.83,1.36.47h3.35l3.16-.47,1.2-1.83.78-3v-2.88l-1-6Z" transform="translate(-41.88 -145.45)"/><path class="cls-12" d="M393.38,665.89l-1.58.75-.68.7-.74,1.93.26,2.45.59,1.81.57,1.29,1.58.57.9.1,2.48-.13.82-1,1.88-.81h2.18l6.12-.1,5.29.3,15,1.09h3.46L433.2,676l1,1,1.76.41,4.46.14.8-2.07.78-3.78v-4.38l-2.27-3.23-2.24-1.41-1.53-.48,2.35,1.88-.72,1.79-1.8,1.45-5.42,1.08-6.92.24-12.06.16-3.84-.16L399,667.34h-3.25l-1.82-.37.08-1.08" transform="translate(-41.88 -145.45)"/><path class="cls-13" d="M399.46,651.61h1.07v4.45l-1.45,2.74-.23,2.27-.32,3.08V666l.55,1.45a12.12,12.12,0,0,0-2.25-.1A12.74,12.74,0,0,1,394,667l.34-1.8-.34-1.06.34-2.74.78-2.61,1.63-3.35,1.14-1.74Z" transform="translate(-41.88 -145.45)"/><path class="cls-13" d="M391.8,674.82l.94.34,1.54.74,1.94-.4.47.4.07,1.12.95,1.15-1,.75-.57.59-.58,1.81.22.83.93,1.1,1,.12,1.08.48-.34,1.58.34.53v.89l-.73-.37-1.37-.52h-2.05l-2.1.52-1.75,1.25h-.41Z" transform="translate(-41.88 -145.45)"/><path class="cls-13" d="M433.53,677.43l-.41,1.27-1.05,1.36-.52.56h-.77l.31.7-.53,1.82-1.34,1.4-1.18.89-.55.53-.18,1.3,2.3-.4,1.94.28,2,.8,1.59.81,1.56,1.92,1.15,1.57,1,1.84.48-.44,1.31-15.47Z" transform="translate(-41.88 -145.45)"/><path class="cls-13" d="M427.49,647.07l1.25-.48,1.82.25,1.85,1.47,1.56,2.6.56,3.1.45,3.93,1,8.7-.7,1-3.23.82h-1.66l.08-5.1.07-2.81-2.08-3-1.33-1Z" transform="translate(-41.88 -145.45)"/><path class="cls-12" d="M436,662.22l2.35,1.88-.42,1.41-1.14,1.31-.79-.18v-4" transform="translate(-41.88 -145.45)"/><path class="cls-13" d="M365.58,661.3l.68-2.54-.42-4.27-.26-1.29,1.79.45h2.43l1.83-.71,2.61-1.33,1.47-1.05v-2.25l-.77-5.09-.64-2.5-.11-.8h1.52l2.78.29,2.55.94,2,2.07,1,2.45-.51,3.08-.42,3.22-.69,3.31-.74,1.32L379.2,659l-2.89,1.21-6.85,2-3.2,0-1.88,0" transform="translate(-41.88 -145.45)"/><path class="cls-13" d="M349.69,678.87l2.89,1,2.58,1.88,1.71,1.87,1,2.81.6,3.31v4.55l-.15,9.29,7.74-1.19,9.69-2.23,5.82-2,2.1-1.21v-9.71l-2,.47h-4.49l-2.91-1.25L373,683.84l-.26-4.1,1.35-3.49,2.4-2.28,2.88-1,2.56-.09,2.08-1.14.12-3.33-.12-.86-2.16,1.71-2.48,1.48-2.29,1-4.34,0-6.52-.37-4.48-.7v2.21l-.65,1.08-1.29,1.53L356.51,677Z" transform="translate(-41.88 -145.45)"/><path class="cls-14" d="M345.24,635.28l7.34-.74,9.2-1.6,7.34-1.59,3.72-.68,2.87,19.89-2.93,1.87-2.13.84-3.29.38-1.78-.45-1-3.85-2.8-2-3.55-1-6.61-.66-4.68,0Z" transform="translate(-41.88 -145.45)"/><path class="cls-14" d="M400.53,643.25h12.88s4.11-.86,5.18-1.11l6-1.56,2.59-.67.16,4.1-.16,4.3v5.36l-.46,2.49.46.35-2-1.23-3.6-2-4.19-1.37h-3.06l-4.59.52-3.19,1-3.15,1.83-1.37.37-2,1.86Z" transform="translate(-41.88 -145.45)"/><path class="cls-15" d="M156.63,305.32l14.69,76.28L274.5,395l-13.82-76.72Z" transform="translate(-41.88 -145.45)"/><path class="cls-16" d="M157.7,304.85l3.64-1.62L264.7,315.81l-4,2.45Z" transform="translate(-41.88 -145.45)"/><path class="cls-17" d="M278.58,391.51l-13.88-75.7-4,2.45L274.5,395l50,4.54.37-4.54L277,391.39" transform="translate(-41.88 -145.45)"/><path class="cls-18" d="M277.65,388.51,325,393.13l-.15,1.85-8.9-.67-19.93-1.5-10.24-.76-7.23-.54Z" transform="translate(-41.88 -145.45)"/><path class="cls-19" d="M328.27,238l-.89.88.45,2.2.44,1.77,1.38.45,4.3.52,3.66-1,3.52-1.93.85-2-.85-1.3-3.77-.54-8.11.49Z" transform="translate(-41.88 -145.45)"/><path class="cls-19" d="M303.9,238.41l1,2.22,2.74,1.52,5.1,1.67h3.06l1.67-1.93.28-1.73-1-2.16-1.3-1-1.91-.42-8.57.85Z" transform="translate(-41.88 -145.45)"/><path class="cls-20" d="M329.29,240.63v1.65l1.25.57h1.82l.77-1.11V240.2l-1.92-1.79-1,.47Z" transform="translate(-41.88 -145.45)"/><path class="cls-20" d="M311.38,241.08l.72,1.22,1.44.38h1.4l.77-1.6v-.92l-.83-1.28-1.34-.47-1.33.47-.87.78Z" transform="translate(-41.88 -145.45)"/><path class="cls-21" d="M290.06,222.23,293.31,238a4.1,4.1,0,0,0,.27.86L299.44,252a5.5,5.5,0,0,0,.59,1l4,5.56a4.71,4.71,0,0,0,.62.72l8.87,8.77a6.1,6.1,0,0,0,1,.8l4.4,2.74a5.8,5.8,0,0,0,1,.49l7.69,2.88a5.58,5.58,0,0,0,1.25.31l10.62,1.44,4.39.56-13-4.58a5.71,5.71,0,0,1-1.24-.61c-11.42-7.46-25.21-20-32.54-31.48a6.65,6.65,0,0,1-.55-1.1Z" transform="translate(-41.88 -145.45)"/><path class="cls-22" d="M290.18,223.13l2.95,2.66a4,4,0,0,0,1.37.81l1,.37a5.93,5.93,0,0,0,.95.2l8.5-1.63c.39-.42-1,3.89,2.36,13.34,4.56,12.8,14.34,17.71,25.9,24.86l20.92,12.92H339.51l-9.13-4.26-8.22-5.82L312,257.86l-5.86-5.92-.16-.18-3.74-4.3-4.74-5.94a3.67,3.67,0,0,1-.61-1.07Z" transform="translate(-41.88 -145.45)"/><path class="cls-21" d="M343.93,276.66l1,25.42h2.7l-1.47-24.81v-1Z" transform="translate(-41.88 -145.45)"/><path class="cls-22" d="M347.49,302.08l-.5-9.62-.82-16.17h6.59l.81,15.54-5.93,1Z" transform="translate(-41.88 -145.45)"/><path class="cls-22" d="M290.06,222.23a18.55,18.55,0,0,0-2.21-.62h-2.39l9,22.11,1.06-.42-5-18.83Z" transform="translate(-41.88 -145.45)"/><path class="cls-21" d="M325.39,308.73l.81,1.21-8,5.87L314,320.3l-1.64,3.6-.39,3.44,1.61,33.5-2.63,4-4.41,9.06-2.09,6.77-.9,6-.32,4.33,2.74-.13,3-13.87,3.63-8.8a26.92,26.92,0,0,1,3.61-6.23L315,327.72a12.09,12.09,0,0,1,1.19-5.64l2.59-3.27L329.06,309l2.74-15.32h-2.49l-1.06,1.08-1,1.78L325.36,302v5.89Z" transform="translate(-41.88 -145.45)"/><path class="cls-22" d="M329.29,308.47l-.24.52-7,6.56-4.54,3.93-1.95,3.43L315,327.8l1.2,34.23L314,364.89l-3.57,8.8L309,376.43l-2.26,8.47L306,391l3.74.55,3.13-14.83,3.63-8.8a26.53,26.53,0,0,1,3.6-6.23l-1.19-34.22a12.2,12.2,0,0,1,1.19-5.63l2.56-3.32L333,308.72l2.74-15.31-3.92.25-.39.77-.27,1.83-1.86,5.48v6.65Z" transform="translate(-41.88 -145.45)"/><path class="cls-21" d="M325.39,308l-10.69,7.93a15.54,15.54,0,0,0-6.24,11l-4.62,47.58L301.22,372l-.57-3.16.57-18.66,1.48-15.42,2.58-12.45v-.09a24.35,24.35,0,0,1,5.48-7.48l4.62-3.42,9.71-4.31Z" transform="translate(-41.88 -145.45)"/><path class="cls-21" d="M303.88,324.78l-12.12,7.9-2.4,2.35-1.75,3.49L287,341.7v2.6l-.86,2.34-7,15.06L278,364.83l-1,2.38v3.62l.62,2.09,2.22,1.71,1.56.46-.3,2.73-1.26,10.87,2,.19,1.58-12.45a17,17,0,0,1,1.06-12.17Z" transform="translate(-41.88 -145.45)"/><path class="cls-22" d="M303.88,324.78,283.77,366l-1.29,2.6a26.25,26.25,0,0,0,0,7.3l-1.57,12.47h1.57l1.94-11.6-.17-1a21.18,21.18,0,0,1,.62-9.46l.07-.23,18.23-34.7Z" transform="translate(-41.88 -145.45)"/><path class="cls-21" d="M347.64,292.8l-.18,6.12,1.05,5.17.52,1.22,1.68,1.21,1.13.39-.57,3.9-1.62,7.09-1.45,11.71-.6,6.69-1.24,12.64-.68,16.69-.25,25.6h2.74l3.44-65.88a38.85,38.85,0,0,1,1.26-8L355.61,307A16.22,16.22,0,0,1,351,295.29l.1-3Z" transform="translate(-41.88 -145.45)"/><path class="cls-22" d="M350.93,291.8l-.18,6.12,1.05,5.17.54,1.22,1.65,1.21,1.14.39-.57,3.9-2.74,11.89-.36,6.91-.6,6.69-1.24,12.64-.68,16.69-.77,26.54,3.74.58,3-67.47a37.9,37.9,0,0,1,1.26-8L358.93,306a16.17,16.17,0,0,1-4.61-11.75l.07-2Z" transform="translate(-41.88 -145.45)"/><path class="cls-21" d="M322.82,245.56l-.25,2a7.28,7.28,0,0,0,.29,3.11,7.4,7.4,0,0,0,1.56,2.72l.46.52-3.45-.73-2-2.3v-2.13l1.36-2.49Z" transform="translate(-41.88 -145.45)"/><path class="cls-21" d="M330.92,399.58l-3.65-9.37a11.35,11.35,0,0,1-.73-4.93l.25-3.64-2.74,1.77-.8,2,1.81,6Z" transform="translate(-41.88 -145.45)"/><path class="cls-23" d="M290.06,211.87l1.37,2.53a21.74,21.74,0,0,0,9.34,9l4.24,2.12-2.66,1.75L295.5,227l-3.74-2.48L290,222.23l-.92-5.24Z" transform="translate(-41.88 -145.45)"/><path class="cls-23" d="M280.58,212.43l2.63,1.12a12.41,12.41,0,0,0,4.81,1h1.08l1.08,8.61L285.59,220l-2.15-2-2-3" transform="translate(-41.88 -145.45)"/><path class="cls-23" d="M303.39,211.87l6.73,3.47a25.64,25.64,0,0,0,17.27,2.24l8.32-1.85.06,4.65-.54,2.52-2.1,3.26-4.85,2.41-4,.49-5.48-.29-5.91-1.48-4.35-3.45-2.83-3.46-2.28-4.71Z" transform="translate(-41.88 -145.45)"/><path class="cls-23" d="M335.71,215.73l3.17,2.47a25.05,25.05,0,0,0,11.35,5l2.53.42L351,225.64l-2.81,1.65-2.86-.12-4.21-1.27L337.38,224l-2.15-1.12Z" transform="translate(-41.88 -145.45)"/><path class="cls-23" d="M324.39,191.5l5.89,7.07a15.41,15.41,0,0,0,3.66,3.22l8,5.12-2.45,2L335.71,210l-4.5-1.72-3.83-3.35-3-4.47-.85-3.13.32-4.55Z" transform="translate(-41.88 -145.45)"/><path class="cls-23" d="M285.46,199.24l1.12,1.8a14.07,14.07,0,0,0,8,6l2.57.75-3.67.4-1.92,1.07-1.37,2.6-2.74-1.37-1.72-2.63-.81-3.08v-4Z" transform="translate(-41.88 -145.45)"/><path class="cls-23" d="M297.58,185.79l6.51,3.45a42.73,42.73,0,0,0,9.83,3.76l3.59.91-5.71,1.64-3.05,1.6-4.25-3.37L299.62,191Z" transform="translate(-41.88 -145.45)"/><path class="cls-24" d="M389.93,306.09c-28.69,0-17.57,86.24,17.41,86.24l4.11-.3-6.4-4.88-6.4-5.25-3.33-2.8-2.85-5.25-3.65-9.29-2.37-4.46-2.62-11.61-2.19-14.35,1.59-13,3-6.46,6.63-6,3.58-1.51v-1.28Z" transform="translate(-41.88 -145.45)"/><path class="cls-25" d="M405,316.33l-1.78,4.11a18.73,18.73,0,0,0-1.37,4.46,66.3,66.3,0,0,0-1.46,14.8L402.06,368l-1.47.79-1.24-2.48-2-17.09L397.06,332l1.17-14.21,1.48-2.53.82-.54Z" transform="translate(-41.88 -145.45)"/><path class="cls-26" d="M311.57,438.66l21.09,12.85A27.86,27.86,0,0,1,346,474.21L348.09,529a10.85,10.85,0,0,0,.26,2l20.75,91.79,4.55-2.27,2.07-3.85v-5.24l-.81-6.53-1.6-11.83L357.45,529l-.4-80.32L349.53,447l-13.47-7.34-9.89-6.85-4.19.65h-5.19l-1.56-.77-.69-1.6-.44-1.18-2.53,1.86Z" transform="translate(-41.88 -145.45)"/><path class="cls-26" d="M369.1,622.86l.07.27a16.93,16.93,0,0,1,.26,5.81l-.3,2.41,8.63-2,1.65-4.51v-3.09L378,619.2l-2.31-2.45-1.46,2.73-2.63,2.13Z" transform="translate(-41.88 -145.45)"/><path class="cls-26" d="M426.74,626.1l-12.51-80.36a49.08,49.08,0,0,1-.58-6.85L412.16,437l3.15.12.26,102.77,2.66,17.26,5.82,37,2.14,16.43,1,12.46-.06,1.63Z" transform="translate(-41.88 -145.45)"/><path class="cls-26" d="M332.39,437.18l18.51,6.71a23.12,23.12,0,0,0,7.27,1.37l10.81.3-4.11,2.35-8.52.78-3.6-.45L345,444.63,339.76,442l-7.34-4.57" transform="translate(-41.88 -145.45)"/><path class="cls-27" d="M311.18,432.14l2.74-2.95.65,1.95.68,1.61,1.56.76,6,92a81.44,81.44,0,0,0,1.52,11.32l17.88,87.61a22.44,22.44,0,0,0,.39,10.65l-2.8-.57L337.17,632v-3.77l.76-3.45.67-1.18L324.77,560,320.92,546l-2.27-13.29-1.53-18.35-3.36-43.57-1.37-25.6-.7-9.27Z" transform="translate(-41.88 -145.45)"/><path class="cls-27" d="M364.39,448l2.74-1.07,2.74-2.19,11.25,100.85a1.72,1.72,0,0,0,.09.67l15.25,85.56-5-.51v2a13.77,13.77,0,0,0,.94,4.95l1.52,3.88-3.33-1.37-1.92-2.35-.77-3.14.11-2.73,1.18-2.66.49-1L382,591.87l-4.41-28.12-2.27-21.67-.52-11.44-1.24-16.77-3.41-29.72-2.35-13.54Z" transform="translate(-41.88 -145.45)"/><path class="cls-28" d="M315.18,206.91c2.43,0,4.4-1.44,4.4-3.22s-2-3.21-4.4-3.21-4.39,1.44-4.39,3.21S312.76,206.91,315.18,206.91Z" transform="translate(-41.88 -145.45)"/><path class="cls-28" d="M326.2,210.09c0,1-2.86,1.78-3.12,1.78a2.88,2.88,0,0,1-1.08-.81,2.91,2.91,0,0,1-.57-1.22c0-1,1.37-1.55,1.65-1.55S326.2,209.1,326.2,210.09Z" transform="translate(-41.88 -145.45)"/><path class="cls-28" d="M297,201.48c2,0,3.62-1.33,3.62-3s-1.62-3-3.62-3-3.62,1.33-3.62,3S295,201.48,297,201.48Z" transform="translate(-41.88 -145.45)"/><path class="cls-28" d="M284.2,195.56c.72,0,1.31-.86,1.31-1.91s-.59-1.92-1.31-1.92-1.32.86-1.32,1.92S283.47,195.56,284.2,195.56Z" transform="translate(-41.88 -145.45)"/><path class="cls-28" d="M286.79,183.79a2.58,2.58,0,1,0-2.58-2.57A2.57,2.57,0,0,0,286.79,183.79Z" transform="translate(-41.88 -145.45)"/><path class="cls-28" d="M293.54,184.21c.63,0,1.14-1,1.14-2.13s-.51-2.14-1.14-2.14-1.14,1-1.14,2.14S292.91,184.21,293.54,184.21Z" transform="translate(-41.88 -145.45)"/><path class="cls-28" d="M305.8,183.8a4.57,4.57,0,1,0-4.57-4.57A4.57,4.57,0,0,0,305.8,183.8Z" transform="translate(-41.88 -145.45)"/><path class="cls-28" d="M313.69,172.44c1.83,0,3.3-1,3.3-2.13s-1.47-2.14-3.3-2.14-3.3,1-3.3,2.14S311.87,172.44,313.69,172.44Z" transform="translate(-41.88 -145.45)"/><path class="cls-29" d="M334.25,176.62c3.8,0,6.88-1.9,6.88-4.23s-3.08-4.23-6.88-4.23-6.87,1.89-6.87,4.23S330.46,176.62,334.25,176.62Z" transform="translate(-41.88 -145.45)"/><path class="cls-28" d="M340.91,168.17a2.54,2.54,0,1,0-2.53-2.53A2.54,2.54,0,0,0,340.91,168.17Z" transform="translate(-41.88 -145.45)"/><path class="cls-28" d="M337.55,195.56c2.45,0,4.43-1.48,4.43-3.31s-2-3.31-4.43-3.31-4.42,1.48-4.42,3.31S335.11,195.56,337.55,195.56Z" transform="translate(-41.88 -145.45)"/><path class="cls-28" d="M297.76,214.52a2.22,2.22,0,1,0-2.22-2.22A2.22,2.22,0,0,0,297.76,214.52Z" transform="translate(-41.88 -145.45)"/><path class="cls-28" d="M283.54,208.22a.66.66,0,0,0,.66-.65.66.66,0,0,0-1.32,0A.66.66,0,0,0,283.54,208.22Z" transform="translate(-41.88 -145.45)"/><path class="cls-28" d="M343.17,216.82a2.26,2.26,0,1,0-2.26-2.26A2.26,2.26,0,0,0,343.17,216.82Z" transform="translate(-41.88 -145.45)"/><path class="cls-28" d="M345.21,211a.56.56,0,1,0-.56-.56A.56.56,0,0,0,345.21,211Z" transform="translate(-41.88 -145.45)"/><path class="cls-28" d="M365.31,205.56c3.69,0,6.68-1.89,6.68-4.21s-3-4.2-6.68-4.2-6.69,1.88-6.69,4.2S361.62,205.56,365.31,205.56Z" transform="translate(-41.88 -145.45)"/><path class="cls-28" d="M373.6,198.52c1.86,0,3.37-.66,3.37-1.48s-1.51-1.48-3.37-1.48-3.37.66-3.37,1.48S371.74,198.52,373.6,198.52Z" transform="translate(-41.88 -145.45)"/><path class="cls-28" d="M363.64,182.08c3.64,0,6.59-1.54,6.59-3.44s-3-3.43-6.59-3.43-6.59,1.53-6.59,3.43S360,182.08,363.64,182.08Z" transform="translate(-41.88 -145.45)"/><path class="cls-28" d="M362.12,173.37c1.76,0,3.19-.68,3.19-1.53s-1.43-1.53-3.19-1.53-3.19.68-3.19,1.53S360.35,173.37,362.12,173.37Z" transform="translate(-41.88 -145.45)"/><path class="cls-28" d="M367.79,163.1c3.81,0,6.9-1.15,6.9-2.58s-3.09-2.59-6.9-2.59-6.9,1.16-6.9,2.59S364,163.1,367.79,163.1Z" transform="translate(-41.88 -145.45)"/><path class="cls-28" d="M361.12,157.93c1.38,0,2.5-.34,2.5-.75s-1.12-.76-2.5-.76-2.51.34-2.51.76S359.73,157.93,361.12,157.93Z" transform="translate(-41.88 -145.45)"/><path class="cls-28" d="M347.39,154.17c1.92,0,3.47-.67,3.47-1.5s-1.55-1.49-3.47-1.49-3.46.67-3.46,1.49S345.48,154.17,347.39,154.17Z" transform="translate(-41.88 -145.45)"/><path class="cls-28" d="M350.08,149.62c1.48,0,2.68-.47,2.68-1.05s-1.2-1.06-2.68-1.06-2.69.47-2.69,1.06S348.59,149.62,350.08,149.62Z" transform="translate(-41.88 -145.45)"/><path class="cls-28" d="M329.29,155.29c0,.63-1.69,2.64-4.37,2.64s-5.3-2-5.3-2.64,2.17-1.14,4.84-1.14S329.29,154.66,329.29,155.29Z" transform="translate(-41.88 -145.45)"/><path class="cls-28" d="M324.64,151.69a1.56,1.56,0,1,0-1.56-1.56A1.56,1.56,0,0,0,324.64,151.69Z" transform="translate(-41.88 -145.45)"/><path class="cls-28" d="M300.81,161.56a2.56,2.56,0,1,0-2.56-2.56A2.57,2.57,0,0,0,300.81,161.56Z" transform="translate(-41.88 -145.45)"/><path class="cls-28" d="M306.32,163.12c1.36,0,2.45-.76,2.45-1.69s-1.09-1.68-2.45-1.68-2.45.75-2.45,1.68S305,163.12,306.32,163.12Z" transform="translate(-41.88 -145.45)"/><path class="cls-28" d="M390.78,186.77c2.61,0,4.72-1.24,4.72-2.78s-2.11-2.77-4.72-2.77-4.73,1.24-4.73,2.77S388.17,186.77,390.78,186.77Z" transform="translate(-41.88 -145.45)"/><path class="cls-28" d="M391,178.64c1.55,0,2.8-.45,2.8-1s-1.25-1-2.8-1-2.79.45-2.79,1S389.48,178.64,391,178.64Z" transform="translate(-41.88 -145.45)"/><path class="cls-28" d="M396.57,196.22a3,3,0,1,0-3-3A3,3,0,0,0,396.57,196.22Z" transform="translate(-41.88 -145.45)"/><path class="cls-28" d="M386.61,164.3c1.83,0,3.3-1,3.3-2.17s-1.47-2.16-3.3-2.16-3.3,1-3.3,2.16S384.79,164.3,386.61,164.3Z" transform="translate(-41.88 -145.45)"/><path class="cls-28" d="M403.64,173.37a2.6,2.6,0,1,0-2.6-2.6A2.59,2.59,0,0,0,403.64,173.37Z" transform="translate(-41.88 -145.45)"/><path class="cls-28" d="M409.94,200.48a.62.62,0,1,0-.62-.62A.62.62,0,0,0,409.94,200.48Z" transform="translate(-41.88 -145.45)"/><path class="cls-28" d="M400.52,210a2.22,2.22,0,1,0-2.22-2.21A2.22,2.22,0,0,0,400.52,210Z" transform="translate(-41.88 -145.45)"/><path class="cls-28" d="M403.19,218.68a.45.45,0,1,0-.45-.45A.45.45,0,0,0,403.19,218.68Z" transform="translate(-41.88 -145.45)"/><path class="cls-30" d="M322.36,182.08l-.17,1.09a22.72,22.72,0,0,1-3.21,8.42l-1.47,2.32,3.92.12,1.65.75,1.37-3.28,1.8-2.19,1.14-.88-1.14-.9-2.43-2.62" transform="translate(-41.88 -145.45)"/><path class="cls-30" d="M335.71,160.52l1.08.27a17,17,0,0,1,7.85,4.83c3.3,3.29,1.6,7.89-.43,12.24L340.9,185l3.08,1.19,1.37.27s4.27-4,4.44-3.72,2.81-5.09,2.81-5.09l.72-8.22L350,164.28l-6.54-2.9-5.06-.89Z" transform="translate(-41.88 -145.45)"/><path class="cls-30" d="M345.43,186.45l3.25,5.8v5.08l-1.23,4.35.8,2,2.66-6.36.5-1.52a16,16,0,0,0-1.48-13.09Z" transform="translate(-41.88 -145.45)"/><path class="cls-30" d="M302.23,155l.82.37a15.12,15.12,0,0,1,7.92,8.5l.83,2.26,4-.45-.7-3.4a16.57,16.57,0,0,1,1-9.81l1-2.3-4.89,4Z" transform="translate(-41.88 -145.45)"/><path class="cls-30" d="M337.51,150.51l.61,1.07a18,18,0,0,0,7.78,7.29l2.26,1.1-.6,2.67-7.62-2.12-3.81-.77,1.37-2.57-2-4.77Z" transform="translate(-41.88 -145.45)"/><path class="cls-30" d="M349.28,159l.17.13a31.62,31.62,0,0,1,7.6,9.45l-3.64.84-1.73-2.66-4.11-4.11Z" transform="translate(-41.88 -145.45)"/><path class="cls-30" d="M374.5,178l-.74,1.37a49,49,0,0,1-8.68,11.56l-1.15,1.13,9.44-.33,1-5.94Z" transform="translate(-41.88 -145.45)"/><path class="cls-30" d="M374.5,176.62l1.45-1.15a25.49,25.49,0,0,0,6.35-7.29l1.49-2.54,1.29,5.13-1.37,3.33-3.77,2.52L374.46,178Z" transform="translate(-41.88 -145.45)"/><path class="cls-30" d="M384.35,167.69l1.17.37a11.17,11.17,0,0,0,8.48-.78l.37-.19v6.28l-4.44-.82H385Z" transform="translate(-41.88 -145.45)"/><path class="cls-30" d="M394.52,162a47.25,47.25,0,0,0,9.59,15.58l3.15,3.38-5.62-2.34-3.38-3.35-3.94-1.92Z" transform="translate(-41.88 -145.45)"/><path class="cls-30" d="M282.9,183.79l.91.56a19.05,19.05,0,0,0,12,2.63l1.95-.22,1.89,4.23h-4.11l-2.31.51-1.61.75L290.53,191l-3.18-.74h-1.89l-2.5,1.48-.45-3.3Z" transform="translate(-41.88 -145.45)"/><path class="cls-30" d="M291.16,171.28H296a12.63,12.63,0,0,0,4.43-.8l4.62-1.69-5,3.54-1.9,2.74-2.55-1H292.4l-1.28.15Z" transform="translate(-41.88 -145.45)"/><path class="cls-30" d="M379.87,176.62l.77,4.38a32.79,32.79,0,0,0,3.22,9.51c2.31,4.45,4.92,9.46,8.46,11.88l4.25,2.74-2.2,1.59-6.72,1.77-4.33-.13-.58-7-3-6.57-6.43-3.05,1.14-13.69Z" transform="translate(-41.88 -145.45)"/><path class="cls-30" d="M362.17,223.58l8-5.47a43.5,43.5,0,0,0,13.23-14.42v6.4l-3.45,6.46-4.47,3.19-3.77,2.39-6.85,1.44Z" transform="translate(-41.88 -145.45)"/><path class="cls-30" d="M384.35,208.46s5.89,28.36,5.32,28.16-3.62-1.86-3.62-1.86L384.37,232l-4.5-15.46s1.91-3.83,2.19-4.11a32.37,32.37,0,0,0,1.26-4.1Z" transform="translate(-41.88 -145.45)"/><path class="cls-30" d="M404.31,179.18a26.23,26.23,0,0,1,2.41,7.27c.26,1.57.48,3.14.65,4.72l.42,6.19-1.53.68-2.74.42-.83-.73L404,192.5l.39-6.75-1.65-5.21-1.51-2.49Z" transform="translate(-41.88 -145.45)"/><path class="cls-30" d="M395.5,206.91a7.72,7.72,0,0,1-4.5,7l-.22.1-1.37-.95-1.13-4.62,5.3-1.55Z" transform="translate(-41.88 -145.45)"/><path class="cls-30" d="M400.53,216.22v1.56l-1,.92s-3.45-1.06-4.11-1.17-5.57-.54-5.57-.54l-.58-3.91,2.52,1.37,4.88,2Z" transform="translate(-41.88 -145.45)"/><path class="cls-30" d="M407.79,197.4a6.62,6.62,0,0,1,.95,2.55,6.93,6.93,0,0,1-.15,2.72l-1.14,4.24-.8-4-3.09-4.43,2.74-.43Z" transform="translate(-41.88 -145.45)"/><path class="cls-28" d="M407.79,188.94c.85,0,1.53-.94,1.53-2.08s-.68-2.08-1.53-2.08-1.53.93-1.53,2.08S406.94,188.94,407.79,188.94Z" transform="translate(-41.88 -145.45)"/><path class="cls-23" d="M348.77,203.69l1.73,4.48a28.79,28.79,0,0,0,9.34,12.47l3.8,2.9-9.45-2.63-2.74-3.13-2.1-3.75-1.12-5.57Z" transform="translate(-41.88 -145.45)"/><path class="cls-31" d="M390.79,220.38c13.27,1.75,19.8,19-.52,22.29l-.34-5.63,2.87-3.28Z" transform="translate(-41.88 -145.45)"/><path class="cls-31" d="M333.69,226.16l3.54.94a14.16,14.16,0,0,0,3.67.48h5.29l-7.16-2.3-2.53-1.74-1.27-.64Z" transform="translate(-41.88 -145.45)"/><path class="cls-31" d="M306,221.87l-.57,3.37-.38.3,1.37.59a13.28,13.28,0,0,0,3.32,1l7.89,1.37-6.18-2.37Z" transform="translate(-41.88 -145.45)"/><path class="cls-31" d="M354.19,220.91l-1.37,2.67-.76,1.59,1.51.41a17.69,17.69,0,0,0,3.62.62l2.19.15a19.57,19.57,0,0,0,6.85-.74,18.56,18.56,0,0,0,6.85-3.7l1.78-1.53-5.22,2.52-3.25.94-4.63-.47-3.41-.92-1.93-.93Z" transform="translate(-41.88 -145.45)"/><path class="cls-31" d="M392.31,246.25a5.57,5.57,0,0,1,.43,3.41l-1.37,6.49,5.87-11.06-2.34.44Z" transform="translate(-41.88 -145.45)"/><path class="cls-31" d="M344.36,277l4.76,4.91a4.78,4.78,0,0,0,6.52.31l8.83-7.53v-.88s-7.52,2-7.65,2l-10.1.51-2.11.26Z" transform="translate(-41.88 -145.45)"/><path class="cls-31" d="M366.61,273.51a22.2,22.2,0,0,1,2.67,8l1.18,9,3-.26-.59-5.28-1.2-7.44-1.22-4.32-1-.75Z" transform="translate(-41.88 -145.45)"/><path class="cls-31" d="M415.28,374.52a15.84,15.84,0,0,0-2.54,1.5l-.15,1.83s.82,2.74.79,3,1.9,5.57,1.9,5.57l1.37,3.35.88,1.24,10.85.42-5.4-3.12a10.22,10.22,0,0,1-5.08-7.76v-.1a4.3,4.3,0,0,1,.57-2.6,4.23,4.23,0,0,1,2-1.75l17.59-7.26Z" transform="translate(-41.88 -145.45)"/><path class="cls-31" d="M367.65,420.18a3,3,0,0,0,.73-.19,15.79,15.79,0,0,0,8.9-8.28l1.52-3.26,3.1,1v2.63l-1.85,3.26-2.3,2.19-2.92,1.78a8.37,8.37,0,0,1-1.57.68,5.45,5.45,0,0,0-2.54,0,14.31,14.31,0,0,1-3.07.16" transform="translate(-41.88 -145.45)"/><path class="cls-31" d="M388.83,417.17l29.73-5.85a21.36,21.36,0,0,0,9.18-4.28l7.85-7.57a8.88,8.88,0,0,0,2.26-3.66l2.89-9.17.24,8.77-1,4.81-2.74,2.16-2.33,3.49-3.8,2.47-4,2.31-2.3,1L420,413.54l-8.48,1.74-6.85,1.09s-7.56.78-7.45.44S388.83,417.17,388.83,417.17Z" transform="translate(-41.88 -145.45)"/><path class="cls-31" d="M251.85,394.46l2-.66,3.15-.67,2.44-.11,15.07,2a2,2,0,0,0,.15.45,6,6,0,0,1,.15,2.64,6.11,6.11,0,0,1-1,2.46l-.41.61s-2.74-2.37-3.47-2.37a20.16,20.16,0,0,1-3.81-1.44l-2.42-.7-3-.38-1.28.48-1.23,1.19-.44,1.59v.71l-1-.64L255,397.14l-1.71-1.71Z" transform="translate(-41.88 -145.45)"/><path class="cls-31" d="M235.69,395.47l1.78.23a11.93,11.93,0,0,1,7.19,3.78l1.29,1.37-.91-4.61-.12-1.28a21.71,21.71,0,0,0-1.72-1.6,9.49,9.49,0,0,0-2.89-.42l-3.16.42Z" transform="translate(-41.88 -145.45)"/><path class="cls-31" d="M228.41,398.52l.44-.24a6.09,6.09,0,0,1,6.59.38c.54.38.93.63.93.51,0-.39-.68-3.74-.68-3.74l1.46-2.05-2.06-.36-3.57-.1-1.63,1.14-1.48,1.3-.3,2.56Z" transform="translate(-41.88 -145.45)"/><path class="cls-31" d="M245.05,396.25a13.09,13.09,0,0,1,8.21,2.85l5.21,4.1-.68-3.72-2.13-1.59-3.15-4-2-.38-2.86.21L245.84,395Z" transform="translate(-41.88 -145.45)"/><path class="cls-31" d="M257.73,399.58l3.7-.74a8.49,8.49,0,0,1,3.85.11c3.08.78,8.75,2.26,8.14,2.26a23.92,23.92,0,0,1-5.29-2.74c-.54-.4-5.66-2.14-5.66-2.14l-3.07.48Z" transform="translate(-41.88 -145.45)"/><path class="cls-31" d="M280.76,406l6.25-.78c4.94-1.45,11.71-4.39,13.9-6.84,1.1-1.22-7.88-1.26-8.12-1.37-.61-.12-11.36-1-11.36-1v6.7Z" transform="translate(-41.88 -145.45)"/><path class="cls-31" d="M305.43,409.47c7.59,7,3.22,0,3.74-1.37,1.26-3.38,6.59-3,10-4.1l9.07-2.88s-4.25-.13-5,0-7.38,2-8.06,1.93a37.59,37.59,0,0,0-4.74.69l-4,1.53-1.44.7Z" transform="translate(-41.88 -145.45)"/><path class="cls-31" d="M314.54,417.14a5.49,5.49,0,0,0-2.85,2.54,5.4,5.4,0,0,0-.5,3.78s-1.62,1.28-2.42.35l-1.37-1.65-1-3.34.5-1.27,1.61-1.37a9.58,9.58,0,0,1,2.56-.77c1,0,7.51-1.49,8.22-1.64l10.87-2.48Z" transform="translate(-41.88 -145.45)"/><path class="cls-31" d="M322,433.51h-4.47l-2.28-.76-.69-1.61.69-2.73a7.31,7.31,0,0,1,1.71-1.37c.49-.14,5.23-1.65,5.63-1.77l15.58-4.84-14.95,7.46a3.65,3.65,0,0,0-1.28,1,3.59,3.59,0,0,0-.69,1.48,3.63,3.63,0,0,0,0,1.64A3.7,3.7,0,0,0,322,433.51Z" transform="translate(-41.88 -145.45)"/><path class="cls-31" d="M342.62,428.79c.2,0,8.94-1,9.48-1a11.26,11.26,0,0,0,1.73-.34c2.48-.9,9.59-3.9,9.59-3.9l-2.74,2.6-4.62,1.93-5.31,1.37a37.46,37.46,0,0,1-4,.44,16,16,0,0,0-2.81-.62" transform="translate(-41.88 -145.45)"/><path class="cls-32" d="M405,299.56a14.07,14.07,0,0,1,11.26,11.88l.31,2.28h9.83l-1.75-9.09a13.09,13.09,0,0,0-2.6-5.66,8,8,0,0,0-3.27-2.43H402.37l-2.74,2.62Z" transform="translate(-41.88 -145.45)"/><path class="cls-32" d="M423.41,320l5.76-1.74a24,24,0,0,1,18.12,19.84l-6.13,1.56S438.11,324.72,423.41,320Z" transform="translate(-41.88 -145.45)"/><path class="cls-32" d="M397.28,308.73s-25.19,6.29-2.94,65.14c0,0,1.08,4.58,2.35,0S394,330.75,394,330.75a31.88,31.88,0,0,1,3.35-17l3.23-3S401.69,308.73,397.28,308.73Z" transform="translate(-41.88 -145.45)"/><path class="cls-24" d="M300.91,397.92,303,421.63a25.3,25.3,0,0,0,.89,5,7.35,7.35,0,0,0,5.69,5.24l1.63.31-9.28,5-1.37-2.53-1.87-5.48-.85-7.92.24-6.71.91-7.89Z" transform="translate(-41.88 -145.45)"/><path class="cls-24" d="M362.88,424.13l46.83,8.08A12.76,12.76,0,0,0,418.8,430l-.54-9.79,1.63,13.33-.18,3-2,.35H407l-18.82-1.46-16.33-3.29L366.16,430l-5.56-3.78Z" transform="translate(-41.88 -145.45)"/><path class="cls-33" d="M325.57,679.5a22.82,22.82,0,0,0-8,8.8c-.36.62-2.74,15.33-2.74,15.33l-.47,7.6-4.52-1.16.4-9.45,1-10.51,2.27-5.48,4.24-4.91L322,677l1.49-1.52L325,678.2Z" transform="translate(-41.88 -145.45)"/><path class="cls-33" d="M326.87,669.26l-2.74,1.37-.81,1.64.15,2.19,1.8-.36a6.48,6.48,0,0,1,1.2-4.24Z" transform="translate(-41.88 -145.45)"/><path class="cls-33" d="M327.93,666.52l2-1.49,2.89-.47,3.61-.23-1.78.85a2.85,2.85,0,0,0-1.6,2.54l-3.44-.32h-1.65Z" transform="translate(-41.88 -145.45)"/><path class="cls-33" d="M398.79,686.84l4.6,2.43a14.59,14.59,0,0,0-7.7,12.75l-.15,18.78-5.16-.49-2.47-1.37.1-25.62,1.16-4.1,2.63-2.63,2.84-.66,3.42.54Z" transform="translate(-41.88 -145.45)"/><path class="cls-33" d="M403.39,678.84a2,2,0,0,0-.69.71,1.87,1.87,0,0,0,.8,2.56l.5.25-3.47.59-1.67.92-1.08-.48-1.95-1.24.37-2.64,1.58-1.37h1.08l-2-1.15v-1.65l2-1.56,4-.37,2.23.19-.79.68a3.73,3.73,0,0,0-.87,4.56Z" transform="translate(-41.88 -145.45)"/><path class="cls-34" d="M348.47,645.66l-.12.2a18.73,18.73,0,0,0-3.11,10.34v4c0,1.21-1.07-.13-2.29-.26a2.06,2.06,0,0,1-1.82-2v-4.11a2.25,2.25,0,0,1,.08-.58l1.26-4.25a2,2,0,0,1,.54-.89l.72-.71a2.5,2.5,0,0,1,.33-.26l1.67-1.11a2.11,2.11,0,0,1,1.11-.33Z" transform="translate(-41.88 -145.45)"/><path class="cls-34" d="M327.93,667.34l-.66,1.08.66,1.21,2.65-.36,1.58-1.56Z" transform="translate(-41.88 -145.45)"/><path class="cls-34" d="M323.49,674.5l2.26,4.37,3.54,1.75-.56-1.85a6.18,6.18,0,0,1-.21-2.46,6.27,6.27,0,0,1,.77-2.34l-5.71.48S323.47,674.47,323.49,674.5Z" transform="translate(-41.88 -145.45)"/><path class="cls-34" d="M409.74,652.49l-4.69,1.82-4.52,2.42-1.45,2-.23,2.27-.32,3.08.55,3.24,7.44,1.07h3.29A12.06,12.06,0,0,1,411.3,654l1.92-2.07Z" transform="translate(-41.88 -145.45)"/><path class="cls-34" d="M408.53,682.39a5,5,0,0,0,0,6.44l1.25,1.5-3.37-.18-3-.88-3.76-1.9-.84-3.52.67-.38,1.83-1.08,3.49.12Z" transform="translate(-41.88 -145.45)"/><path class="cls-35" d="M351,678.17l5.48-1.15,4.62-3,3.57,6.55a15.62,15.62,0,0,1,1.37,3.4l.3,1.15A47.74,47.74,0,0,1,368,697.65v4.46l-9.78,1.52.15-3.35v-8c0-.35-.15-6.65-.15-6.65l-1.37-1.92-3.18-3.08-2.74-.86-1.29-.86Z" transform="translate(-41.88 -145.45)"/><path class="cls-36" d="M366.05,660.22l-.47-7Z" transform="translate(-41.88 -145.45)"/><path class="cls-35" d="M374.94,660.7l-9.36,1.52v-8.28l4.69-.47,4.36-1.86a9.26,9.26,0,0,1,.57,8.5Z" transform="translate(-41.88 -145.45)"/><path class="cls-35" d="M399.16,652l.89-.36.38.66-.38,1.67-2.26,3.79a11.65,11.65,0,0,0-1.49,4.59l-.55,5-2.26-.86v-1l.44-3.29,1.71-4.87,2.18-3.7Z" transform="translate(-41.88 -145.45)"/><path class="cls-35" d="M394.28,675.49l-1.74,11-2.07.78,1.33-12.1Z" transform="translate(-41.88 -145.45)"/><path class="cls-33" d="M332.79,664.51l.61-1.64c-.91-1.44,2.35-3.25,3.77-4.11l1.6.5,7.06,1.26,8.59,1.17s-7.18,1-7.48,1a8.75,8.75,0,0,0-.89.19c-1.37.3-3.55.88-3.55.88Z" transform="translate(-41.88 -145.45)"/><path class="cls-33" d="M392.64,667.55l-.07.17a7.76,7.76,0,0,0-.49,3.93l.64,1.55a1.66,1.66,0,0,0,.75.82,1.69,1.69,0,0,0,1.1.17A1,1,0,0,0,395,674a.81.81,0,0,0,.27-.31.9.9,0,0,0,.13-.39,1.13,1.13,0,0,0-.05-.41l-.41-1.23a4.4,4.4,0,0,1,.65-3.2,3.42,3.42,0,0,0-1.33-.77,3.59,3.59,0,0,0-1.53-.14Z" transform="translate(-41.88 -145.45)"/><path class="cls-37" d="M375.52,386.64l-1.66,1.15a6.25,6.25,0,0,0-1.72,1.83,6.12,6.12,0,0,0-.84,2.37l-.07.49a9.31,9.31,0,0,0-.08,1.29V394a13,13,0,0,0,1.37,5.94,10.77,10.77,0,0,0,4,4.3l1.28.77,2.11,1a8.37,8.37,0,0,0,2.3.69l1.37.21a24.36,24.36,0,0,0,3,.33c.45,0,3,.08,3.34,0l1-.17a5.33,5.33,0,0,0,3.23-1.68v.92l-1.37,1.37L391,409.21s-3.14.58-3.59.58H383l-3.47-1-2.85-1.22s-2.33-1.93-2.53-2.19-2.17-2.49-2.29-2.73l-2.82-4.11L367.65,395v-1.5l.29-1.73a10.72,10.72,0,0,1,1.37-2c.26,0,1.37-1.87,2-2a8.4,8.4,0,0,0,2-1.08Z" transform="translate(-41.88 -145.45)"/><path class="cls-37" d="M382,409.79,381,414l-1.63,2.31L377,418.23l-1.18.55-.9.55s1,.64,1.49.85,2.88,1,2.88,1l1.49-1.64a23.09,23.09,0,0,0,5.11-9.3v-.16l-3.15-.58h-.8Z" transform="translate(-41.88 -145.45)"/><path class="cls-38" d="M390.26,401.08c-7.58,3.48-21-9.77-12-12Z" transform="translate(-41.88 -145.45)"/><path class="cls-39" d="M290.06,222.13s5.07,52.87,48.1,54.45S391.67,256,391.67,256s3.5-8.21,6.12-11.54" transform="translate(-41.88 -145.45)"/><path class="cls-39" d="M389.93,246c21.15,0,25.18-29,0-29" transform="translate(-41.88 -145.45)"/><path class="cls-39" d="M295.7,243.72c-7.34,0-22.95-26.73-5.64-21.59,0,0-12.77-3-9.26-18.34a15,15,0,0,1,2.1-12.06s-3.51-14.51,8.22-17.48c0,0-3.85-22,21-20.1,0,0,11.72-15.89,23.61-1.74,0,0,11-15.06,25.18.35,0,0,9.58-.88,13.82,1.36,0,0,13.11-3.13,18.89,7.88,0,0,22.38-1.06,15.74,22.19,0,0,2.81,3.12,1.23,10.56,0,0,5.25,5.17-3.23,13.38a15.18,15.18,0,0,1-2.91,5.24s2.74,1.93,1.22,10.84" transform="translate(-41.88 -145.45)"/><path class="cls-39" d="M323.86,254a4.41,4.41,0,1,0-4.41-4.41A4.42,4.42,0,0,0,323.86,254Z" transform="translate(-41.88 -145.45)"/><path class="cls-39" d="M343.93,277.27l1.57,24.47h2.1v-9.26l25.71-2.1s-1.16-15.49-3.6-17.92" transform="translate(-41.88 -145.45)"/><path class="cls-39" d="M347.6,301.74s.35,5.16,5.16,5.16,43.63-1,43.63-1-2.35-11.28-7.87-16.78l-15.21,1.22" transform="translate(-41.88 -145.45)"/><path class="cls-39" d="M325.42,382s3.9-3.67,16.93,9.35" transform="translate(-41.88 -145.45)"/><path class="cls-39" d="M392.19,403.45c7.35-6.3.34-13.43-7.82-16-3.11-1-7.55-1.68-9.87,1.22-3.59,4.53.5,10.18,4.51,12.5,3.12,1.8,9.68,4.38,13.18,2.27" transform="translate(-41.88 -145.45)"/><path class="cls-39" d="M375.27,419.51c7.26,5.08,16.1-1.73,15.85-10" transform="translate(-41.88 -145.45)"/><path class="cls-39" d="M378.27,386.48l-2.74.16a7.32,7.32,0,0,0-5.95,3,8.52,8.52,0,0,0-1.86,3.8c0,5.48,8,15.73,14.34,15.73" transform="translate(-41.88 -145.45)"/><path class="cls-39" d="M341.91,391s11.32-.68,16.29,3.61a1.51,1.51,0,0,0,1,.4h8.46" transform="translate(-41.88 -145.45)"/><path class="cls-39" d="M393.94,393.13l28-1.77s5.27-1.72,8.74,1.74" transform="translate(-41.88 -145.45)"/><path class="cls-39" d="M417.56,391.66s-5.25-10.84-5.25-14.86,26.69-8,26.69-8,2.16,17.09,2.16,25.3-11.55,15.06-11.55,15.06-10,7.82-41.38,7.82" transform="translate(-41.88 -145.45)"/><path class="cls-39" d="M401.64,315.29s38.89,4.11,38.89,42.94c0,0-25,2.59-39.73,10.39C396.91,370.72,394.49,308.14,401.64,315.29Z" transform="translate(-41.88 -145.45)"/><path class="cls-39" d="M439.54,358.41c2.75-2.74,7.68,15.27,3.54,11.13-3.37-3.37-28.55,5.16-37.65,8.39a.62.62,0,0,0-.33.26.62.62,0,0,0,.13.79.61.61,0,0,0,.41.13h7" transform="translate(-41.88 -145.45)"/><path class="cls-39" d="M444.67,370.34s.68.91-5.12.91" transform="translate(-41.88 -145.45)"/><path class="cls-39" d="M405,379.11s-8.67-1-4.11-10.49" transform="translate(-41.88 -145.45)"/><path class="cls-39" d="M352.76,306.9s-7.44,10.84-7.44,84.07" transform="translate(-41.88 -145.45)"/><path class="cls-39" d="M342,293.92l-11.37-.83s-5.25.35-5.25,15.64h11.19s4.19,1,4.19-4.54v-9.27s1.58-2.27,1.58,0v13.89s-11.89,16-11.89,23.69-1.75,36.34-1.75,36.34-1.48,10.75-2.28,11.54-2.61,3.32-2.61,3.32-2.9,5,6.64,14.51c0,0,2.09,2.73-2.62,2.73-4,0-16.63,2.95-20.2,3.8a3.28,3.28,0,0,0-2.5,3.8v.14a5.1,5.1,0,0,0,5.92,3.57l21.8-4s2.9,1.14-.5,2.28c-3,1-17.81,3.76-23.29,5.21a3.81,3.81,0,0,0-1.54.81,3.82,3.82,0,0,0-1.31,3.12,3.92,3.92,0,0,0,.51,1.67,4.25,4.25,0,0,0,1.93,1.7,4.3,4.3,0,0,0,2.55.3l27.07-5.12s2.74.79-.53,2.45c-2.13,1.07-14.73,3.91-19.57,5.48a5.73,5.73,0,0,0-2.17,1.26,5.79,5.79,0,0,0-1.43,2.06c-.71,1.85-.52,4,4.11,4,7.1,0,19.56-3.4,22.81-4.31a2.46,2.46,0,0,1,1.47,0c2.56.79,12.24,2.73,23.76-8.42a2.16,2.16,0,0,1,1.37-.61l5.17-.3s8.74-2.09,8.74-10.66c0,0,15.47,4.76,13.25-12.14" transform="translate(-41.88 -145.45)"/><path class="cls-39" d="M303.18,391,325,393.13l-.52,6.39-50-4.54-13.82-76.66,4-2.46,12.95,72.7L303.18,391c0-17.48,10.84-30.77,10.84-30.77s-1.92-26-1.92-34.6,16.18-16.86,16.18-16.86" transform="translate(-41.88 -145.45)"/><path class="cls-39" d="M156.63,305.32l4.71-2.09L264.7,315.81l-4,2.45Z" transform="translate(-41.88 -145.45)"/><path class="cls-39" d="M156.63,305.32l14.69,76.28L274.5,395" transform="translate(-41.88 -145.45)"/><path class="cls-39" d="M300.91,397.92s-7.36,26.94,1,39.26c0,0,14.84-4.95,14.84-14.8" transform="translate(-41.88 -145.45)"/><path class="cls-39" d="M416.31,414.29s6.26,22.9,2.49,22.89c-53.93-.3-58.18-11.47-58.18-11.47" transform="translate(-41.88 -145.45)"/><path class="cls-39" d="M411.49,392.05s-14.44-10.64-16.95-14.38c-2.16-3.24-5.19-11.43-6-13.69a6.33,6.33,0,0,0-.48-1c-1-1.7-4.65-9.08-5.92-29.53-1.23-19.76,10.37-25,14.4-26.15a6.3,6.3,0,0,1,2.33-.23c1.45.14,4.1.35,6.38.37a6.19,6.19,0,0,1,2.37.44,6,6,0,0,1,3.34,3.33,6,6,0,0,1,.45,2.36,6.1,6.1,0,0,1-1.48,3.68" transform="translate(-41.88 -145.45)"/><path class="cls-39" d="M304.64,324.46s-17.81,6.75-17.81,18.61c0,4.21-15.47,27.91-7.61,31.33s23.91,11.66,24.76,8a45.63,45.63,0,0,0,1-7.35c-5.29-2.11-4.4-6.26-4.4-6.26s.26-33.59,4.4-45.65,20.37-16.25,20.37-16.25" transform="translate(-41.88 -145.45)"/><path class="cls-39" d="M278.47,363.3l26.58,11.76" transform="translate(-41.88 -145.45)"/><path class="cls-39" d="M412.94,318.26l15.19-1.93c0-24.12-9.32-21.49-9.32-21.49H392.46" transform="translate(-41.88 -145.45)"/><path class="cls-39" d="M428.13,316.33s20.47.15,23.61,28.75,0,59.14,0,59.14-4.87,13.69-19.41,14.85l-14.55,1.08" transform="translate(-41.88 -145.45)"/><path class="cls-39" d="M281.42,375.36l-1.55,13.36" transform="translate(-41.88 -145.45)"/><path class="cls-39" d="M325.42,432.87s22.7,15.84,31.63,15.84,10.66-2.1,10.66-2.1,9.23-6.55,10.56-12.84" transform="translate(-41.88 -145.45)"/><path class="cls-39" d="M311.18,432.14l7,97.57s2.11,15.73,5,24.64,15.22,69.73,15.22,69.73,33,3.93,36.85-6.29-18-89.31-18-89.31l-.26-79.77" transform="translate(-41.88 -145.45)"/><path class="cls-39" d="M338.42,624.08s-3.67,7.34,1.57,10.49,37.77-5.24,37.77-5.24a9.23,9.23,0,0,0-2-12.58" transform="translate(-41.88 -145.45)"/><path class="cls-39" d="M364.39,448.71s10.22,56.63,10.88,88.61,15.07,93.84,15.07,93.84,35.73,5.68,36.77-6.34-11.51-84.24-11.51-84.24l-.85-103.43" transform="translate(-41.88 -145.45)"/><path class="cls-39" d="M389.8,628.89a8.58,8.58,0,0,0,.51,11.18c5,5.77,41.24,3.25,41.24-4.79s-4.47-10.46-4.47-10.46" transform="translate(-41.88 -145.45)"/><path class="cls-39" d="M270.87,414.55s17.27,6.5,27.07-3.72" transform="translate(-41.88 -145.45)"/><path class="cls-39" d="M266,408.34,260,404a5.1,5.1,0,0,1-2.22-4,3.47,3.47,0,0,1,.14-1.47,3.31,3.31,0,0,1,.75-1.26,3.37,3.37,0,0,1,1.22-.82,3.42,3.42,0,0,1,1.45-.22s2.08-.79,12.13,4.85" transform="translate(-41.88 -145.45)"/><path class="cls-39" d="M257,400.08a17.27,17.27,0,0,0-5.41-6,4.1,4.1,0,0,0-1.92-.67,4.19,4.19,0,0,0-2,.34c-2.1.93-4.55,3.09-.62,7.8l5.37,3.89,4.59,2.92" transform="translate(-41.88 -145.45)"/><path class="cls-39" d="M243.59,406l-3.91-4.1a23.35,23.35,0,0,0-2.22-1.87,3.61,3.61,0,0,1-1.06-1.27c-2.85-5.64,3.78-5.65,3.78-5.65s.69-.78,4.74,1.85" transform="translate(-41.88 -145.45)"/><path class="cls-39" d="M237.15,393.38s-8.91-2.46-8.91,4.54c0,5.72,8.79,6.52,12,6.61a4.08,4.08,0,0,1,2.22.73c3.45,2.38,15,9.81,22.71,9,0,0,18.36,3.89,16.21-18" transform="translate(-41.88 -145.45)"/><path class="cls-39" d="M345.24,635.28l2.36,10.3a7.41,7.41,0,0,0-4.79,2.65,7.5,7.5,0,0,0-1.68,5.22c.18,7.07,0,6.28,0,6.28s19.06,3.15,23.29,2.37,0-13.35,0-13.35-3.15-3.43-16.8-3.17" transform="translate(-41.88 -145.45)"/><path class="cls-39" d="M372.83,630.53l2.89,20s-5.26,4.5-10.14,2.64" transform="translate(-41.88 -145.45)"/><path class="cls-39" d="M375.72,642.1s6.34,4,0,8.46" transform="translate(-41.88 -145.45)"/><path class="cls-39" d="M374.19,639.91s7-.65,8.82,3.3-1,13.91-1,13.91a26.41,26.41,0,0,1-15.69,5.1" transform="translate(-41.88 -145.45)"/><path class="cls-39" d="M382.8,653.65s6.35,9.75,0,15.25-23.13,1.37-23.13,1.37-8.22-7.86-26.65-5.76c0,0,.84-7.87,8.11-4.72" transform="translate(-41.88 -145.45)"/><path class="cls-39" d="M329.5,669.45s-7.6-1-6,5c0,0,17.05-4.23,26.23,4.42,0,0,4.73-1.88,2.11-4.74S337.1,667.89,329.5,669.45Z" transform="translate(-41.88 -145.45)"/><path class="cls-39" d="M323.46,674.45s-.55,11.85,26.23,4.42c0,0,18.15-4.34,10-8.65,0,0,1.83,8.39-6,1.53s-24.4-2.85-25.76-4.41,5.09-2.89,5.09-2.89" transform="translate(-41.88 -145.45)"/><path class="cls-39" d="M326.87,669.05l1.06-1.71" transform="translate(-41.88 -145.45)"/><path class="cls-39" d="M323.25,676.25s-10.44,5.77-12.07,13.1c-.8,3.67-1.37,20.72-1.37,20.72s27.12,8.91,49.5,1.57c0,0,23.29-2.09,24.3-5.48s0-9.18,0-9.18-8.48,6.84-48.88,8.65c0,0-18.52-.52-23.56-3.13" transform="translate(-41.88 -145.45)"/><path class="cls-39" d="M383.63,697v-9.69s-11.1,3.64-10.85-5.94,9.19-8.43,9.19-8.43l2.08-1.14.16-4.41" transform="translate(-41.88 -145.45)"/><path class="cls-39" d="M384.09,671.75s3.59,11.84-.42,15.51" transform="translate(-41.88 -145.45)"/><path class="cls-39" d="M349.69,678.84a10.72,10.72,0,0,1,8.59,10.75c.33,9.44,0,14,0,14" transform="translate(-41.88 -145.45)"/><path class="cls-39" d="M399,667.34a13.55,13.55,0,0,1,1.45-10.62V643.25" transform="translate(-41.88 -145.45)"/><path class="cls-39" d="M399.46,651.61s-6.34,6.68-5.48,14.28" transform="translate(-41.88 -145.45)"/><path class="cls-39" d="M390.38,688.18s4.27-4.33,9.08-.92S412,690.53,412,690.53s13.12.92,14.7-2.28" transform="translate(-41.88 -145.45)"/><path class="cls-39" d="M427.18,686.6c1.13-4-1.14-3.67-1.14-3.67s-22.56-1-25.58,0-1,3.67-1,3.67" transform="translate(-41.88 -145.45)"/><path class="cls-39" d="M398.79,683.85s-6.51-2.19-1.08-5.68l29.78.7s7.79,1.53.56,6.56" transform="translate(-41.88 -145.45)"/><path class="cls-39" d="M397.87,677.73s-3.13-2.74.92-3.93,28.7,1,28.7,1l3.63.26s5.15.8.43,5.6" transform="translate(-41.88 -145.45)"/><path class="cls-39" d="M434.26,677l6.2.53s4.11-8.37-.7-13.45l-3-1.86s2.74,2.21,1.37,3.17-1.78,2.74-7.05,3-22.59.26-22.59.26l-11.81-1.3s-3.92.17-3.34-1.45c0,0-5.48.92-1.58,8.91l-1.37,13.38A11.59,11.59,0,0,0,388,696c.32,4.73,0,21.63,0,21.63s-.09,3.15,6,3.15,41.1,1.44,41.1,1.44,3.41-.12,4.86-4.45-.53-22.41-.53-22.41-3.68-10.76-12.85-8.13" transform="translate(-41.88 -145.45)"/><path class="cls-39" d="M440.63,678.17l-.87,15.91" transform="translate(-41.88 -145.45)"/><path class="cls-39" d="M400.53,656.72s14-11.23,28,.83c0,0,2.74,1.11,1.93,10.86" transform="translate(-41.88 -145.45)"/><path class="cls-39" d="M427.15,639.88l.34,16.87" transform="translate(-41.88 -145.45)"/><path class="cls-39" d="M428.13,646.71s5.58-2.08,6.65,9.27L436,667.25" transform="translate(-41.88 -145.45)"/><path class="cls-39" d="M388,711.8s2.74,2.11,11.45,1.94,33.3.8,33.3.8,7.18.51,7.88-1.37" transform="translate(-41.88 -145.45)"/><path class="cls-39" d="M391.8,674.8s1.07,1.06,5,.56" transform="translate(-41.88 -145.45)"/><path class="cls-39" d="M379.76,216.22l5,17s5.48,7.59,7.6,0l-4-25" transform="translate(-41.88 -145.45)"/><path class="cls-39" d="M312.86,236.67a4.1,4.1,0,0,1,4.43,2.24,4.27,4.27,0,0,1,.42,1.72c.39,4.58-6.5,2.82-6.5,2.82l-4.92-1.64c-.22-.07-2.2-1.44-2.37-2.74a1.42,1.42,0,0,1,1.37-1.84C308.75,236.81,312.86,236.67,312.86,236.67Z" transform="translate(-41.88 -145.45)"/><path class="cls-39" d="M331.08,237.3s-4.11-.18-3.68,2.86.88,3,4.85,3.56c4.8.74,8.88-3.2,8.88-3.2s2.4-2.58-.88-3.22A40.17,40.17,0,0,0,331.08,237.3Z" transform="translate(-41.88 -145.45)"/><path class="cls-39" d="M280.8,203.82a4.74,4.74,0,0,1,4-3.33s-1.37,8.47,4.55,11.4c0,0-2.74,15.06,9.28,15.69S304.32,217,304.32,217" transform="translate(-41.88 -145.45)"/><path class="cls-39" d="M284.81,200.46s7.52-19.16,24-3.13c0,0-8.91,9.07-3.85,21.31S326.56,229,326.56,229s8.21-1.23,8.75-6.84a85,85,0,0,0,0-12.15,14.46,14.46,0,0,1-9.1-6.72c-3.15-5.6-3.67-9.77-1-13s18.71-11.28,22.74,1.48-9.73,18.61-12.59,18.26" transform="translate(-41.88 -145.45)"/><path class="cls-39" d="M282.9,191.73a7.61,7.61,0,0,1,8.91,0" transform="translate(-41.88 -145.45)"/><path class="cls-39" d="M300,191.5a16.76,16.76,0,0,1-2.22-15.14c3-8.57,18.19-12.94,24.83-9.27,0,0-5.3,14.25,4.78,21.37" transform="translate(-41.88 -145.45)"/><path class="cls-39" d="M308.75,197.33s8.38-5.79,14.76-2.55" transform="translate(-41.88 -145.45)"/><path class="cls-39" d="M289.36,211.87s3.55-8.22,14-1.26" transform="translate(-41.88 -145.45)"/><path class="cls-39" d="M291.12,174.25s4.48-.73,7.13.94" transform="translate(-41.88 -145.45)"/><path class="cls-39" d="M312.1,154.15s-1.37,3,1.92,11.64" transform="translate(-41.88 -145.45)"/><path class="cls-39" d="M335.71,152.41s3.15,6.56,0,7.56-7.7-1.45-13.11,7.12" transform="translate(-41.88 -145.45)"/><path class="cls-39" d="M335.71,160s17,.66,17.65,11.66a15.54,15.54,0,0,1-8.54,15.06" transform="translate(-41.88 -145.45)"/><path class="cls-39" d="M335.71,222.83s15.5,11.53,18.48-2.45" transform="translate(-41.88 -145.45)"/><path class="cls-39" d="M348.75,202S344.45,219.09,360,223s22.91-12.2,22.91-12.2,4-18.87-13.7-19.05S348.75,202,348.75,202Z" transform="translate(-41.88 -145.45)"/><path class="cls-39" d="M353,169.59s28.34-9.65,20.3,22.19" transform="translate(-41.88 -145.45)"/><path class="cls-39" d="M374.75,178s11.85-1.83,10.09-8.47-3.13-10.84-10.13-15.39" transform="translate(-41.88 -145.45)"/><path class="cls-39" d="M360.88,152.76s-11.26.94-13.41,10.34" transform="translate(-41.88 -145.45)"/><path class="cls-39" d="M384.69,172.62s20.8-3.25,19.57,17.63-20.94,18.08-20.94,18.08" transform="translate(-41.88 -145.45)"/><path class="cls-39" d="M393.6,162s1.19,1.37.6,11.35" transform="translate(-41.88 -145.45)"/><path class="cls-39" d="M401.23,178s6.42,1,8.11,6.2" transform="translate(-41.88 -145.45)"/><path class="cls-39" d="M410.57,194.78c-4,5.31-7.83,3-7.83,3s5.57,4.26,4.6,10.38" transform="translate(-41.88 -145.45)"/><path class="cls-39" d="M389.06,212.84s8,7.2,15.37.56" transform="translate(-41.88 -145.45)"/><path class="cls-39" d="M313.54,242.85a2.22,2.22,0,1,0-2.22-2.22A2.22,2.22,0,0,0,313.54,242.85Z" transform="translate(-41.88 -145.45)"/><path class="cls-39" d="M331.19,243.3a2.24,2.24,0,1,0-1.94-2.22A2.1,2.1,0,0,0,331.19,243.3Z" transform="translate(-41.88 -145.45)"/><path class="cls-39" d="M331.86,292.8a72.92,72.92,0,0,1,13.05-.19" transform="translate(-41.88 -145.45)"/><path class="cls-39" d="M342.35,301.74s.52.74,4.59,0" transform="translate(-41.88 -145.45)"/><path class="cls-39" d="M251.55,394.06l7.84-1" transform="translate(-41.88 -145.45)"/></g></svg>