<svg id="Capa_1" data-name="Capa 1" xmlns="http://www.w3.org/2000/svg" viewBox="0 0 841.89 606"><defs><style>.cls-1{fill:#8642FF;}</style></defs><path class="cls-1" d="M590.05,100.79C533.79,110.4,495.52,34.67,483.42-4.4L841.89-1.77V537.7h-40c-124-28.55-103.1-142.38-77.17-195.73,15.15-37.44,42.53-127.65,30.91-189C741.07,76.37,660.37,88.76,590.05,100.79Z" transform="translate(0 4.4)"/><path class="cls-1" d="M258.5,497.3c57.7-9.56,97,65.54,109.41,104.29L.2,599.12,0,64l41.07,0C168.25,92.28,146.88,205.2,120.3,258.12c-15.52,37.15-43.57,126.64-31.63,187.45C103.59,521.58,186.37,509.25,258.5,497.3Z" transform="translate(0 4.4)"/></svg>