<svg id="Capa_1" data-name="Capa 1" xmlns="http://www.w3.org/2000/svg" xmlns:xlink="http://www.w3.org/1999/xlink" viewBox="0 0 1109.93 1072.35"><defs><style>.cls-1{fill:none;}.cls-2{clip-path:url(#clip-path);}.cls-3{fill:#44388e;}.cls-4{fill:#4a4797;}.cls-5{fill-opacity:0.2;fill:url(#Degradado_sin_nombre_3);}.cls-6{fill:url(#Degradado_sin_nombre_3-2);}.cls-7{fill:url(#Degradado_sin_nombre_3-3);}</style><clipPath id="clip-path" transform="translate(196.22 362.11)"><rect class="cls-1" x="-196.21" y="-362.11" width="1109.93" height="1072.34"/></clipPath><radialGradient id="Degradado_sin_nombre_3" cx="1.53" cy="596.28" r="0.34" gradientTransform="matrix(1082.78, -824.11, -575.98, -952.59, 341790.7, 569749.56)" gradientUnits="userSpaceOnUse"><stop offset="0" stop-color="#fff"/><stop offset="1" stop-color="#fff" stop-opacity="0"/></radialGradient><radialGradient id="Degradado_sin_nombre_3-2" cx="1.15" cy="595.85" r="0.34" gradientTransform="matrix(-840.07, 1226.83, 958.42, 826.08, -569762.01, -493536.35)" xlink:href="#Degradado_sin_nombre_3"/><radialGradient id="Degradado_sin_nombre_3-3" cx="1.92" cy="595.21" r="0.34" gradientTransform="matrix(-753.44, 1392.16, 771.32, 525.45, -456766, -315749.79)" xlink:href="#Degradado_sin_nombre_3"/></defs><g class="cls-2"><path class="cls-3" d="M913.72-9.92H-34V615.6H913.72Z" transform="translate(196.22 362.11)"/><path class="cls-4" d="M-66.76-41.15s388,179.61,388,444.73S572.36,588.26,572.36,691.34s90.62-244.42,0-348.28S357.05,207.18,357.05,96.29-26.56-68.48-26.56-68.48l-45,22.64Z" transform="translate(196.22 362.11)"/><path class="cls-5" d="M-66.76-41.15s388,179.61,388,444.73S572.36,588.26,572.36,691.34s90.62-244.42,0-348.28S357.05,207.18,357.05,96.29-26.56-68.48-26.56-68.48l-45,22.64Z" transform="translate(196.22 362.11)"/><path class="cls-4" d="M292.41,607S13.33,477.84,13.33,287.17s-180.58-132.83-180.58-207-65.18,175.79,0,250.5S-12.4,428.42-12.4,508.17,263.5,626.68,263.5,626.68l32.34-16.29Z" transform="translate(196.22 362.11)"/><path class="cls-6" d="M292.41,607S13.33,477.84,13.33,287.17s-180.58-132.83-180.58-207-65.18,175.79,0,250.5S-12.4,428.42-12.4,508.17,263.5,626.68,263.5,626.68l32.34-16.29Z" transform="translate(196.22 362.11)"/><path class="cls-4" d="M761.26,227.13S552.58,86.28,552.58-121.62s-135-144.83-135-225.67-48.74,191.67,0,273.12S533.34,32.39,533.34,119.35s206.3,129.22,206.3,129.22l24.18-17.76Z" transform="translate(196.22 362.11)"/><path class="cls-7" d="M761.26,227.13S552.58,86.28,552.58-121.62s-135-144.83-135-225.67-48.74,191.67,0,273.12S533.34,32.39,533.34,119.35s206.3,129.22,206.3,129.22l24.18-17.76Z" transform="translate(196.22 362.11)"/></g></svg>