<svg id="Capa_1" data-name="Capa 1" xmlns="http://www.w3.org/2000/svg" xmlns:xlink="http://www.w3.org/1999/xlink" viewBox="0 0 2049 420.32"><defs><style>.cls-1{fill:none;}.cls-2{clip-path:url(#clip-path);}.cls-3{fill:#4b03ba;}.cls-4{fill:#5802dc;}.cls-5{fill:#60f;}</style><clipPath id="clip-path" transform="translate(-75.19 -398.93)"><rect class="cls-1" x="28.19" y="299.93" width="2104" height="585"/></clipPath></defs><g class="cls-2"><path class="cls-3" d="M75.19,453.56l31.19,7c31,7,93.34,20.86,155.5,18.87s124.53-19.87,186.23-25.83c61.92-6,123.39,0,185.32,5,61.7,5,124.08,8.94,186.23,13.91s124.53,10.92,186.69,20.86,124.53,23.84,186.68,22.84,124.54-16.88,186.69-22.84,124.53-2,186.23-7.95c61.93-6,123.4-21.85,185.32-30.79,61.7-8.94,124.08-10.93,186.23-3S2062,477.4,2093,486.34l31.19,8.94V398.93H75.19Z" transform="translate(-75.19 -398.93)"/><path class="cls-4" d="M75.19,543l31.19,12.92c31,12.91,93.34,38.74,155.5,44.7s124.53-8,186.23-17.88c61.92-9.94,123.39-15.9,185.32-16.89,61.7-1,124.08,3,186.23,5s124.53,2,186.69,14.9,124.53,38.74,186.68,32.78,124.54-43.71,186.69-61.59S1504.25,541,1566,539c61.93-2,123.4-8,185.32,3,61.7,10.93,124.08,38.74,186.23,42.71S2062,568.79,2093,558.86l31.19-9.94V493.3L2093,484.36c-31-8.94-93.34-26.82-155.5-34.77s-124.53-6-186.23,3c-61.92,8.94-123.39,24.83-185.32,30.79-61.7,6-124.08,2-186.23,7.95S1255.19,513.16,1193,514.16s-124.53-12.92-186.68-22.85-124.54-15.89-186.69-20.86-124.53-8.94-186.23-13.91c-61.93-5-123.4-10.92-185.32-5-61.7,6-124.08,23.84-186.23,25.82s-124.54-11.92-155.5-18.87l-31.19-6.95Z" transform="translate(-75.19 -398.93)"/><path class="cls-5" d="M75.19,727.72l31.19,5c31,5,93.34,14.9,155.5,12.91s124.53-15.89,186.23-10.92c61.92,5,123.39,28.8,185.32,32.78,61.7,4,124.08-11.92,186.23-14.9s124.53,7,186.69,22.84,124.53,37.75,186.68,42.72,124.54-7,186.69-25.83,124.53-44.7,186.23-51.65c61.93-7,123.4,5,185.32,19.86,61.7,14.9,124.08,32.78,186.23,35.76s124.54-8.94,155.5-14.9l31.19-6V546.94L2093,556.87c-31,9.93-93.34,29.8-155.5,25.83S1813,550.91,1751.27,540c-61.92-10.92-123.39-5-185.32-3-61.7,2-124.08,0-186.23,17.88S1255.19,610.51,1193,616.47s-124.53-19.87-186.68-32.78-124.54-12.91-186.69-14.9-124.53-6-186.23-5c-61.93,1-123.4,7-185.32,16.89-61.7,9.93-124.08,23.84-186.23,17.88s-124.54-31.79-155.5-44.7L75.19,541Z" transform="translate(-75.19 -398.93)"/></g></svg>