<svg id="Capa_1" data-name="Capa 1" xmlns="http://www.w3.org/2000/svg" xmlns:xlink="http://www.w3.org/1999/xlink" viewBox="0 0 160.07 197.02"><defs><style>.cls-1{fill:none;}.cls-2{clip-path:url(#clip-path);}.cls-3{fill:#fff;}</style><clipPath id="clip-path" transform="translate(-341.03 -199.33)"><rect class="cls-1" x="341.03" y="199.36" width="160" height="197"/></clipPath></defs><g class="cls-2"><path class="cls-3" d="M478.78,290.2c0,9.09,1.08,18.21,0,27.25l.4-2.89a33.06,33.06,0,0,1-1.95,8l1.1-2.6a31.07,31.07,0,0,1-1.91,3.49c-1,1.62,1.78-2,.5-.64-.43.49-.85,1-1.33,1.45-.25.24-1.11,1.29-1.45,1.3.43,0,2.44-1.74.62-.53a21.61,21.61,0,0,1-3.49,1.86l2.62-1.08a22.84,22.84,0,0,1-5.33,1.44l2.9-.39c-11.08,1.34-22.51,1-33.65,1-11.51,0-23-.27-34.58-.43-4.56-.07-9.13-.15-13.69-.07-5.69.1-11.15,4.93-10.89,10.85A11,11,0,0,0,389.54,349c16.26-.26,32.55.48,48.81.51,9,0,18.11,0,27.14-.55,1.91-.11,3.82-.21,5.71-.42a35.74,35.74,0,0,0,11.3-3,30.81,30.81,0,0,0,13.28-12c4-6.41,5-14.3,5.25-21.71s-.38-14.48-.39-21.72c0-5.67-5-11.11-10.89-10.85a11,11,0,0,0-10.89,10.85Z" transform="translate(-341.03 -199.33)"/><path class="cls-3" d="M341.5,290.2c0,6.34-.51,12.66-.47,19s.44,13.21,2.91,19.12a32.74,32.74,0,0,0,12.62,15.59c5.2,3.36,11,4.49,17.11,4.91,18.24,1.3,36.64.76,54.91.46,8-.13,16-.36,24-.23,5.69.1,11.15-5.05,10.89-10.86a11.09,11.09,0,0,0-10.89-10.85c-21.35-.35-42.68.82-64.05.39-5.94-.12-12-.18-17.87-.89l2.9.39a22.84,22.84,0,0,1-5.33-1.44l2.61,1.08a21.94,21.94,0,0,1-3.48-1.86c-.87-.58-1.45-1.54.62.53-.46-.45-1-.84-1.45-1.3s-.9-1-1.34-1.45c-1.2-1.33,1.46,2.24.51.64a29.55,29.55,0,0,1-1.91-3.49l1.1,2.6a33.06,33.06,0,0,1-1.95-8l.4,2.89c-1.14-9-.09-18.16,0-27.25,0-5.68-5-11.12-10.9-10.86a11.09,11.09,0,0,0-10.89,10.86Z" transform="translate(-341.03 -199.33)"/><path class="cls-3" d="M462.88,327.89c-46.15-25-83.42,0-83.42,0Z" transform="translate(-341.03 -199.33)"/><path class="cls-3" d="M393.08,297.09h58.1l34.76-68.2s8.06-27.16-26.7-28.82-77.31,0-77.31,0-22.53.82-26.14,15S356.37,230.31,393.08,297.09Z" transform="translate(-341.03 -199.33)"/><path class="cls-3" d="M351.92,396.35h18.36s47-63.7,103.45,0h16.44S427,303.77,351.92,396.35Z" transform="translate(-341.03 -199.33)"/></g></svg>