<svg id="Capa_1" data-name="Capa 1" xmlns="http://www.w3.org/2000/svg" viewBox="0 0 915.78 1777.71"><defs><style>.cls-1{fill:#eaccd9;}.cls-2{fill:#e9b298;}.cls-3{fill:#ed9297;}.cls-4{fill:#766aaa;}.cls-5{fill:#d5d8ea;}.cls-6{fill:#955a52;}.cls-7{fill:#d4bad9;}.cls-8{fill:#84b889;}.cls-9{fill:#9c63e3;}.cls-10{fill:#241fcd;}.cls-11{fill:#949acd;}.cls-12{fill:#0090bc;}.cls-13{fill:#5dcae9;}.cls-14{fill:#665e6a;}.cls-15{fill:#918c93;}.cls-16{fill:#fbfafc;}.cls-17{fill:#070707;}.cls-18,.cls-19,.cls-20{fill:#b1e0e5;}.cls-18,.cls-30,.cls-34{opacity:0.75;}.cls-18,.cls-19,.cls-20,.cls-21,.cls-22,.cls-23,.cls-24,.cls-25,.cls-26,.cls-27,.cls-28,.cls-30,.cls-32,.cls-34,.cls-35{isolation:isolate;}.cls-19,.cls-21,.cls-25{opacity:0.4;}.cls-20,.cls-22{opacity:0.55;}.cls-21,.cls-22{fill:#c45767;}.cls-23{fill:#323d8b;}.cls-23,.cls-24,.cls-26{opacity:0.6;}.cls-24{fill:#4d9ede;}.cls-25,.cls-26,.cls-35{fill:#fff;}.cls-27{fill:#ecb0c4;}.cls-27,.cls-28,.cls-32{opacity:0.5;}.cls-28{fill:#c07359;}.cls-29{fill:#e9ebf4;}.cls-30{fill:#d2eefc;}.cls-31{fill:#56d4af;}.cls-32,.cls-33{fill:#8c58e0;}.cls-34{fill:#ce786f;}.cls-35{opacity:0.65;}.cls-36{fill:none;stroke:#6d6b67;stroke-miterlimit:10;stroke-width:0.75px;}</style></defs><path class="cls-1" d="M1074.34,200.7l-10,8.52L1059.1,217l-3.59,8.69-2,8.78v11.1l-.13,9.15-7.9,2.92-8.19,5.78-6.33,8.86-2.92,8.31-1.52,12.71.68,10.76.84,4.51-2.7,4.6-1.56,3.38-2.24,5.48-1,6.54-.34,8.57.55,4.85,1.22,2.49-.76,2.92-1,5.95-.51,4.34v6.71l1.23,8,2.66,7.81,6.12,9.41,6.67,6,7,5.06,5.62,1.27,1.56,3.42,5,4.18,7.72,6.07,5.2,2.07,10.22,1.4,9.33-.85,5.36-2.19,4.56-5.24,1.31-6.07-1-7.85,8.7,10.67,7,5.49,8,4.26,10.43,3.59,13.43,2.32h14l14.57-3.38,6.89-3.92,6.42-7,1.64-4.31,10.18,5.32,11.66,5.36,9.29,2.49,8.86.42,6.3-2.32,7.05-6.29,5.11-11.1,9.92,3.76,10.6,4.47,12.12,0,15.92-2.45,14.91-7.38,11.91-10.47,7.26-9.11-3.5,7.76,1.82,6.16,3.2,11.06,2.54,8.82,3.12,10.59,3.21,11.06,2,6.58,6.55,4.77,5.91,4.05,7-4.64,3.08-7-2.79-17.38-3.93-24.61-.71-8.1,7.43.3,8,1.05,8.87,2.24,8.11,3.5,10.17,7.51,4.69,5.74,2.2-4.47V384l-4.69-8.69,4.69-6.76,4.56-13.25,7-4.39,4.9-8.18,2.66-9.71-1.18-8.65-3.8-6.46,1.26-18-5.06-14.61,2.32-9.53,1.48-18.23-2.62-12.83-5.66-10.34-8-7.51-12.5-6.33L1379,217.5l-9.71-.55-5.87-8.78-5.49-5.49-9.68-6.2-7.64-2.87-13.68-2.11h-10l-5.91,1.22-13-4.34h-29.65l-4.26-4.35-13.65-10.51-16-6.45h-11.4l-12.93,4.43-9.2,5.78-8.41,7.93-10-6.24-9.79-6.33-11.62-3.25-10.77.76-9.67,3.5-10.13,6.5-10,7.17-2.49,5.4h-7l-11.79.09-8.1,1.31-10.22,3.16Z" transform="translate(-637.39 -166.62)"/><path class="cls-2" d="M1045.92,401.24l-10-.6-8.07,2.58-3.25,12,3.25,8.44,4.86,11a7.56,7.56,0,0,0,2.45,4.72,63.3,63.3,0,0,1,6.42,8.78l4.22,6,7.43,6.59,7.06,5.4,6.59,1.43,3.5,8.44a46.74,46.74,0,0,0,5.19,10.89c2.45,2.83,15.46,25.32,15.46,25.32l10.18,12.66,19.42,17.77,16.56,10.51,16.89,8.44,20.61,5.36,41.26,5.27v9.28c0,1.23,1.6,23.43,1.6,23.43l.64,14.05.88,29.54h8.45V620l10.81-1.77,68.71-6-1.61-14.94-2.83-17.81-2.4-12.11-2.45-7.68-2.2-2.32,15.16-6.17,13.3-7.25L1339.8,533l9.54-8.44,14.32-19.12,6.88-15.36L1382.11,473l10.64-8.74,11.45-11.94,5.24-11.06,2-10.29v-12l-6.33-12.32-4.69-5.74-10.18-7.52L1378,388.7l-12.67-2-7.39-.3,1,10.47,2.28,13.76,2.83,15.78.8,8.44-2.66,8.44-5.11,3.42-7.77-2.83-6.54-4.77-2-6.63-3.21-11-4.22-12.28L1331.9,402l-2.24-7.77-2.74-9.45-7.31,5-6.46,4.85-6.46,4.22-5.15,3.17-12.67,4.47h-20.69l-7.94-3.5-8.45-3.21-4-1.52-4.22,8.23-5.41,6.33-8.66,5.11-8.82-.38-9.34-2.49-7.55-3.5-14.28-7.18-8,11.27-10.43,5.48-11.11,2h-14.23l-13.43-2.36-10.39-3.55-15-9.75-8.75-10.67-.25,13.92-10,7.39-9.3.89-15.45-3.47-7.73-6.07-5-4.22-1.56-3.42" transform="translate(-637.39 -166.62)"/><path class="cls-3" d="M1390.65,687.61c.76-.3.76.34,10.34,2.87,5.79,1.52,9.5,2.23,11.87,2.78a117,117,0,0,1,21.83,7.64,133.49,133.49,0,0,1,40.2,25.32,123.44,123.44,0,0,1,23.91,30.64,112.07,112.07,0,0,1,12.67,38s.21,1.48,2.28,23.55v-1.48c2.91,5.49,5.06,10.26,6.59,13.93a96.46,96.46,0,0,1,3.67,9.91,74.07,74.07,0,0,1,2.36,11.1c.89,5.7.55,6.54,0,7.14s-1.69,1.13-10.3,2.69c-3.55.64-4.6.89-5.49,0a7.14,7.14,0,0,1-1.14-6.24c0-.68.25-.76.21-.89-.72-2.27-20.48,3-41,7.05-24.24,4.81-36.83,8.15-42.23,13.51-2.37,2.23,2.45,5.69.84,8.44-.42.71-1.9,2.57-14,2.48a39.45,39.45,0,0,1-13.47-1.13,21.15,21.15,0,0,1-12.25-14.73,22,22,0,0,1,3.09-16.16,8,8,0,0,1,1.09-1.48c-2.28,6.24-17.1-41.91-12-97.53,1.31-14.18,1.1-31.39,2.24-42.2C1384,696.05,1387.31,689.09,1390.65,687.61Z" transform="translate(-637.39 -166.62)"/><path class="cls-3" d="M1378,660.6l-2.75-10.34L1369,633l-6.8-12.95-8.44-11.18L1231,619.58l-3.25.51V648.7l4.23,10,5.15,3.71,1,.72a6.78,6.78,0,0,1,2.82,4.45,6.77,6.77,0,0,1-1.22,5.13L1232,708.5l-8.45,84.65-1.82,44.27L1220.46,920v2.75h15.33l13.93,5.19,10.43,6,14.23,1.22h11.87l3.21-4.6,2.32-6.45,7.39-8.23,7.56-6.5h6.8l8.45-.51h8.44l10.39,3,11.91,5,10.73,7.13,4.73,4.73,10.64.63,45.61-3.25-13.52-10.25-20.77-16.63-15.42-13-12.33-24.22-12.33-29.75-8.45-26.42-5.86-34.94-2.2-40.47,3.55-22.79,9.37-19.92,6.13-7.47,14.31-11,11-4.64Z" transform="translate(-637.39 -166.62)"/><path class="cls-3" d="M1267.63,1029.81l7-4.85,10.52-8.86,4.22-3.34,11.41-.59,11.9-1.47,3.43,2.06,8.86,3h8.45l8.7-3,6.84-4.64,3.5-5.06h23.23l20.15-1.82s9.84-1,11.4-1.18l16.89-2.4,15.08-3,2.57,10,3.51,15,3.54,18.28,1.78,11.73-.8,13.5-2.58,3.76-68.16-4.56-28.8-3-25.34-4.22-22.34-5.57-20.14-8-9.46-5.27Z" transform="translate(-637.39 -166.62)"/><path class="cls-3" d="M1132.49,1019.56l-1.86,10.34-4.77,11.77-10.64,8-18.92,11.56-9.54,4-5.87-11.31-5.45-23-1.06-26.17,1.35-16.88,2.2-16.63,3.5-18.27,2.11-8.69,12.67-.51,18.92,1.69,21.71,2,12.92,1.18,6.46.59,1.14-14,.47-5.69-67.36-6.67v-6.92l2.41-19.46,5.95-21.73,6.25-15.49,6.51-12.66,10.6-16.5-3.76-113.94,5.07-11.1,8.74-10.42,20.69-16.46,11.66-7.09-5.83-4.22s-1.31-16.88,0-18.14a119.84,119.84,0,0,0,5.74-16.88l3.17-5.49,7.18-5.15,10-2h33.19l.89,29.54-7.44-1.82-.54,22.62-6.47,8.44-9.16,14.56-14,24.77-7.56,17.26-4.6,115.76L1163.36,886l-.38,7.56h-4.22l-4.23,5.4-2.44,6.29,1.9,10.34,3.67,8.23,7.52,11.05,4.94,5.7,4.85,5.65.64,2.66-1.44,3.76L1103,965.29l-4.81,2.32-2.24,4.81,1.1,7,2.83,4.22,7.34,4.22,10-.21,61.28-11.73h3.17l3.08,2.11v2.36l-5.15,3.21-65.42,14-7.89,2.36-5,4.22a69.89,69.89,0,0,1-1.56,8.11c-.47,1,.59,3.33.59,3.33l2.66,2.79,4.22,5.06Z" transform="translate(-637.39 -166.62)"/><path class="cls-3" d="M1092.71,718.67,1071,730.36l-17.9,15.06L1044.91,757l-4.23,13.84v10.51l-6.75,11.77-10.43,21.94-9.08,22.37-1.53,4.64-2.95,13.46v9.33l4.22,5.23,70.36,29.16,8.44-2.82,6-21.74-11-4.6-3.55-5.86-1.77-9.75s.21-12.66.29-16.88,1.86-15.45,1.48-22,.59-24,.93-28.56,1.26-16.08,1.26-16.08,1.82-17.47,2.37-21.53,3.63-22,3.63-22Z" transform="translate(-637.39 -166.62)"/><path class="cls-4" d="M1125.86,1041.71l-5.78,4.31-4.86,3.63.51,7.13,21.07,292.36,9.25,53.6,5.7,21.94,47.42,216.66-2.24,6-1.6,7,.68,8.87,3.16,6.33,6.55,5,9,1.39,18.79-1.06,74.08-13.59,12.92-3.71,5.07-13.84-2.71-14.22-4.35-6.46-4.35-4.26-1.22-26.63-1.22-9.62-1.69-11.35-7.14-38.41-18.92-83.34-26.1-101.07-1.27-247.55,13.39-.63,7.73-1.14,3-.68-1.43,2.45,22.21,144.71,6.63,57.39,3.72,46.42,1.94,45.2,2.79,31.1,8.7,63.81,32.35,166.81-3,5-2.07,6.08-.6,4.69,1.91,10.12,5.4,8.53,6.17,4.09,25.12,5.62h23l32.6-3.46,26.65-6.84,12.24-9.71,2.92-8.35-2.92-8.36-3.92-10.51-5.28-7-3.25-3.17-.64-21.86-2.78-27.09-7.18-54.18-23.65-148.08-1.31-7.77-.09-10.93-2.53-306.84-97.09-8.69-28.5-5.62-26.52-10.25-11.32-7.68-3.25-4.18-13.05,7.09-11.74,3.63-15.8,2.83-9.5-1.73-8.7-1.06-22.63,5.62-19,4-8.1,1.68-21.41,1.95h-6.84l-5-4.22" transform="translate(-637.39 -166.62)"/><path class="cls-2" d="M1211.29,922.71l-16.17-13.42-14.44-10.13-12.8-5.11h-6.29l-4.61,2.54-4.43,8.86,1.6,8.65,4,9.92,7.51,11.05,4.9,5.7,4.9,5.7-.8,6.37-3.17.59-9.84,1.77-60.81,11.69-4.44,5.91,1.1,7,2.83,4.22,7.35,4.22,5.36,1.44,14.57-3.25,51.35-10.09,6.25,2.07v2.41l-3.25,2-11.15,3.12-64.1,14.35-4.94,4.39-1.23,6.92.26,4.52,4.56,5,2.45,2.87,11.31-1.65,79.78-15.36,3,1.77-.81,3.34-5.32,3.08-64.65,19.45-3.38,4.43-2.15,7.56,5.27,7.26,31.68-2.66,35.85-8,10.47-2.62,3.68-.17,2.15.55,7.39.51,5,1.9,11.62-2.07,14.74-4,16.47-9,19.59-15.45,11.4-.63,10.73-2,6.42-3.34,7.3-6,8.07-13v-8.1l-3.5-1.6-10.48-2.66-6.63-6.08-5.19-4.81L1298.2,953l-7.43-15-1.31-2.91h-28l-11.7-7.17L1237.43,924l-17-1.31Z" transform="translate(-637.39 -166.62)"/><path class="cls-2" d="M1370.33,929.37l4.23,7.09.63,7.47v19.71l-4.82,6.75-4.22,4.77-4.43,4.6v3.8s-1.4,7.17-1.82,8.44-3.38,7.39-3.38,7.39l-3.76,3.71,43.38-1.82,30.87-4.22s27-6.49,28.33-6.92,21.88-9.24,21.88-9.24l17.56-12.66,11.83-12.41,9.33-14.3V928.87l-5.87-73.94-18.88,2.7-25.33,5.78-33.79,10.35-5.11,1.73.85,8.43,2.87,10.39,4,10.72,9.5,20Z" transform="translate(-637.39 -166.62)"/><path class="cls-2" d="M886.16,932.37l-5.53-3.21h-7.18l-8.83,3.21-5.1,6.75.8,10,4.22,6.16,8.45,5,9.63,1.9,7.55,2,6.63.42h5.83l4.22,4.48L923,979s18.79,9.2,20.44,9.84,12.67,4.22,12.67,4.22l17.4,1.77,9.71.8h10.81l8.07,3.21,19,2.87h12.67l14-2.28,10.55-3.8,11.4-7.26,4.61-4.22,3.55-12.66,3.5-18.27,2.11-8.7-81.33-9.45-46.46-6-21.41,2.78L925.82,929l-6.46,2.23-5.49,3.8H911.2l-4.73-2.83-9.5-3.41Z" transform="translate(-637.39 -166.62)"/><path class="cls-2" d="M1023.45,873.88l-4.77,41.91,71.84,6.92,2.61-26.38-1.39,1.94-7.22.89Z" transform="translate(-637.39 -166.62)"/><path class="cls-4" d="M1132.49,1019.56l-1.86,10.34.47,4.72,67.23-20.93,3.55-4.94-5.16-2Z" transform="translate(-637.39 -166.62)"/><path class="cls-4" d="M1130.63,1029.9l-3,8.35,3.42-3.63" transform="translate(-637.39 -166.62)"/><path class="cls-5" d="M1227.59,648.7l-15.75-1.86-.55,22.62-19,29.12-18.24,36.08.55,15.11-.89,21.06-5.87,92.84-3.55,18.61" transform="translate(-637.39 -166.62)"/><path class="cls-5" d="M1168.6,861.6l-2.32,15.74L1164,889.66l-2.54,5.28h7.1l6.92,2.62,10,5.1,10.77,5.74,6.29,7.34,5.28,2.37,3.76,3.75,9.16,1.61L1224,796.61l3.8-49.2,4.44-40.52,5.28-23.16,6.21-16.67-6.68-4.69-6.75-7.51-2.71-6.16-15.41,1.65-.55,22.57" transform="translate(-637.39 -166.62)"/><path class="cls-5" d="M1158.33,663.77l.68,5.44,5.79,1.69L1153.18,678,1140,687.65l-15,13.63-5.92,10.21-.29,8.61v25.75l5.15,80.94-5.15,8.73-7,10.85L1100.73,870l-1.69,4.6-11-4.6-5.37-15.62,3-70.68,10.6-70.05,7.14-13.89,10.72-12.15,14.24-10.55,18.41-9.24Z" transform="translate(-637.39 -166.62)"/><path class="cls-3" d="M1243.73,663.56h6l-2.83,24.09-9.37-3.92,6.21-16.67" transform="translate(-637.39 -166.62)"/><path class="cls-5" d="M1378.06,664.57l-.17-4-6-21.82-6.21-12.66h83.83l5,1,8.15,6,6,10.29,3,9.2,2,9.75,1.27,10.59.42,6.21v8.48l.38,5,7.47.93,12,3.5,15.2,8.19,8.11,6.62,8.7,9.67,6.16,9.37,8.75,19.79,5.95,27,1.39,13.17,2.54,37.76.8,25.16L1551,929.37l-2.54,34.27-8.53,15.7-12.88,14.31-16.17,10.25-12.59,4.14-53,4.76-6-18.18,26.31-8.06,19.3-10.26L1500,962.55l10.94-13.17,4.43-13,.55-10.38-5-64.1h9.29l5.32-1.39,1-8.53-1.77-8.82L1520.5,831l-6.54-9.45-1.31-15.74-3-22.32-7-19.16-6.46-13.17-14-18.86-13.47-10.51-24.92-16.67-14.65-6.5L1413,693.35l-18-4.52-4.23-1.14-2.7,1.44-4.56,7.85L1380,736.27V780.2l2.24,41.31,4.81,25,3.8,7.63-3.16,6v12.66l3.71,7,5.79,3.68,7.35,2.65,7.35,1.19,14.56-1.19h1.74l14.65,36.51-2.62,2.36-16,1-28.17-21.82-21.58-18L1361.38,860l-8.66-22.32-7.64-18.28-6-27.64-5.4-31V728l2.4-17.9,10.52-22.49,9.46-11.18,16.68-10.76Z" transform="translate(-637.39 -166.62)"/><path d="M1322,908.86h8.41l16.85,5.74,16.17,9.42,11,12.44.68,7.47-4.82,11.52-5.4,5.74-12.21,2.45-12.41-2.49-16-6.92-11.53-10-6-11.9.09-9.71,6-9.24Z" transform="translate(-637.39 -166.62)"/><path class="cls-6" d="M1313.53,909.37l-10.85,2.79-3.51,3.63-7.39,8.14L1289.46,935l6.34,14,11.82,15.53,11.78,10.84,10.52,2.7,3.46,1.61v8.1l-5.7,10s-4.52,4.65-7.1,6.76a76.21,76.21,0,0,1-9,5.48l4.6,2.62,8.87,3h8.45l8.7-2.95,10.34-9.71,6.42-5.14,1.86-11.06.63-7.09,4.44-4.6,7.09-8.73,1.35-7L1375,949v-5.15l-4.82,11.52-5.4,5.74-12.21,2.45-12.41-2.49-13.64-4.56-9.17-7.3-4.56-4.94-6-11.94v-9.66l6.72-13.21Z" transform="translate(-637.39 -166.62)"/><path class="cls-7" d="M1166.82,1774.69h45.32l9.29,2.66,12.5,2.62,8.91,5.69,7.68,6.12,5.12,3.34,4.77,1.47h3.21l1.6-8.31-.55-4.68L1260,1780l-13.73-7.18-12.33-4.09-17.91-2.91-13.34-1.1H1186.5l-10.89,2.91-6.55,2.62Z" transform="translate(-637.39 -166.62)"/><path class="cls-7" d="M1158.59,1782.67l13.09-1.48,13.73-1.22,16.25,1.35,13,2.7,13.22,4.22,10,5.19,4.94,4.22v6.84l-4.94,3.54-4,2.15s0,.3-2.45-2.15a120.87,120.87,0,0,0-15.46-9l-8.44-2.49-15.59-2.78-12.67-.34-15.83,1.64-5,.38-5.54,1.1-.63-4.81.63-6.58Z" transform="translate(-637.39 -166.62)"/><path class="cls-7" d="M1152.42,1802.16l-12.16,8-10.47,9-7.56,8.78-4.82,8.06-3.08,12.32v17.56l-3.29,40.42,24.28,6.29,47.21,7.51h22.3c2.15,0,25.89-1.68,25.89-1.68l22.55-4.22,10.35-3,19.29-2.15,25.34-3.84s6.93-1.31,10-2.07,11.74-3.33,11.74-3.33l6.63-3.42,3-4.22-1.31-9.16,1-8.44-1-8.44-6.46,3.8-20.31,6.92-15.84,4.22-28,4.22-7.51,1.18.46-10.34v-29.54l-4.22-19.16-5.87-8.14-4.52-3.71-6.08-3.38-6.25-1.94-8.45,2.24-10.77,3.16-12,2.15-13.47,1.48-9.17-1.48-8.86-2.23-10.94-5.49-4.86-3.5Z" transform="translate(-637.39 -166.62)"/><path class="cls-7" d="M1379,1799.42l6.25-4.81,30-.84,36.44,1.35,13.47,1.73,18,1.94,9.17,1-.68,8.23-3.84,5.83-3,3.88-5.4-5.57-8.2-2-13.6-.29-75.72-1.82-2.74-5.91Z" transform="translate(-637.39 -166.62)"/><path class="cls-7" d="M1381.94,1808.07l-4.89,4.14-1.78,5.57,3.63,4.43,6.38,3.38,5.15-2.83,13.31-1.27,18.87-.12,29.1.71,14.06-.76,6.93,3,2.74,6.16-2.66,3.63,10.43-10.68,1.65-5.61-5.4-5.57-8.2-2Z" transform="translate(-637.39 -166.62)"/><path class="cls-7" d="M1376,1832.09l-12.21,2-4.39,4.85-5.32,9.5-2.2,10.42-.08,71,4.22,6.46,7.9,2.74L1500,1944l7.77-5.78,4.35-8,1.65-18.48-3.26-50.6-4.85-12.74-11.45-9.12-11-4.22-10,1-3.68,5.66-7,2.7-25.72,2.15-28.21-1.6-9.16-2.7-9-4.22-5.15-3.25Z" transform="translate(-637.39 -166.62)"/><path class="cls-8" d="M1386,1774.69l-1.69-10,1.69-16.5,4.47-8.44,9-2.45a108.1,108.1,0,0,1,9.71-5.65c2.07-.72,20.36-4.52,20.36-4.52h13l15.33,5.19,13.38,7.68,5.5,4.22,6.41,12.11v9.16l-.21,8.91-.25,3.29-38.56.63-22.63,1.35-12.67-2Z" transform="translate(-637.39 -166.62)"/><path class="cls-8" d="M1385.28,1832.09l2.58,4.34,14.14,6.63,19.56,3H1443l12.54-.5,14-3.8,3.68-5.66-.51-5.65v-6.16l-6.93-3-14.06.76-26.35-.63-27-.13-7.94,1.44-5.15,2.83Z" transform="translate(-637.39 -166.62)"/><path class="cls-8" d="M1153.06,1796.59l2.23,7.94,8.45,8.06,16.47,5.19a164.3,164.3,0,0,1,17.61-.46,160.45,160.45,0,0,0,20.65-1.69l15.63-5.41,8.91-3,17.57-5,8.78-7,1.22-6.84-5.74-4.73.55,8.23-1.61,4.81h-3.2l-7.52-3.12-6.76-5.19-9.5-4.73-11.19-5.4-10.77-3.46-16.89.68-15.12.33-10.6-1h-5.41l-3.25,6,3.25,1.1,15.71-1.52h5.58c1.64,0,9.54.3,9.54.3l14.11,2.78,9.79,3.38,12.38,4.22,6.5,4.22,2.41,9.11-4.94,3.55-11.7-3.55-10.18-5.44-8.44-2.49-12.21-2.19-9.84-.93-18.66,1.3Z" transform="translate(-637.39 -166.62)"/><path class="cls-8" d="M1207.49,1751.23l9,1.43,15.58,2.28,19.64,2.45,13.55,1.52,11.83-.13,5.87-2.7,2.06-7.85-1.26-13.16-3.89-15.83-4.47-4.43-11.74-4.89-20.78-2h-12.67l-4.73.12-9.42,4.48-3.88,3.8-2.62,4.43-2,11.14Z" transform="translate(-637.39 -166.62)"/><path class="cls-9" d="M1195.33,1748.19l-6.76,4.47-4.22,6.29-2.62,7,11.15-.72,14.57-.55,17.91,1.1,13.17,4.22,7.64,2.53,10.6,5.23,7.82,5.57,6.54,1.4,13.77,2.19,13.56,1.06,15.62-.6,11.36-2.4,12.08-7.22,5.11-7.76,2-11.27-.29-10.76-4.23-7.26-4.22-8.44-3.38,9-3.25,5.4-10.89,4.9-11.2,3.71-12.41,3.42h-29.56s-16.89-3.12-19-2.15-29.82-4.22-29.82-4.22l-14.86-2.49Z" transform="translate(-637.39 -166.62)"/><path class="cls-9" d="M1339.84,1788.28l-6.42,3.5-7.89.3-6.13,1.69-7.64,5.19-4.35,6.83-2.32,12,.8,7.76,2,4.9,6.42,5.65,4.18,1.44h10.35l9.71-1.44,3.72-5.65,2.41-9.37v-8.86l-3.21-18.44Z" transform="translate(-637.39 -166.62)"/><path class="cls-9" d="M1368.6,1770.22l-4.86,2.32-2.11,2.15-2.28,6,.81,7.56,1.81,5.57,1.77,4,4.86,1.78,2.79.29,7.64-.38,2.54-3.16,5.78-2.49h6.72l18.87-.3,16.3.93,46.37,3.33h10.64l5.12,3.63,3.2,3.17,5.41,1.26,13.77.43,2.45-6.38,2.4-11.64v-13.51l-7-10-6.88-4.34-4.73-1.48,7.26,5.78-2.24,5.53-5.53,4.47-16.72,3.34-21.33.71-37.16.51-11.87-.51-26.43-4h-10l-5.62-1.14.26-3.33" transform="translate(-637.39 -166.62)"/><path class="cls-10" d="M1387.35,1726.2h3.3v13.72l-4.48,8.44-.72,7-1,9.5v5.53l1.69,4.47a37.33,37.33,0,0,0-6.93-.29,39.78,39.78,0,0,1-8.7-.89l1.06-5.57-1.06-3.25,1.06-8.44,2.41-8.06,5-10.34,3.51-5.36Z" transform="translate(-637.39 -166.62)"/><path class="cls-10" d="M1363.74,1797.73l2.88,1.06,4.77,2.28,5.95-1.23,1.48,1.23.21,3.46,2.92,3.54-3.13,2.32-1.77,1.82-1.78,5.57.68,2.57,2.87,3.38,3.13.38,3.33,1.48-1,4.85,1,1.65v2.74l-2.24-1.14-4.22-1.6h-6.33l-6.46,1.6-5.41,3.84h-1.27Z" transform="translate(-637.39 -166.62)"/><path class="cls-10" d="M1492.38,1805.79l-1.27,3.93-3.25,4.18-1.61,1.73h-2.36l1,2.15-1.65,5.61-4.13,4.31-3.64,2.74-1.69,1.65-.54,4,7.09-1.22,6,.84,6.13,2.49,4.9,2.49,4.81,5.91,3.55,4.86,3.12,5.65,1.48-1.35,4.06-47.69Z" transform="translate(-637.39 -166.62)"/><path class="cls-10" d="M1473.75,1712.19l3.85-1.47,5.61.76,5.71,4.55,4.81,8,1.73,9.54,1.39,12.11,3.13,26.84-2.16,3-10,2.54h-5.11l.25-15.74.21-8.66-6.41-9.11-4.1-3.21Z" transform="translate(-637.39 -166.62)"/><path class="cls-9" d="M1500,1758.91l7.26,5.78-1.31,4.35-3.5,4-2.45-.55v-12.41" transform="translate(-637.39 -166.62)"/><path class="cls-10" d="M1282.92,1756.08l2.06-7.85-1.26-13.16-.8-4,5.49,1.39h7.51l5.62-2.19,8.06-4.1,4.52-3.25V1716l-2.36-15.69-2-7.73-.33-2.44h4.68l8.58.88,7.85,2.91,6.08,6.38,3.21,7.55-1.56,9.49-1.31,9.92-2.11,10.21-2.28,4-7.69,7.39-8.91,3.71-21.11,6.29-9.89,0-5.78,0" transform="translate(-637.39 -166.62)"/><path class="cls-10" d="M1233.93,1810.22l8.91,3.25,7.94,5.79,5.28,5.78,3,8.65,1.86,10.21v14l-.46,28.65,23.86-3.67,29.85-6.87,18-6.25,6.46-3.76v-29.92l-6.21,1.44h-13.85l-9-3.84-3.63-8.15-.8-12.61,4.18-10.77,7.39-7,8.87-3,7.89-.3,6.42-3.5.38-10.25-.38-2.66-6.67,5.27-7.64,4.56-7.06,3-13.38.08-20.11-1.14-13.8-2.15v6.79l-2,3.34-4,4.72-10.26,4.69Z" transform="translate(-637.39 -166.62)"/><path class="cls-11" d="M1220.2,1675.86l22.64-2.28,28.34-4.94,22.63-4.89,11.49-2.11,8.82,61.31-9,5.79-6.55,2.57-10.14,1.18-5.49-1.39-3.08-11.86-8.65-6.16-10.94-3.16-20.36-2-14.44.12Z" transform="translate(-637.39 -166.62)"/><path class="cls-11" d="M1390.64,1700.42h39.7s12.67-2.66,16-3.42l18.63-4.81,8-2.07.5,12.66-.5,13.25v16.5l-1.4,7.68,1.4,1.1-6.08-3.8-11.11-6.16-12.92-4.22h-9.42l-14.15,1.61-9.84,2.91-9.71,5.65-4.22,1.14-6.21,5.74Z" transform="translate(-637.39 -166.62)"/><path class="cls-12" d="M638.78,658.7l45.27,235.14,318.08,41.23L959.52,698.58Z" transform="translate(-637.39 -166.62)"/><path class="cls-13" d="M642.07,657.23l11.23-5L971.93,691l-12.41,7.55Z" transform="translate(-637.39 -166.62)"/><path class="cls-14" d="M1014.71,924.4,971.93,691l-12.41,7.55,42.6,236.49,154.19,14,1.14-14L1009.94,924" transform="translate(-637.39 -166.62)"/><path class="cls-15" d="M1011.84,915.15l146.07,14.22-.46,5.7L1130,933l-61.45-4.59L1037,926l-22.3-1.64Z" transform="translate(-637.39 -166.62)"/><path class="cls-16" d="M1167.88,451.16l-2.74,2.7,1.39,6.8,1.35,5.44,4.26,1.39,13.27,1.61,11.27-3,10.85-6,2.62-6.29-2.62-4-11.61-1.64-25,1.52Z" transform="translate(-637.39 -166.62)"/><path class="cls-16" d="M1092.75,452.42l3,6.84,8.44,4.69,15.76,5.15h9.41l5.16-6,.84-5.31-3-6.67-4-3-5.87-1.31-26.43,2.62Z" transform="translate(-637.39 -166.62)"/><path class="cls-17" d="M1171.05,459.26v5.11l3.84,1.73h5.62l2.36-3.42V458l-5.91-5.53-3.25,1.44Z" transform="translate(-637.39 -166.62)"/><path class="cls-17" d="M1115.81,460.66l2.24,3.75,4.43,1.18h4.31l2.37-4.93v-2.83l-2.54-4-4.14-1.44-4.09,1.44-2.71,2.41Z" transform="translate(-637.39 -166.62)"/><path class="cls-18" d="M1050.1,402.55l10,48.53a13,13,0,0,0,.84,2.65l18.08,40.6a16.86,16.86,0,0,0,1.81,3.17l12.42,17.13a14,14,0,0,0,1.9,2.24l27.36,27a18.71,18.71,0,0,0,3.13,2.49l13.56,8.44a20.49,20.49,0,0,0,3.08,1.52l23.73,8.87a18.17,18.17,0,0,0,3.84,1l32.73,4.43,13.56,1.73-40-14.14a18,18,0,0,1-3.85-1.86c-35.18-23-77.7-61.53-100.29-97.06a19.66,19.66,0,0,1-1.69-3.37Z" transform="translate(-637.39 -166.62)"/><path class="cls-19" d="M1050.48,405.33l9.08,8.19a12.43,12.43,0,0,0,4.22,2.49l3.21,1.14a16.17,16.17,0,0,0,2.92.63l26.22-5c1.18-1.31-3.12,12,7.26,41.1,14.07,39.46,44.22,54.61,79.86,76.64l64.49,39.83h-45.19l-28.17-13.12-25.33-17.94-31.34-26.88-18.07-18.27-.51-.55-11.53-13.25L1073,462a11.5,11.5,0,0,1-1.86-3.29Z" transform="translate(-637.39 -166.62)"/><path class="cls-18" d="M1216.15,570.33l3.12,78.37h8.32l-4.51-76.47v-3Z" transform="translate(-637.39 -166.62)"/><path class="cls-19" d="M1227.13,648.7,1225.61,619l-2.53-49.84h20.31l2.49,47.9-18.29,3Z" transform="translate(-637.39 -166.62)"/><path class="cls-19" d="M1050.1,402.55a57.7,57.7,0,0,0-6.8-1.91h-7.39l27.66,68.16,3.25-1.31-15.45-58Z" transform="translate(-637.39 -166.62)"/><path class="cls-18" d="M1159,669.21l2.49,3.71L1136.8,691l-13,13.84-5.07,11.1-1.18,10.59,4.94,103.26-8.11,12.24L1100.73,870l-6.42,20.89-2.78,18.48-1,13.34,8.44-.38,9.25-42.75,11.19-27.14a82.46,82.46,0,0,1,11.11-19.2l-3.68-105.5a37.62,37.62,0,0,1,3.68-17.39l8-10.08,31.8-30.18,8.44-47.22h-7.68l-3.25,3.34-3.17,5.48-5.74,16.88v18.15Z" transform="translate(-637.39 -166.62)"/><path class="cls-19" d="M1171.05,668.41l-.76,1.6-21.46,20.22-14,12.11-6,10.59L1127.09,728l3.67,105.51-6.84,8.81-11,27.14-4.52,8.44-7,26.12-2.24,18.78,11.53,1.69,9.63-45.7,11.19-27.14a82.46,82.46,0,0,1,11.11-19.2L1139,726.94a37.39,37.39,0,0,1,3.68-17.34l7.9-10.26,31.8-30.17,8.44-47.18-12.08.76-1.18,2.36-.84,5.65L1171,647.65v20.5Z" transform="translate(-637.39 -166.62)"/><path class="cls-18" d="M1159,666.8l-32.94,24.44a47.87,47.87,0,0,0-19.26,34L1092.58,871.9l-8.06-7.77-1.78-9.75,1.78-57.51,4.56-47.56L1097,711v-.3a75.37,75.37,0,0,1,16.89-23l14.23-10.55,29.94-13.29Z" transform="translate(-637.39 -166.62)"/><path class="cls-18" d="M1092.71,718.67,1055.34,743l-7.39,7.26L1042.54,761l-2,9.79v8l-2.66,7.21-21.46,46.42-3.55,9.67-2.95,7.34v11.14l1.9,6.46,6.84,5.27,4.82,1.4-.93,8.43-3.89,33.51,6.08.59,4.86-38.4a52.46,52.46,0,0,1,3.29-37.52Z" transform="translate(-637.39 -166.62)"/><path class="cls-19" d="M1092.71,718.67l-62,127-4,8a78.46,78.46,0,0,0,0,22.49l-4.86,38.44h4.86l6-35.74-.51-3a65,65,0,0,1,1.9-29.16l.22-.71,56.21-107Z" transform="translate(-637.39 -166.62)"/><path class="cls-18" d="M1227.59,620.09,1227,639l3.26,15.95,1.6,3.76,5.15,3.71,3.51,1.23-1.78,12-5,21.86-4.48,36.09-1.85,20.63-3.8,38.95-2.12,51.44-.76,78.92h8.45l10.6-203.07a119.25,119.25,0,0,1,3.88-24.69l8.45-31.82A49.87,49.87,0,0,1,1238,627.77l.3-9.33Z" transform="translate(-637.39 -166.62)"/><path class="cls-19" d="M1237.73,617l-.55,18.86,3.25,16,1.65,3.76,5.11,3.71,3.5,1.23-1.77,12-8.45,36.63-1.09,21.31-1.86,20.64-3.8,39-2.11,51.44-2.37,81.83,11.53,1.77,9.29-208A118.88,118.88,0,0,1,1254,692.5l8.44-31.81a49.79,49.79,0,0,1-14.19-36.21l.21-6.25Z" transform="translate(-637.39 -166.62)"/><path class="cls-18" d="M1151.07,474.45l-.76,6.29a22.76,22.76,0,0,0,5.7,18l1.44,1.6-10.64-2.23-6.13-7.09v-6.59l4.23-7.68Z" transform="translate(-637.39 -166.62)"/><path class="cls-18" d="M1176.07,949.25l-11.27-28.86a35,35,0,0,1-2.24-15.2l.76-11.22-8.45,5.44-2.45,6.29,5.58,18.57Z" transform="translate(-637.39 -166.62)"/><path class="cls-20" d="M1050.1,370.6l4.22,7.81a67.16,67.16,0,0,0,28.8,27.81l13.05,6.54-8.19,5.4-21.11-1-11.53-7.64-5.41-7-2.83-16.17Z" transform="translate(-637.39 -166.62)"/><path class="cls-20" d="M1020.88,372.33l8.11,3.46a38.11,38.11,0,0,0,14.82,3h3.33l3.34,26.54-14.15-9.79-6.63-6-6.16-9.41" transform="translate(-637.39 -166.62)"/><path class="cls-20" d="M1091.19,370.6l20.73,10.72a79,79,0,0,0,53.26,6.88l25.63-5.7.21,14.35-1.69,7.76-6.46,10.05-14.95,7.42-12.41,1.52-16.9-.88-18.24-4.56L1107,407.52l-8.74-10.67-7-14.52Z" transform="translate(-637.39 -166.62)"/><path class="cls-20" d="M1190.81,382.5l9.8,7.64a77.18,77.18,0,0,0,35,15.28l7.82,1.3-5.41,6.33-8.65,5.11-8.83-.38-13-3.93L1196,408.07l-6.63-3.46Z" transform="translate(-637.39 -166.62)"/><path class="cls-20" d="M1155.93,307.8l18.16,21.82a47.64,47.64,0,0,0,11.27,9.92l24.79,15.78-7.56,6.08-11.78,3.46L1177,359.54l-11.82-10.34-9.21-13.75-2.62-9.67,1-14Z" transform="translate(-637.39 -166.62)"/><path class="cls-20" d="M1035.91,331.69l3.46,5.53A43.21,43.21,0,0,0,1064,355.74l7.94,2.32-11.31,1.23-5.92,3.29-4.22,8-8.45-4.22-5.32-8.1-2.49-9.5V336.54Z" transform="translate(-637.39 -166.62)"/><path class="cls-20" d="M1073.28,290.21l20.06,10.63a132.42,132.42,0,0,0,30.33,11.61l11.06,2.78-17.61,5.07-9.42,4.93-13.09-10.38-15-8.44Z" transform="translate(-637.39 -166.62)"/><path class="cls-21" d="M1358,661.06c-88.43,0-54.14,265.87,53.67,265.87l12.67-.93-19.72-15.07-19.72-16.16-10.26-8.65L1365.81,870l-11.27-28.66-7.31-13.76-8.07-35.78-6.75-44.23,4.9-40,9.37-19.92,20.44-18.44,11-4.65v-4Z" transform="translate(-637.39 -166.62)"/><path class="cls-22" d="M1404.5,692.63,1399,705.29a58.47,58.47,0,0,0-4.23,13.76,203.89,203.89,0,0,0-4.52,45.62l5.11,87.14-4.56,2.45-3.8-7.64-6.29-52.71-.76-53,3.59-43.81,4.56-7.81,2.54-1.64Z" transform="translate(-637.39 -166.62)"/><path class="cls-23" d="M1116.4,1069.73l65,39.63a85.73,85.73,0,0,1,41.13,70l6.42,168.8a34.59,34.59,0,0,0,.8,6.33l64,283,14-7,6.38-11.86v-16.16l-2.5-20.13-4.94-36.46-48.9-197.67-1.23-247.59-23.18-5.11-41.51-22.62-30.49-21.1-12.92,2h-16l-4.81-2.37-2.12-4.93-1.35-3.63-7.81,5.74Z" transform="translate(-637.39 -166.62)"/><path class="cls-23" d="M1293.77,1637.58l.21.81a52.2,52.2,0,0,1,.8,17.93l-.93,7.43,26.61-6.25,5.07-13.88v-9.54l-4.23-7.81-7.09-7.55-4.52,8.44-8.11,6.54Z" transform="translate(-637.39 -166.62)"/><path class="cls-23" d="M1471.43,1647.54l-38.56-247.71a152.31,152.31,0,0,1-1.77-21.1l-4.6-314.15,9.71.39.8,316.79,8.19,53.22,18,113.94,6.59,50.64,3,38.4-.21,5Z" transform="translate(-637.39 -166.62)"/><path class="cls-23" d="M1180.59,1065.18l57.05,20.67a71,71,0,0,0,22.43,4.22l33.32.93-12.67,7.26-26.27,2.41-11.11-1.4-24-11.14-16-8.06L1180.67,1066" transform="translate(-637.39 -166.62)"/><path class="cls-24" d="M1115.22,1049.65l8.45-9.12,2,6,2.11,4.93,4.82,2.37,18.53,283.62a256.59,256.59,0,0,0,4.69,34.91l55.11,270.08a69.21,69.21,0,0,0,1.23,32.83l-8.66-1.77-8.15-7.81v-11.6l2.32-10.64,2.07-3.63-42.61-196-11.86-43.34-7-41L1133.5,1303l-10.34-134.33-4.22-78.91-2.16-28.57Z" transform="translate(-637.39 -166.62)"/><path class="cls-24" d="M1279.24,1098.64l8.45-3.29,8.44-6.75,34.67,310.89a5,5,0,0,0,.3,2.07l47,263.75-15.37-1.56v6.07a42,42,0,0,0,2.87,15.24l4.69,12-10.26-4.22-5.91-7.25-2.37-9.67.34-8.44,3.63-8.19,1.52-3L1333.47,1542l-13.6-86.68-7-66.8-1.61-35.28-3.8-51.7L1296.93,1210l-7.26-41.74Z" transform="translate(-637.39 -166.62)"/><path class="cls-25" d="M1127.55,355.32c7.49,0,13.56-4.44,13.56-9.91s-6.07-9.92-13.56-9.92-13.56,4.44-13.56,9.92S1120.06,355.32,1127.55,355.32Z" transform="translate(-637.39 -166.62)"/><path class="cls-25" d="M1161.5,365.11c0,3-8.82,5.49-9.62,5.49a8.63,8.63,0,0,1-5.07-6.25c0-3.08,4.22-4.77,5.07-4.77S1161.5,362.07,1161.5,365.11Z" transform="translate(-637.39 -166.62)"/><path class="cls-25" d="M1071.55,338.57c6.16,0,11.15-4.08,11.15-9.12s-5-9.11-11.15-9.11-11.15,4.08-11.15,9.11S1065.4,338.57,1071.55,338.57Z" transform="translate(-637.39 -166.62)"/><path class="cls-25" d="M1032,320.34c2.23,0,4-2.65,4-5.91s-1.82-5.91-4-5.91-4.06,2.65-4.06,5.91S1029.79,320.34,1032,320.34Z" transform="translate(-637.39 -166.62)"/><path class="cls-25" d="M1040,284.05a7.94,7.94,0,1,0-7.94-7.94A7.95,7.95,0,0,0,1040,284.05Z" transform="translate(-637.39 -166.62)"/><path class="cls-25" d="M1060.83,285.35c1.93,0,3.5-2.94,3.5-6.58s-1.57-6.58-3.5-6.58-3.51,2.94-3.51,6.58S1058.89,285.35,1060.83,285.35Z" transform="translate(-637.39 -166.62)"/><path class="cls-25" d="M1098.62,284.09a14.1,14.1,0,1,0-14.1-14.1A14.1,14.1,0,0,0,1098.62,284.09Z" transform="translate(-637.39 -166.62)"/><path class="cls-25" d="M1123,249.06c5.62,0,10.17-2.95,10.17-6.58s-4.55-6.59-10.17-6.59-10.18,3-10.18,6.59S1117.33,249.06,1123,249.06Z" transform="translate(-637.39 -166.62)"/><path class="cls-26" d="M1186.34,261.93c11.7,0,21.19-5.84,21.19-13s-9.49-13-21.19-13-21.2,5.84-21.2,13S1174.63,261.93,1186.34,261.93Z" transform="translate(-637.39 -166.62)"/><path class="cls-25" d="M1206.86,235.89a7.81,7.81,0,1,0-7.81-7.8A7.81,7.81,0,0,0,1206.86,235.89Z" transform="translate(-637.39 -166.62)"/><path class="cls-25" d="M1196.51,320.34c7.54,0,13.64-4.57,13.64-10.21s-6.1-10.22-13.64-10.22-13.64,4.58-13.64,10.22S1189,320.34,1196.51,320.34Z" transform="translate(-637.39 -166.62)"/><path class="cls-25" d="M1073.83,378.79A6.84,6.84,0,1,0,1067,372,6.84,6.84,0,0,0,1073.83,378.79Z" transform="translate(-637.39 -166.62)"/><path class="cls-25" d="M1030,359.37a2,2,0,1,0-2-2A2,2,0,0,0,1030,359.37Z" transform="translate(-637.39 -166.62)"/><path class="cls-25" d="M1213.83,385.87a7,7,0,1,0-7-7A7,7,0,0,0,1213.83,385.87Z" transform="translate(-637.39 -166.62)"/><path class="cls-25" d="M1220.12,367.81a1.73,1.73,0,1,0-1.73-1.73A1.72,1.72,0,0,0,1220.12,367.81Z" transform="translate(-637.39 -166.62)"/><path class="cls-25" d="M1282.07,351.14c11.38,0,20.61-5.8,20.61-12.95s-9.23-13-20.61-13-20.61,5.8-20.61,13S1270.69,351.14,1282.07,351.14Z" transform="translate(-637.39 -166.62)"/><path class="cls-25" d="M1307.62,329.45c5.74,0,10.39-2,10.39-4.55s-4.65-4.56-10.39-4.56-10.39,2-10.39,4.56S1301.88,329.45,1307.62,329.45Z" transform="translate(-637.39 -166.62)"/><path class="cls-25" d="M1276.92,278.77c11.22,0,20.31-4.74,20.31-10.59s-9.09-10.59-20.31-10.59-20.31,4.74-20.31,10.59S1265.7,278.77,1276.92,278.77Z" transform="translate(-637.39 -166.62)"/><path class="cls-25" d="M1272.23,251.93c5.43,0,9.84-2.11,9.84-4.73s-4.41-4.72-9.84-4.72-9.84,2.11-9.84,4.72S1266.8,251.93,1272.23,251.93Z" transform="translate(-637.39 -166.62)"/><path class="cls-25" d="M1289.72,220.28c11.75,0,21.28-3.57,21.28-8s-9.53-8-21.28-8-21.29,3.57-21.29,8S1278,220.28,1289.72,220.28Z" transform="translate(-637.39 -166.62)"/><path class="cls-25" d="M1269.15,204.33c4.27,0,7.73-1,7.73-2.32s-3.46-2.32-7.73-2.32-7.73,1-7.73,2.32S1264.88,204.33,1269.15,204.33Z" transform="translate(-637.39 -166.62)"/><path class="cls-25" d="M1226.83,192.72c5.9,0,10.69-2.06,10.69-4.6s-4.79-4.6-10.69-4.6-10.68,2.06-10.68,4.6S1220.93,192.72,1226.83,192.72Z" transform="translate(-637.39 -166.62)"/><path class="cls-25" d="M1235.11,178.71c4.57,0,8.28-1.45,8.28-3.25s-3.71-3.25-8.28-3.25-8.28,1.46-8.28,3.25S1230.54,178.71,1235.11,178.71Z" transform="translate(-637.39 -166.62)"/><path class="cls-25" d="M1171.05,196.18c0,1.95-5.24,8.15-13.47,8.15s-16.35-6.2-16.35-8.15,6.68-3.5,14.91-3.5S1171.05,194.24,1171.05,196.18Z" transform="translate(-637.39 -166.62)"/><path class="cls-25" d="M1156.69,185.09a4.82,4.82,0,1,0-4.81-4.82A4.81,4.81,0,0,0,1156.69,185.09Z" transform="translate(-637.39 -166.62)"/><path class="cls-25" d="M1083.25,215.51a7.89,7.89,0,1,0-7.9-7.89A7.9,7.9,0,0,0,1083.25,215.51Z" transform="translate(-637.39 -166.62)"/><path class="cls-25" d="M1100.23,220.32c4.17,0,7.56-2.32,7.56-5.19s-3.39-5.19-7.56-5.19-7.56,2.33-7.56,5.19S1096.05,220.32,1100.23,220.32Z" transform="translate(-637.39 -166.62)"/><path class="cls-25" d="M1360.58,293.25c8,0,14.57-3.84,14.57-8.57s-6.53-8.57-14.57-8.57S1346,280,1346,284.68,1352.53,293.25,1360.58,293.25Z" transform="translate(-637.39 -166.62)"/><path class="cls-25" d="M1361.34,268.18c4.76,0,8.61-1.4,8.61-3.12s-3.85-3.13-8.61-3.13-8.62,1.4-8.62,3.13S1356.58,268.18,1361.34,268.18Z" transform="translate(-637.39 -166.62)"/><path class="cls-25" d="M1378.44,322.36a9.2,9.2,0,1,0-9.21-9.2A9.21,9.21,0,0,0,1378.44,322.36Z" transform="translate(-637.39 -166.62)"/><path class="cls-25" d="M1347.74,224c5.62,0,10.18-3,10.18-6.67s-4.56-6.66-10.18-6.66-10.18,3-10.18,6.66S1342.12,224,1347.74,224Z" transform="translate(-637.39 -166.62)"/><path class="cls-25" d="M1400.23,251.93a8,8,0,1,0-8-8A8,8,0,0,0,1400.23,251.93Z" transform="translate(-637.39 -166.62)"/><path class="cls-25" d="M1419.66,335.49a1.9,1.9,0,1,0-1.9-1.9A1.9,1.9,0,0,0,1419.66,335.49Z" transform="translate(-637.39 -166.62)"/><path class="cls-25" d="M1390.6,364.86a6.84,6.84,0,1,0-6.84-6.84A6.84,6.84,0,0,0,1390.6,364.86Z" transform="translate(-637.39 -166.62)"/><path class="cls-25" d="M1398.84,391.61a1.39,1.39,0,1,0-1.4-1.39A1.39,1.39,0,0,0,1398.84,391.61Z" transform="translate(-637.39 -166.62)"/><path class="cls-27" d="M1149.68,278.77l-.55,3.38a69.75,69.75,0,0,1-9.88,26l-4.52,7.13,12.08.38,5.07,2.32,4.22-10.13,5.57-6.75,3.51-2.7-3.51-2.78-7.52-8.06" transform="translate(-637.39 -166.62)"/><path class="cls-27" d="M1190.81,212.3l3.34.85a52.28,52.28,0,0,1,24.2,14.9c10.17,10.12,4.94,24.3-1.31,37.72l-10.22,21.9,9.5,3.68,4.22.84s13.18-12.28,13.68-11.48,8.66-15.7,8.66-15.7l2.24-25.32-10.26-15.78L1214.67,215l-15.58-2.74Z" transform="translate(-637.39 -166.62)"/><path class="cls-27" d="M1220.79,292.23l10,17.9v15.65L1227,339.2l2.49,6.21,8.2-19.63,1.52-4.68a49.27,49.27,0,0,0-4.56-40.35Z" transform="translate(-637.39 -166.62)"/><path class="cls-27" d="M1087.6,195.17l2.53,1.14a46.41,46.41,0,0,1,24.41,26.21l2.58,7,12.2-1.39-2.15-10.47a51.2,51.2,0,0,1,3-30.26l2.95-7.09-15.07,12.41Z" transform="translate(-637.39 -166.62)"/><path class="cls-27" d="M1196.39,181.46l1.85,3.29a55.67,55.67,0,0,0,24,22.49l7,3.38-1.86,8.23-23.48-6.55-11.74-2.36,4.22-7.93-6.25-14.69Z" transform="translate(-637.39 -166.62)"/><path class="cls-27" d="M1232.66,207.62l.51.42a96.63,96.63,0,0,1,23.43,29.12l-11.23,2.58-5.32-8.19-12.67-12.66Z" transform="translate(-637.39 -166.62)"/><path class="cls-27" d="M1310.41,266.24l-2.28,4.22a151,151,0,0,1-26.78,35.61l-3.54,3.51,29.09-1,3.21-18.31Z" transform="translate(-637.39 -166.62)"/><path class="cls-27" d="M1310.41,261.93l4.47-3.54a78.49,78.49,0,0,0,19.56-22.45l4.6-7.85,4,15.82-4.22,10.26-11.62,7.76-16.89,4.22Z" transform="translate(-637.39 -166.62)"/><path class="cls-27" d="M1340.77,234.42l3.59,1.14a34.54,34.54,0,0,0,26.14-2.41l1.14-.59v19.37L1358,249.4h-15.12Z" transform="translate(-637.39 -166.62)"/><path class="cls-27" d="M1372.11,217a145.7,145.7,0,0,0,29.56,48l9.71,10.42-17.32-7.21-10.43-10.34-12.12-5.91Z" transform="translate(-637.39 -166.62)"/><path class="cls-27" d="M1028,284.05l2.83,1.73a58.74,58.74,0,0,0,37,8.1l6-.68,5.83,13H1067l-7.13,1.56-4.95,2.33-3.37-3.89-9.8-2.28h-5.83l-7.69,4.56-1.39-10.17Z" transform="translate(-637.39 -166.62)"/><path class="cls-27" d="M1053.48,245.47h14.82a38.48,38.48,0,0,0,13.64-2.44l14.23-5.24-15.45,10.93-5.87,8.44L1067,254h-9.67l-4,.47Z" transform="translate(-637.39 -166.62)"/><path class="cls-27" d="M1327,261.93l2.37,13.51a101.24,101.24,0,0,0,9.92,29.33c7.14,13.71,15.16,29.16,26.1,36.63l13.09,8.44-6.8,4.89L1351,360.18l-13.35-.39-1.81-21.52L1326.54,318l-19.81-9.41,3.51-42.2Z" transform="translate(-637.39 -166.62)"/><path class="cls-27" d="M1272.4,406.72,1297,389.84a134,134,0,0,0,40.79-44.43v19.7L1327.13,385l-13.77,9.83-11.61,7.39-21.12,4.43Z" transform="translate(-637.39 -166.62)"/><path class="cls-27" d="M1340.77,360.09s18.16,87.44,16.39,86.81-11.15-5.74-11.15-5.74l-5.2-8.44L1327,385.07s5.87-11.81,6.76-12.66a100,100,0,0,0,3.88-12.66Z" transform="translate(-637.39 -166.62)"/><path class="cls-27" d="M1402.3,269.82a81.36,81.36,0,0,1,7.43,22.41c.8,4.86,1.48,9.71,2,14.56l1.31,19.08L1408.3,328l-8.45,1.3-2.53-2.27,4-16.12,1.22-20.81-5.11-16-4.64-7.68Z" transform="translate(-637.39 -166.62)"/><path class="cls-27" d="M1375.15,355.32a23.78,23.78,0,0,1-13.9,21.65l-.67.3-4.23-2.92-3.46-14.26,16.34-4.77Z" transform="translate(-637.39 -166.62)"/><path class="cls-27" d="M1390.65,384v4.81l-3,2.83s-10.64-3.25-12.67-3.59-17.19-1.69-17.19-1.69l-1.77-12,7.77,4.22,15,6.25Z" transform="translate(-637.39 -166.62)"/><path class="cls-27" d="M1413,326a20.84,20.84,0,0,1,2.92,7.87,20.6,20.6,0,0,1-.47,8.38L1412,355.32l-2.45-12.24L1400,329.41l8.44-1.31Z" transform="translate(-637.39 -166.62)"/><path class="cls-25" d="M1413,299.91c2.61,0,4.73-2.87,4.73-6.41s-2.12-6.42-4.73-6.42-4.73,2.88-4.73,6.42S1410.42,299.91,1413,299.91Z" transform="translate(-637.39 -166.62)"/><path class="cls-20" d="M1231.1,345.41l5.32,13.79a88.64,88.64,0,0,0,28.8,38.45l11.7,9-29.14-8.11-8.45-9.66-6.46-11.56-3.46-17.18Z" transform="translate(-637.39 -166.62)"/><path class="cls-28" d="M1360.62,396.85c40.92,5.4,61,58.49-1.61,68.7l-1-17.34,8.87-10.13Z" transform="translate(-637.39 -166.62)"/><path class="cls-28" d="M1184.6,414.66l10.9,2.91a45,45,0,0,0,11.32,1.48h16.3l-22-7.1-7.81-5.35-3.93-2Z" transform="translate(-637.39 -166.62)"/><path class="cls-28" d="M1099.26,401.45l-1.74,10.38-1.18.93,4.22,1.81a41.23,41.23,0,0,0,10.22,3.12l24.33,4.23-19-7.31Z" transform="translate(-637.39 -166.62)"/><path class="cls-28" d="M1247.78,398.49l-4.22,8.23-2.33,4.9,4.65,1.26a55.45,55.45,0,0,0,11.15,1.9l6.75.47A60.53,60.53,0,0,0,1284.9,413a57.28,57.28,0,0,0,21.11-11.4l5.49-4.72-16.08,7.76-10,2.91-14.28-1.47-10.51-2.83-6-2.87Z" transform="translate(-637.39 -166.62)"/><path class="cls-28" d="M1365.31,476.61a16.89,16.89,0,0,1,1.31,10.5l-4.23,20,18.12-34.1-7.22,1.35Z" transform="translate(-637.39 -166.62)"/><path class="cls-28" d="M1217.5,571.43l14.66,15.11a14.71,14.71,0,0,0,20.1,1l27.24-23.21v-2.7s-23.19,6-23.61,6l-31.13,1.56-6.5.81Z" transform="translate(-637.39 -166.62)"/><path class="cls-28" d="M1286.08,560.63a68.78,68.78,0,0,1,8.24,24.77L1298,613l9.16-.8L1305.3,596,1301.58,573l-3.76-13.33-3.08-2.32Z" transform="translate(-637.39 -166.62)"/><path class="cls-28" d="M1436.13,872a48.72,48.72,0,0,0-7.86,4.61l-.46,5.65s2.53,8.44,2.45,9.12,5.87,17.17,5.87,17.17l4.22,10.34,2.7,3.8L1476.5,924l-16.64-9.63a31.47,31.47,0,0,1-15.67-23.92v-.3a13.14,13.14,0,0,1,7.94-13.42l54.23-22.37Z" transform="translate(-637.39 -166.62)"/><path class="cls-28" d="M1289.29,1012.76a8.23,8.23,0,0,0,2.24-.59A48.55,48.55,0,0,0,1319,986.64l4.69-10,9.54,3.16v8.1l-5.7,10-7.09,6.75-9,5.49a27.58,27.58,0,0,1-4.86,2.11,16.37,16.37,0,0,0-7.81,0,44.06,44.06,0,0,1-9.46.46" transform="translate(-637.39 -166.62)"/><path class="cls-28" d="M1354.58,1003.48l91.64-18a65.62,65.62,0,0,0,28.29-13.21l24.2-23.34a27.14,27.14,0,0,0,7-11.26l8.91-28.28.76,27-3.21,14.82-8.45,6.66-7.17,10.76-11.74,7.6-12.21,7.13-7.09,3.12-14.91,5.79-26.14,5.36-21.11,3.37s-23.32,2.41-23,1.35S1354.58,1003.48,1354.58,1003.48Z" transform="translate(-637.39 -166.62)"/><path class="cls-28" d="M932.32,933.47l6-2,9.71-2.07,7.52-.33,46.45,6a5.7,5.7,0,0,0,.47,1.39,18.94,18.94,0,0,1-2.54,15.75l-1.26,1.85s-8.45-7.3-10.69-7.3a60.68,60.68,0,0,1-11.74-4.43l-7.47-2.15L959.43,939l-3.93,1.47-3.8,3.67-1.35,4.9v2.2l-3.12-2-5.33-7.51-5.27-5.28Z" transform="translate(-637.39 -166.62)"/><path class="cls-28" d="M882.49,936.59l5.49.72A36.7,36.7,0,0,1,910.15,949l4,4.22L911.33,939,911,935a67.18,67.18,0,0,0-5.32-4.94,29.58,29.58,0,0,0-8.91-1.31L887,930.09Z" transform="translate(-637.39 -166.62)"/><path class="cls-28" d="M860.06,946l1.35-.76a18.79,18.79,0,0,1,20.32,1.18c1.64,1.19,2.87,2,2.87,1.57,0-1.19-2.11-11.53-2.11-11.53l4.51-6.32-6.37-1.1-11-.3-5,3.5-4.56,4-.93,7.89Z" transform="translate(-637.39 -166.62)"/><path class="cls-28" d="M911.33,939a40.45,40.45,0,0,1,25.34,8.77l16.05,12.66L950.61,949l-6.55-4.9-9.71-12.32-6.25-1.18-8.83.63-5.49,3.8Z" transform="translate(-637.39 -166.62)"/><path class="cls-28" d="M950.44,949.25l11.4-2.28a26.3,26.3,0,0,1,11.87.34c9.5,2.41,27,7,25.08,7a73.71,73.71,0,0,1-16.3-8.44c-1.65-1.22-17.44-6.58-17.44-6.58l-9.46,1.48Z" transform="translate(-637.39 -166.62)"/><path class="cls-28" d="M1021.43,969l19.25-2.4c15.25-4.48,36.11-13.55,42.87-21.1,3.38-3.76-24.29-3.89-25-4.23-1.86-.37-35-3.12-35-3.12v20.68Z" transform="translate(-637.39 -166.62)"/><path class="cls-28" d="M1097.48,979.76c23.4,21.73,9.93,0,11.53-4.22,3.89-10.42,20.31-9.11,31-12.66l28-8.86s-13.09-.42-15.37,0-22.76,6.25-24.87,6a120.28,120.28,0,0,0-14.62,2.11l-12.24,4.73-4.44,2.15Z" transform="translate(-637.39 -166.62)"/><path class="cls-28" d="M1125.57,1003.4a16.86,16.86,0,0,0-10.35,19.49s-5,3.93-7.43,1.06l-4.23-5.07-3.21-10.29,1.53-3.93,5-4.22a28.58,28.58,0,0,1,7.9-2.36c2.91,0,23.14-4.6,25.33-5.07l33.49-7.64Z" transform="translate(-637.39 -166.62)"/><path class="cls-28" d="M1148.5,1053.87h-13.77l-7-2.37-2.11-4.93,2.11-8.44a23.22,23.22,0,0,1,5.28-4.23c1.52-.42,16.13-5.06,17.35-5.44l48-14.94-46.07,23a11.29,11.29,0,0,0-3.76,17.35Z" transform="translate(-637.39 -166.62)"/><path class="cls-28" d="M1212.14,1039.31c.59,0,27.53-3,29.22-3a34.29,34.29,0,0,0,5.32-1c7.65-2.79,29.56-12,29.56-12l-8.44,8-14.23,6-16.39,4.22a108.62,108.62,0,0,1-12.2,1.35,49.4,49.4,0,0,0-8.66-1.9" transform="translate(-637.39 -166.62)"/><path class="cls-29" d="M1404.5,640.94a43.36,43.36,0,0,1,34.71,36.62l.93,7h30.32l-5.41-28a39.93,39.93,0,0,0-8-17.43,24.56,24.56,0,0,0-10-7.51H1396.3l-8.44,8.1Z" transform="translate(-637.39 -166.62)"/><path class="cls-29" d="M1461.17,703.94l17.78-5.36a74,74,0,0,1,55.83,61.15l-18.88,4.81S1506.48,718.5,1461.17,703.94Z" transform="translate(-637.39 -166.62)"/><path class="cls-29" d="M1380.63,669.21S1303,688.58,1371.56,870c0,0,3.33,14.14,7.26,0s-8.45-132.93-8.45-132.93a98.37,98.37,0,0,1,10.31-52.5l10-9.16S1394.23,669.21,1380.63,669.21Z" transform="translate(-637.39 -166.62)"/><path class="cls-21" d="M1083.55,944.14l6.33,73.1a81.67,81.67,0,0,0,2.75,15.27,22.57,22.57,0,0,0,17.56,16.16l5,1-28.63,15.53-4.23-7.81-5.74-16.88-2.62-24.44.72-20.67,2.83-24.31Z" transform="translate(-637.39 -166.62)"/><path class="cls-21" d="M1274.59,1025l144.35,24.9a39.5,39.5,0,0,0,28-6.92l-1.69-30.18,5,41.11-.55,9.32-6.3,1.1h-32.81l-58-4.52-50.34-10.12-17.61-6.71-17.15-11.65Z" transform="translate(-637.39 -166.62)"/><path class="cls-30" d="M1159.56,1812.17a70.76,70.76,0,0,0-24.66,27.13c-1.1,1.9-8.45,47.26-8.45,47.26L1125,1910l-13.94-3.59,1.23-29.12,3-32.41,7-16.88,13-15.15,13.18-8.44,4.6-4.68,4.81,8.44Z" transform="translate(-637.39 -166.62)"/><path class="cls-30" d="M1163.57,1780.6l-8.44,4.22-2.5,5.06.47,6.76,5.53-1.1a20,20,0,0,1,3.72-13.08Z" transform="translate(-637.39 -166.62)"/><path class="cls-30" d="M1166.82,1772.16l6.09-4.6,8.91-1.43,11.15-.72-5.49,2.62a8.74,8.74,0,0,0-5,7.84l-10.59-1h-5.12Z" transform="translate(-637.39 -166.62)"/><path class="cls-30" d="M1385.28,1834.79l14.19,7.51a44.86,44.86,0,0,0-23.73,39.29l-.47,57.89-15.92-1.51-7.6-4.22.3-79,3.59-12.66,8.1-8.1,8.75-2,10.55,1.65Z" transform="translate(-637.39 -166.62)"/><path class="cls-30" d="M1399.47,1810.14a5.74,5.74,0,0,0,.34,10.09l1.52.76-10.68,1.81-5.16,2.83-3.33-1.48-6-3.8,1.14-8.14,4.86-4.22h3.33l-6.25-3.55v-5.1l6.25-4.81,12.42-1.14,6.88.59-2.45,2.11a11.57,11.57,0,0,0-2.66,14.05Z" transform="translate(-637.39 -166.62)"/><path class="cls-31" d="M1230.17,1707.85l-.38.63a57.68,57.68,0,0,0-9.59,31.86v12.32c0,3.76-3.29-.38-7-.8a6.33,6.33,0,0,1-5.62-6.29v-12.66a6.65,6.65,0,0,1,.26-1.77l3.88-13.12a6.63,6.63,0,0,1,1.65-2.75l2.24-2.19a9.58,9.58,0,0,1,1-.8l5.15-3.42a6.5,6.5,0,0,1,3.42-1Z" transform="translate(-637.39 -166.62)"/><path class="cls-31" d="M1166.82,1774.69l-2,3.34,2,3.71,8.2-1.1,4.85-4.81Z" transform="translate(-637.39 -166.62)"/><path class="cls-31" d="M1153.14,1796.76l7,13.46,10.94,5.41-1.73-5.7a18.7,18.7,0,0,1-.66-7.58,18.89,18.89,0,0,1,2.39-7.23l-17.61,1.47S1153.1,1796.68,1153.14,1796.76Z" transform="translate(-637.39 -166.62)"/><path class="cls-31" d="M1419,1728.9l-14.44,5.62-13.93,7.47-4.48,6.2-.72,7-1,9.5,1.69,10,22.93,3.29h10.14a37.18,37.18,0,0,1,4.6-44.52l5.91-6.37Z" transform="translate(-637.39 -166.62)"/><path class="cls-31" d="M1415.31,1821.07a15.49,15.49,0,0,0,0,19.88l3.84,4.6-10.39-.55-9.16-2.7-11.62-5.87-2.57-10.84,2.07-1.19,5.62-3.33,10.76.38Z" transform="translate(-637.39 -166.62)"/><path class="cls-32" d="M1237.9,1808.07l16.89-3.54,14.23-9.41,11,20.21a50,50,0,0,1,4.23,10.47l.93,3.54a146.85,146.85,0,0,1,5.19,38.78v13.76l-30.15,4.68.46-10.33v-24.77c0-1.1-.46-20.51-.46-20.51L1256,1825l-9.79-9.5-8.45-2.66-4-2.65Z" transform="translate(-637.39 -166.62)"/><path class="cls-33" d="M1284.35,1752.75l-1.44-21.65Z" transform="translate(-637.39 -166.62)"/><path class="cls-32" d="M1311.76,1754.23l-28.85,4.68v-25.53l14.45-1.44,13.43-5.74a28.54,28.54,0,0,1,1.77,26.21Z" transform="translate(-637.39 -166.62)"/><path class="cls-32" d="M1386.42,1727.3l2.74-1.1,1.19,2-1.19,5.15-7,11.69a35.78,35.78,0,0,0-4.61,14.13l-1.69,15.49-7-2.66v-3l1.35-10.13,5.28-15,6.71-11.4Z" transform="translate(-637.39 -166.62)"/><path class="cls-32" d="M1371.39,1799.8l-5.37,33.89-6.37,2.4,4.09-37.3Z" transform="translate(-637.39 -166.62)"/><path class="cls-30" d="M1181.82,1766l1.9-5.07c-2.83-4.43,7.22-10,11.61-12.66l4.94,1.56,21.75,3.89,26.48,3.58s-22.13,3.08-23.06,3.13c-.25,0-1.31.25-2.75.59-4.22.93-10.93,2.7-10.93,2.7Z" transform="translate(-637.39 -166.62)"/><path class="cls-30" d="M1366.32,1775.33l-.21.54a23.79,23.79,0,0,0-1.52,12.12l2,4.76a5.1,5.1,0,0,0,5.7,3,3,3,0,0,0,1.17-.51,3,3,0,0,0,1.23-2.15,3,3,0,0,0-.16-1.26l-1.26-3.8a13.63,13.63,0,0,1,2-9.87,10.71,10.71,0,0,0-4.1-2.38,11,11,0,0,0-4.72-.41Z" transform="translate(-637.39 -166.62)"/><path class="cls-34" d="M1313.53,909.37l-5.11,3.55a19.07,19.07,0,0,0-7.9,13l-.21,1.52a31,31,0,0,0-.25,4V932a40.56,40.56,0,0,0,4.22,18.32,33.57,33.57,0,0,0,12.29,13.25l3.93,2.36L1327,969a26.75,26.75,0,0,0,7.1,2.16l4.22.63a75.48,75.48,0,0,0,9.12,1c1.4,0,9.29.25,10.31,0l3.16-.51a16.4,16.4,0,0,0,10-5.19V970l-4.22,4.22-5.49,4.77s-9.67,1.77-11.07,1.77h-13.38l-10.69-3-8.78-3.75s-7.18-6-7.81-6.75-6.68-7.68-7.06-8.44l-8.7-12.66-4.39-11v-4.6l.89-5.36a31.85,31.85,0,0,1,4.22-6.2c.8,0,4.22-5.78,6.25-6.29a26.63,26.63,0,0,0,6.08-3.33Z" transform="translate(-637.39 -166.62)"/><path class="cls-34" d="M1333.63,980.73l-3.29,12.92-5,7.13-7.3,6-3.63,1.69-2.79,1.69s3.17,2,4.6,2.61,8.87,3,8.87,3l4.6-5.06A70.91,70.91,0,0,0,1345.42,982v-.51l-9.72-1.77h-2.45Z" transform="translate(-637.39 -166.62)"/><path class="cls-35" d="M1359,953.89c-23.35,10.72-64.78-30.13-37-37Z" transform="translate(-637.39 -166.62)"/><path class="cls-36" d="M1050.1,402.25s15.62,163,148.27,167.83,165-63.55,165-63.55,10.81-25.32,18.88-35.58" transform="translate(-637.39 -166.62)"/><path class="cls-36" d="M1358,475.8c65.2,0,77.62-89.42,0-89.42" transform="translate(-637.39 -166.62)"/><path class="cls-36" d="M1067.5,468.8c-22.64,0-70.78-82.42-17.4-66.55,0,0-39.36-9.16-28.55-56.55a46.19,46.19,0,0,1,6.46-37.18s-10.81-44.73,25.34-53.89c0,0-11.87-67.86,64.7-61.95,0,0,36.1-49,72.76-5.36,0,0,33.79-46.42,77.62,1.06,0,0,29.56-2.7,42.61,4.22,0,0,40.42-9.67,58.24,24.26,0,0,69-3.25,48.52,68.41,0,0,8.66,9.62,3.8,32.58,0,0,16.17,15.91-10,41.23a47,47,0,0,1-9,16.16s8.45,5.95,3.76,33.42" transform="translate(-637.39 -166.62)"/><path class="cls-36" d="M1154.28,500.32a13.59,13.59,0,1,0-13.6-13.58A13.59,13.59,0,0,0,1154.28,500.32Z" transform="translate(-637.39 -166.62)"/><path class="cls-36" d="M1216.15,572.23l4.86,75.42h6.46V619.12l79.26-6.5s-3.59-47.73-11.1-55.24" transform="translate(-637.39 -166.62)"/><path class="cls-36" d="M1227.47,647.65s1.1,15.9,15.92,15.9,134.5-2.95,134.5-2.95-7.26-34.77-24.28-51.74l-46.88,3.76" transform="translate(-637.39 -166.62)"/><path class="cls-36" d="M1159.1,895.19s12-11.31,52.19,28.83" transform="translate(-637.39 -166.62)"/><path class="cls-36" d="M1364.93,961.19c22.68-19.41,1-41.39-24.12-49.29-9.58-3-23.27-5.19-30.4,3.76-11.07,14,1.52,31.4,13.89,38.53,9.63,5.57,29.86,13.5,40.63,7" transform="translate(-637.39 -166.62)"/><path class="cls-36" d="M1312.77,1010.7c22.38,15.65,49.62-5.32,48.86-30.94" transform="translate(-637.39 -166.62)"/><path class="cls-36" d="M1322,908.86l-8.44.51a22.42,22.42,0,0,0-18.33,9.37,26.47,26.47,0,0,0-5.75,11.73c0,16.88,24.79,48.49,44.22,48.49" transform="translate(-637.39 -166.62)"/><path class="cls-36" d="M1209.94,922.71s34.88-2.07,50.21,11.14a4.53,4.53,0,0,0,3,1.22h26.1" transform="translate(-637.39 -166.62)"/><path class="cls-36" d="M1370.33,929.37l86.28-5.44s16.26-5.32,26.94,5.36" transform="translate(-637.39 -166.62)"/><path class="cls-36" d="M1443.14,924.86S1427,891.44,1427,879s82.27-24.65,82.27-24.65,6.67,52.67,6.67,78-35.6,46.42-35.6,46.42-30.91,24.1-127.58,24.1" transform="translate(-637.39 -166.62)"/><path class="cls-36" d="M1394.06,689.42S1514,702.08,1514,821.81c0,0-77.16,8-122.47,32C1379.49,860.29,1372,667.39,1394.06,689.42Z" transform="translate(-637.39 -166.62)"/><path class="cls-36" d="M1510.91,822.35c8.45-8.44,23.65,47.06,10.9,34.31-10.39-10.38-88,15.91-116,25.87a1.88,1.88,0,0,0-1.28,2.1,1.85,1.85,0,0,0,1.92,1.53H1428" transform="translate(-637.39 -166.62)"/><path class="cls-36" d="M1526.71,859.11s2.11,2.83-15.79,2.83" transform="translate(-637.39 -166.62)"/><path class="cls-36" d="M1404.5,886.16s-26.74-3.08-12.67-32.32" transform="translate(-637.39 -166.62)"/><path class="cls-36" d="M1243.39,663.55s-22.93,33.43-22.93,259.16" transform="translate(-637.39 -166.62)"/><path class="cls-36" d="M1210.24,623.55,1175.18,621s-16.17,1.1-16.17,48.24h34.5s12.93,3.21,12.93-14V626.63s4.85-7,4.85,0v42.83s-36.65,49.29-36.65,73-5.41,112-5.41,112-4.56,33.13-7,35.58-8.07,10.21-8.07,10.21-8.91,15.36,20.49,44.73c0,0,6.46,8.44-8.07,8.44-12.46,0-51.27,9.07-62.29,11.69a10.08,10.08,0,0,0-7.69,11.73v.43a15.71,15.71,0,0,0,18.25,11L1182,976.09s9,3.5-1.52,7c-9.13,3.08-54.9,11.6-71.8,16.07a11.82,11.82,0,0,0-4.75,2.5,11.75,11.75,0,0,0-2.47,14.77,13.26,13.26,0,0,0,13.81,6.16l83.45-15.79s8.45,2.45-1.65,7.56c-6.54,3.29-45.4,12.07-60.3,16.88a17.8,17.8,0,0,0-11.11,10.25c-2.19,5.7-1.6,12.2,12.67,12.2,21.88,0,60.3-10.47,70.31-13.3a7.9,7.9,0,0,1,4.52,0c7.9,2.45,37.76,8.45,73.27-26a6.59,6.59,0,0,1,4.23-1.86l15.92-.92s26.94-6.46,26.94-32.88c0,0,47.68,14.69,40.84-37.43" transform="translate(-637.39 -166.62)"/><path class="cls-36" d="M1090.56,922.71l67.35,6.66-1.6,19.71-154.19-14-42.6-236.32,12.41-7.56,39.91,224.09,78.72,7.6C1090.56,869,1124,828,1124,828s-5.91-80.18-5.91-106.64,49.87-52,49.87-52" transform="translate(-637.39 -166.62)"/><path class="cls-36" d="M638.78,658.7l14.52-6.46L971.93,691l-12.41,7.55Z" transform="translate(-637.39 -166.62)"/><path class="cls-36" d="M638.78,658.7l45.27,235.14,318.08,41.23" transform="translate(-637.39 -166.62)"/><path class="cls-36" d="M1083.55,944.14s-22.68,83.06,3.21,121c0,0,45.73-15.28,45.73-45.62" transform="translate(-637.39 -166.62)"/><path class="cls-36" d="M1439.29,994.62s19.3,70.6,7.69,70.56c-166.26-.93-179.35-35.37-179.35-35.37" transform="translate(-637.39 -166.62)"/><path class="cls-36" d="M1424.43,926s-44.51-32.79-52.24-44.31c-6.67-10-16-35.24-18.58-42.2a16.84,16.84,0,0,0-1.48-3.16c-3.12-5.24-14.32-28-18.24-91-3.8-60.9,32-76.93,44.38-80.6a18.75,18.75,0,0,1,7.18-.72c4.48.42,12.67,1.1,19.68,1.14a18.68,18.68,0,0,1,13.5,5.44,18.75,18.75,0,0,1,5.5,13.46,19.21,19.21,0,0,1-4.56,11.36" transform="translate(-637.39 -166.62)"/><path class="cls-36" d="M1095,717.7s-54.9,20.8-54.9,57.35c0,13-47.68,86-23.44,96.6s73.7,36,76.31,24.68a138.42,138.42,0,0,0,3.17-22.66c-16.3-6.5-13.55-19.29-13.55-19.29s.8-103.56,13.55-140.73,62.8-50.1,62.8-50.1" transform="translate(-637.39 -166.62)"/><path class="cls-36" d="M1014.37,837.42l81.93,36.25" transform="translate(-637.39 -166.62)"/><path class="cls-36" d="M1428.91,698.58l46.83-6c0-74.36-28.76-66.26-28.76-66.26h-81.21" transform="translate(-637.39 -166.62)"/><path class="cls-36" d="M1475.74,692.63s63.09.47,72.76,88.62,0,182.31,0,182.31-15,42.2-59.84,45.78l-44.85,3.34" transform="translate(-637.39 -166.62)"/><path class="cls-36" d="M1023.45,874.6l-4.77,41.19" transform="translate(-637.39 -166.62)"/><path class="cls-36" d="M1159.1,1051.88s70,48.83,97.5,48.83,32.86-6.46,32.86-6.46,28.46-20.21,32.56-39.58" transform="translate(-637.39 -166.62)"/><path class="cls-36" d="M1115.22,1049.65l21.66,300.76s6.51,48.49,15.37,76,46.92,215,46.92,215,101.86,12.11,113.6-19.41-55.36-275.32-55.36-275.32l-.8-245.9" transform="translate(-637.39 -166.62)"/><path class="cls-36" d="M1199.17,1641.34s-11.32,22.62,4.86,32.32,116.43-16.16,116.43-16.16a28.48,28.48,0,0,0-6.29-38.78" transform="translate(-637.39 -166.62)"/><path class="cls-36" d="M1279.24,1100.71s31.5,174.58,33.53,273.16,46.46,289.29,46.46,289.29,110.13,17.51,113.34-19.54-35.47-259.7-35.47-259.7l-2.62-318.83" transform="translate(-637.39 -166.62)"/><path class="cls-36" d="M1357.58,1656.15a26.45,26.45,0,0,0,1.56,34.48c15.5,17.77,127.11,10,127.11-14.77s-13.76-32.24-13.76-32.24" transform="translate(-637.39 -166.62)"/><path class="cls-36" d="M990.93,995.42s53.26,20,83.45-11.48" transform="translate(-637.39 -166.62)"/><path class="cls-36" d="M976,976.26,957.28,963a15.67,15.67,0,0,1-6.84-12.24,10.33,10.33,0,0,1,6.5-10.92,10.36,10.36,0,0,1,4.48-.69s6.41-2.44,37.37,14.94" transform="translate(-637.39 -166.62)"/><path class="cls-36" d="M948.07,950.81a53.58,53.58,0,0,0-16.68-18.57,12.7,12.7,0,0,0-12.12-1c-6.46,2.87-14,9.54-1.9,24.06l16.55,12,14.15,9" transform="translate(-637.39 -166.62)"/><path class="cls-36" d="M906.86,969l-12.08-12.66a68.13,68.13,0,0,0-6.84-5.74,11.77,11.77,0,0,1-3.26-3.92c-8.78-17.39,11.66-17.43,11.66-17.43s2.11-2.41,14.61,5.69" transform="translate(-637.39 -166.62)"/><path class="cls-36" d="M887,930.14s-27.49-7.56-27.49,14c0,17.64,27.11,20.09,37.16,20.39a12.69,12.69,0,0,1,6.84,2.23c10.64,7.35,46.16,30.26,70,27.86,0,0,56.59,12,50-55.5" transform="translate(-637.39 -166.62)"/><path class="cls-36" d="M1220.2,1675.86l7.27,31.73a23,23,0,0,0-19.94,24.27c.55,21.82,0,19.37,0,19.37s58.75,9.7,71.8,7.3,0-41.15,0-41.15-9.72-10.59-51.78-9.79" transform="translate(-637.39 -166.62)"/><path class="cls-36" d="M1305.25,1661.22l8.92,61.73s-16.22,13.89-31.26,8.15" transform="translate(-637.39 -166.62)"/><path class="cls-36" d="M1314.17,1696.88s19.55,12.36,0,26.07" transform="translate(-637.39 -166.62)"/><path class="cls-36" d="M1309.44,1690.12s21.53-2,27.19,10.17-3.21,42.88-3.21,42.88a81.26,81.26,0,0,1-48.35,15.74" transform="translate(-637.39 -166.62)"/><path class="cls-36" d="M1336,1732.49s19.55,30,0,47-71.33,4.22-71.33,4.22-25.34-24.22-82.14-17.76c0,0,2.58-24.27,25-14.56" transform="translate(-637.39 -166.62)"/><path class="cls-36" d="M1171.68,1781.19s-23.44-3.08-18.62,15.4c0,0,52.57-13,80.87,13.63,0,0,14.57-5.78,6.5-14.6S1195.12,1776.38,1171.68,1781.19Z" transform="translate(-637.39 -166.62)"/><path class="cls-36" d="M1153.06,1796.59s-1.69,36.55,80.87,13.63c0,0,56-13.37,30.74-26.67,0,0,5.66,25.87-18.41,4.73s-75.21-8.78-79.44-13.59,15.71-8.9,15.71-8.9" transform="translate(-637.39 -166.62)"/><path class="cls-36" d="M1163.57,1780l3.25-5.28" transform="translate(-637.39 -166.62)"/><path class="cls-36" d="M1152.42,1802.16s-32.18,17.77-37.2,40.39c-2.49,11.31-4.22,63.85-4.22,63.85s83.57,27.47,152.57,4.85c0,0,71.8-6.45,74.92-16.88s0-28.31,0-28.31-26.14,21.1-150.68,26.67c0,0-57.09-1.61-72.63-9.67" transform="translate(-637.39 -166.62)"/><path class="cls-36" d="M1338.53,1866v-29.88s-34.2,11.23-33.44-18.31,28.33-26,28.33-26l6.42-3.5.51-13.59" transform="translate(-637.39 -166.62)"/><path class="cls-36" d="M1340,1788.28s11.06,36.5-1.31,47.81" transform="translate(-637.39 -166.62)"/><path class="cls-36" d="M1233.93,1810.14a33.12,33.12,0,0,1,26.48,33.13c1,29.12,0,43.21,0,43.21" transform="translate(-637.39 -166.62)"/><path class="cls-36" d="M1386,1774.69a41.8,41.8,0,0,1,4.47-32.75v-41.52" transform="translate(-637.39 -166.62)"/><path class="cls-36" d="M1387.35,1726.2s-19.55,20.6-16.89,44" transform="translate(-637.39 -166.62)"/><path class="cls-36" d="M1359.35,1838.92s13.18-13.33,28-2.83,38.64,10.09,38.64,10.09,40.46,2.83,45.31-7" transform="translate(-637.39 -166.62)"/><path class="cls-36" d="M1472.78,1834.07c3.51-12.24-3.5-11.31-3.5-11.31s-69.55-3.25-78.85,0-3.08,11.31-3.08,11.31" transform="translate(-637.39 -166.62)"/><path class="cls-36" d="M1385.28,1825.59s-20.06-6.76-3.34-17.52l91.81,2.15s24,4.73,1.73,20.22" transform="translate(-637.39 -166.62)"/><path class="cls-36" d="M1382.45,1806.72s-9.67-8.44,2.83-12.11,88.47,3,88.47,3l11.19.8s15.88,2.44,1.31,17.26" transform="translate(-637.39 -166.62)"/><path class="cls-36" d="M1494.62,1804.53l19.13,1.64s12.67-25.82-2.16-41.48l-9.16-5.74s8.44,6.84,4.22,9.79-5.49,8.44-21.75,9.16-69.63.8-69.63.8l-36.41-4s-12.08.51-10.3-4.47c0,0-16.89,2.83-4.86,27.47l-4.22,41.23a35.71,35.71,0,0,0-7.52,24.22c1,14.56,0,66.68,0,66.68s-.29,9.71,18.58,9.71,126.69,4.43,126.69,4.43,10.52-.38,15-13.72-1.65-69.08-1.65-69.08-11.32-33.17-39.61-25.07" transform="translate(-637.39 -166.62)"/><path class="cls-36" d="M1514.25,1808.07l-2.66,49" transform="translate(-637.39 -166.62)"/><path class="cls-36" d="M1390.65,1741.94s43-34.6,86.36,2.58c0,0,8.44,3.42,6,33.46" transform="translate(-637.39 -166.62)"/><path class="cls-36" d="M1472.7,1690l1,52" transform="translate(-637.39 -166.62)"/><path class="cls-36" d="M1475.74,1711.1s17.19-6.42,20.48,28.57l3.76,34.73" transform="translate(-637.39 -166.62)"/><path class="cls-36" d="M1352.05,1911.76s8.44,6.5,35.3,6S1490,1920.2,1490,1920.2s22.13,1.56,24.28-4.22" transform="translate(-637.39 -166.62)"/><path class="cls-36" d="M1363.74,1797.69s3.3,3.25,15.29,1.73" transform="translate(-637.39 -166.62)"/><path class="cls-36" d="M1326.62,384l15.29,52.45s16.89,23.42,23.44,0l-12.29-76.89" transform="translate(-637.39 -166.62)"/><path class="cls-36" d="M1120.37,447.07a12.49,12.49,0,0,1,5.44.19,12.68,12.68,0,0,1,9.51,12c1.22,14.14-20,8.7-20,8.7l-15.16-5.07c-.67-.21-6.8-4.43-7.3-8.44-.38-2.7.33-5.23,4.22-5.65C1107.7,447.49,1120.37,447.07,1120.37,447.07Z" transform="translate(-637.39 -166.62)"/><path class="cls-36" d="M1176.54,449s-12.67-.55-11.32,8.82,2.7,9.11,15,11c14.78,2.28,27.36-9.88,27.36-9.88s7.39-7.93-2.7-9.91A122.78,122.78,0,0,0,1176.54,449Z" transform="translate(-637.39 -166.62)"/><path class="cls-36" d="M1021.55,345.79a14.59,14.59,0,0,1,12.38-10.26s-4.23,26.12,14,35.15c0,0-8.45,46.42,28.59,48.37s17.52-32.58,17.52-32.58" transform="translate(-637.39 -166.62)"/><path class="cls-36" d="M1033.93,335.45s23.18-59.08,73.86-9.67c0,0-27.5,28-11.87,65.71s66.68,31.77,66.68,31.77,25.34-3.79,27-21.1a256.94,256.94,0,0,0,0-37.43,44.62,44.62,0,0,1-28-20.72c-9.72-17.26-11.32-30.13-3.26-40.13s57.69-34.77,70.11,4.56-30,57.35-38.81,56.29" transform="translate(-637.39 -166.62)"/><path class="cls-36" d="M1028,308.52a23.51,23.51,0,0,1,27.5,0" transform="translate(-637.39 -166.62)"/><path class="cls-36" d="M1080.76,307.8a51.72,51.72,0,0,1-6.84-46.67c9.16-26.42,56.08-39.88,76.56-28.57,0,0-16.34,43.93,14.74,65.88" transform="translate(-637.39 -166.62)"/><path class="cls-36" d="M1107.7,325.78s25.85-17.85,45.53-7.85" transform="translate(-637.39 -166.62)"/><path class="cls-36" d="M1048,370.6s10.93-25.32,43.2-3.88" transform="translate(-637.39 -166.62)"/><path class="cls-36" d="M1053.35,254.63s13.81-2.23,22,2.91" transform="translate(-637.39 -166.62)"/><path class="cls-36" d="M1118.05,192.68s-4.22,9.2,5.91,35.87" transform="translate(-637.39 -166.62)"/><path class="cls-36" d="M1190.81,187.32s9.71,20.22,0,23.3-23.73-4.48-40.41,21.94" transform="translate(-637.39 -166.62)"/><path class="cls-36" d="M1190.81,210.74s52.28,2,54.44,36a48,48,0,0,1-26.35,46.42" transform="translate(-637.39 -166.62)"/><path class="cls-36" d="M1190.81,404.4s47.81,35.53,57-7.55" transform="translate(-637.39 -166.62)"/><path class="cls-36" d="M1231,340.3s-13.27,52.58,34.75,64.57,70.61-37.6,70.61-37.6,12.41-58.2-42.23-58.75S1231,340.3,1231,340.3Z" transform="translate(-637.39 -166.62)"/><path class="cls-36" d="M1244.15,240.28s87.37-29.75,62.58,68.41" transform="translate(-637.39 -166.62)"/><path class="cls-36" d="M1311.17,266.24s36.53-5.66,31.12-26.12-9.67-33.43-31.25-47.44" transform="translate(-637.39 -166.62)"/><path class="cls-36" d="M1268.43,188.38s-34.71,2.91-41.34,31.9" transform="translate(-637.39 -166.62)"/><path class="cls-36" d="M1341.83,249.61s64.1-10,60.3,54.35-64.53,55.75-64.53,55.75" transform="translate(-637.39 -166.62)"/><path class="cls-36" d="M1369.27,217s3.68,4.22,1.86,35" transform="translate(-637.39 -166.62)"/><path class="cls-36" d="M1392.8,266.24s19.8,2.95,25,19.11" transform="translate(-637.39 -166.62)"/><path class="cls-36" d="M1421.6,317.93c-12.37,16.38-24.16,9.24-24.16,9.24s17.19,13.13,14.19,32" transform="translate(-637.39 -166.62)"/><path class="cls-36" d="M1355.3,373.6s24.74,22.19,47.38,1.73" transform="translate(-637.39 -166.62)"/><path class="cls-36" d="M1122.48,466.1a6.84,6.84,0,1,0-6.84-6.84A6.84,6.84,0,0,0,1122.48,466.1Z" transform="translate(-637.39 -166.62)"/><path class="cls-36" d="M1176.88,467.49c3.28,0,5.95-3.06,5.95-6.84s-2.67-6.83-5.95-6.83-6,3.06-6,6.83S1173.59,467.49,1176.88,467.49Z" transform="translate(-637.39 -166.62)"/><path class="cls-36" d="M1178.94,620.09a224.56,224.56,0,0,1,40.25-.59" transform="translate(-637.39 -166.62)"/><path class="cls-36" d="M1211.29,647.65s1.61,2.27,14.15,0" transform="translate(-637.39 -166.62)"/><path class="cls-36" d="M931.39,932.24l24.16-3.2" transform="translate(-637.39 -166.62)"/></svg>