
       
            <svg width="2050" height="756" viewBox="0 0 2050 756" fill="none" xmlns="http://www.w3.org/2000/svg">
                <path d="M-10 146.875L21.3578 156.5C52.4867 166.125 115.202 185.375 177.689 190.875C240.176 196.375 302.891 188.125 364.92 178.5C427.178 168.875 488.978 157.875 551.236 151C613.264 144.125 675.98 141.375 738.467 153.75C800.953 166.125 863.669 193.625 926.156 201.875C988.642 210.125 1051.36 199.125 1113.84 193.625C1176.33 188.125 1239.05 188.125 1301.53 170.25C1364.02 152.375 1426.74 116.625 1488.76 113.875C1551.02 111.125 1612.82 141.375 1675.08 145.5C1737.11 149.625 1799.82 127.625 1862.31 137.25C1924.8 146.875 1987.51 188.125 2018.64 208.75L2050 229.375V69.875L2018.64 60.25C1987.51 50.625 1924.8 31.375 1862.31 30C1799.82 28.625 1737.11 45.125 1675.08 41C1612.82 36.875 1551.02 12.125 1488.76 3.87499C1426.74 -4.37501 1364.02 3.87499 1301.53 9.37499C1239.05 14.875 1176.33 17.625 1113.84 24.5C1051.36 31.375 988.642 42.375 926.156 45.125C863.669 47.875 800.953 42.375 738.467 34.125C675.98 25.875 613.264 14.875 551.236 20.375C488.978 25.875 427.178 47.875 364.92 56.125C302.891 64.375 240.176 58.875 177.689 56.125C115.202 53.375 52.4867 53.375 21.3578 53.375H-10V146.875Z" fill="#8642FF" />
                <path d="M-10 353.125H21.3578C52.4867 353.125 115.202 353.125 177.689 335.25C240.176 317.375 302.891 281.625 364.92 277.5C427.178 273.375 488.978 300.875 551.236 305C613.264 309.125 675.98 289.875 738.467 299.5C800.953 309.125 863.669 347.625 926.156 353.125C988.642 358.625 1051.36 331.125 1113.84 314.625C1176.33 298.125 1239.05 292.625 1301.53 281.625C1364.02 270.625 1426.74 254.125 1488.76 251.375C1551.02 248.625 1612.82 259.625 1675.08 266.5C1737.11 273.375 1799.82 276.125 1862.31 295.375C1924.8 314.625 1987.51 350.375 2018.64 368.25L2050 386.125V226.625L2018.64 206C1987.51 185.375 1924.8 144.125 1862.31 134.5C1799.82 124.875 1737.11 146.875 1675.08 142.75C1612.82 138.625 1551.02 108.375 1488.76 111.125C1426.74 113.875 1364.02 149.625 1301.53 167.5C1239.05 185.375 1176.33 185.375 1113.84 190.875C1051.36 196.375 988.642 207.375 926.156 199.125C863.669 190.875 800.953 163.375 738.467 151C675.98 138.625 613.264 141.375 551.236 148.25C488.978 155.125 427.178 166.125 364.92 175.75C302.891 185.375 240.176 193.625 177.689 188.125C115.202 182.625 52.4867 163.375 21.3578 153.75L-10 144.125V353.125Z" fill="#6600FF" />
                <path d="M-10 476.875L21.3578 475.5C52.4867 474.125 115.202 471.375 177.689 463.125C240.176 454.875 302.891 441.125 364.92 471.375C427.178 501.625 488.978 575.875 551.236 585.5C613.264 595.125 675.98 540.125 738.467 542.875C800.953 545.625 863.669 606.125 926.156 600.625C988.642 595.125 1051.36 523.625 1113.84 501.625C1176.33 479.625 1239.05 507.125 1301.53 529.125C1364.02 551.125 1426.74 567.625 1488.76 581.375C1551.02 595.125 1612.82 606.125 1675.08 584.125C1737.11 562.125 1799.82 507.125 1862.31 515.375C1924.8 523.625 1987.51 595.125 2018.64 630.875L2050 666.625V383.375L2018.64 365.5C1987.51 347.625 1924.8 311.875 1862.31 292.625C1799.82 273.375 1737.11 270.625 1675.08 263.75C1612.82 256.875 1551.02 245.875 1488.76 248.625C1426.74 251.375 1364.02 267.875 1301.53 278.875C1239.05 289.875 1176.33 295.375 1113.84 311.875C1051.36 328.375 988.642 355.875 926.156 350.375C863.669 344.875 800.953 306.375 738.467 296.75C675.98 287.125 613.264 306.375 551.236 302.25C488.978 298.125 427.178 270.625 364.92 274.75C302.891 278.875 240.176 314.625 177.689 332.5C115.202 350.375 52.4867 350.375 21.3578 350.375H-10V476.875Z" fill="#5802DC" />
                <path d="M-10 757.375H21.3578C52.4867 757.375 115.202 757.375 177.689 757.375C240.176 757.375 302.891 757.375 364.92 757.375C427.178 757.375 488.978 757.375 551.236 757.375C613.264 757.375 675.98 757.375 738.467 757.375C800.953 757.375 863.669 757.375 926.156 757.375C988.642 757.375 1051.36 757.375 1113.84 757.375C1176.33 757.375 1239.05 757.375 1301.53 757.375C1364.02 757.375 1426.74 757.375 1488.76 757.375C1551.02 757.375 1612.82 757.375 1675.08 757.375C1737.11 757.375 1799.82 757.375 1862.31 757.375C1924.8 757.375 1987.51 757.375 2018.64 757.375H2050V663.875L2018.64 628.125C1987.51 592.375 1924.8 520.875 1862.31 512.625C1799.82 504.375 1737.11 559.375 1675.08 581.375C1612.82 603.375 1551.02 592.375 1488.76 578.625C1426.74 564.875 1364.02 548.375 1301.53 526.375C1239.05 504.375 1176.33 476.875 1113.84 498.875C1051.36 520.875 988.642 592.375 926.156 597.875C863.669 603.375 800.953 542.875 738.467 540.125C675.98 537.375 613.264 592.375 551.236 582.75C488.978 573.125 427.178 498.875 364.92 468.625C302.891 438.375 240.176 452.125 177.689 460.375C115.202 468.625 52.4867 471.375 21.3578 472.75L-10 474.125V757.375Z" fill="#4B03BA" />
            </svg>
